<?xml version="1.0" encoding="utf-8"?>
<!-- Generator: Adobe Illustrator 28.3.0, SVG Export Plug-In . SVG Version: 6.00 Build 0)  -->
<svg version="1.1" id="Layer_1" xmlns="http://www.w3.org/2000/svg" xmlns:xlink="http://www.w3.org/1999/xlink" x="0px" y="0px"
	 viewBox="0 0 110 110" enable-background="new 0 0 110 110" xml:space="preserve">
<path d="M105,39.972H70.223v-0.817H66.58V27.942h-3.643V16.729h-3.643V5.516h-11.79v8.166H44.85v11.213h-3.643v11.213h-3.643v3.864
	H5v11.79h0.636v4.038h9.538v6.93h9.538v6.93h2.819v8.536h-3.643v11.213h-3.643v11.79h2.116v3.285h11.79v-6.93h9.538v-6.93h9.538
	v-1.883h7.286v6.93h9.538v6.93h5.699v1.645h11.79v-11.79h-3.643V81.243h-3.643V70.03h-0.764v-5.417h9.538v-6.93h9.538v-5.92H105
	V39.972z M40.37,51.762v-3.864h8.983V36.685h3.643v-8.166h1.793v11.213h3.643v11.213H69.63v0.817h17.148v1.061H77.24v6.93h-9.538
	v11.79h0.763V81.82h3.643v2.061h-9.342v-6.93h-11.79v1.883h-9.538v6.93h-5.76v-6.992h3.643v-11.79h-2.819v-9.113h-9.538v-6.107
	H40.37z"/>
</svg>
