<?xml version="1.0" encoding="utf-8"?>
<!-- Generator: Adobe Illustrator 28.3.0, SVG Export Plug-In . SVG Version: 6.00 Build 0)  -->
<svg version="1.1" id="Layer_1" xmlns="http://www.w3.org/2000/svg" xmlns:xlink="http://www.w3.org/1999/xlink" x="0px" y="0px"
	 viewBox="0 0 110 110" xml:space="preserve">
<g>
	<polygon points="28.438,12.178 24.141,12.178 24.141,16.475 28.438,16.475 	"/>
	<polygon points="28.438,16.963 24.141,16.963 24.141,21.26 28.438,21.26 	"/>
	<polygon points="33.223,12.178 28.926,12.178 28.926,16.475 33.223,16.475 	"/>
	<polygon points="23.652,16.963 19.355,16.963 19.355,21.26 23.652,21.26 	"/>
	<polygon points="28.438,21.748 24.141,21.748 24.141,26.045 28.438,26.045 	"/>
	<polygon points="33.223,16.963 28.926,16.963 28.926,21.26 33.223,21.26 	"/>
	<polygon points="23.652,21.748 19.355,21.748 19.355,26.045 23.652,26.045 	"/>
	<polygon points="28.438,26.533 24.141,26.533 24.141,30.83 28.438,30.83 	"/>
	<polygon points="33.223,21.748 28.926,21.748 28.926,26.045 33.223,26.045 	"/>
	<polygon points="38.008,16.963 33.711,16.963 33.711,21.26 38.008,21.26 	"/>
	<polygon points="18.867,21.748 14.57,21.748 14.57,26.045 18.867,26.045 	"/>
	<polygon points="23.652,26.533 19.355,26.533 19.355,30.83 23.652,30.83 	"/>
	<polygon points="28.438,31.318 24.141,31.318 24.141,35.615 28.438,35.615 	"/>
	<polygon points="33.223,26.533 28.926,26.533 28.926,30.83 33.223,30.83 	"/>
	<polygon points="38.008,21.748 33.711,21.748 33.711,26.045 38.008,26.045 	"/>
	<polygon points="18.867,26.533 14.57,26.533 14.57,30.83 18.867,30.83 	"/>
	<polygon points="23.652,31.318 19.355,31.318 19.355,35.615 23.652,35.615 	"/>
	<polygon points="28.438,36.103 24.141,36.103 24.141,40.401 28.438,40.401 	"/>
	<polygon points="33.223,31.318 28.926,31.318 28.926,35.615 33.223,35.615 	"/>
	<polygon points="38.008,26.533 33.711,26.533 33.711,30.83 38.008,30.83 	"/>
	<polygon points="42.793,21.748 38.496,21.748 38.496,26.045 42.793,26.045 	"/>
	<polygon points="14.082,26.533 9.785,26.533 9.785,30.83 14.082,30.83 	"/>
	<polygon points="18.867,31.318 14.57,31.318 14.57,35.615 18.867,35.615 	"/>
	<polygon points="23.652,36.103 19.355,36.103 19.355,40.401 23.652,40.401 	"/>
	<polygon points="28.438,40.889 24.141,40.889 24.141,45.186 28.438,45.186 	"/>
	<polygon points="33.223,36.103 28.926,36.103 28.926,40.401 33.223,40.401 	"/>
	<polygon points="38.008,31.318 33.711,31.318 33.711,35.615 38.008,35.615 	"/>
	<polygon points="42.793,26.533 38.496,26.533 38.496,30.83 42.793,30.83 	"/>
	<polygon points="14.082,31.318 9.785,31.318 9.785,35.615 14.082,35.615 	"/>
	<polygon points="18.867,36.103 14.57,36.103 14.57,40.401 18.867,40.401 	"/>
	<polygon points="23.652,40.889 19.355,40.889 19.355,45.186 23.652,45.186 	"/>
	<polygon points="28.438,45.674 24.141,45.674 24.141,49.971 28.438,49.971 	"/>
	<polygon points="33.223,40.889 28.926,40.889 28.926,45.186 33.223,45.186 	"/>
	<polygon points="38.008,36.103 33.711,36.103 33.711,40.401 38.008,40.401 	"/>
	<polygon points="42.793,31.318 38.496,31.318 38.496,35.615 42.793,35.615 	"/>
	<polygon points="9.297,31.318 5,31.318 5,35.615 9.297,35.615 	"/>
	<polygon points="14.082,36.103 9.785,36.103 9.785,40.401 14.082,40.401 	"/>
	<polygon points="18.867,40.889 14.57,40.889 14.57,45.186 18.867,45.186 	"/>
	<polygon points="23.652,45.674 19.355,45.674 19.355,49.971 23.652,49.971 	"/>
	<polygon points="28.438,50.459 24.141,50.459 24.141,54.756 28.438,54.756 	"/>
	<polygon points="33.223,45.674 28.926,45.674 28.926,49.971 33.223,49.971 	"/>
	<polygon points="38.008,40.889 33.711,40.889 33.711,45.186 38.008,45.186 	"/>
	<polygon points="42.793,36.103 38.496,36.103 38.496,40.401 42.793,40.401 	"/>
	<polygon points="47.578,31.318 43.281,31.318 43.281,35.615 47.578,35.615 	"/>
	<polygon points="9.297,36.103 5,36.103 5,40.401 9.297,40.401 	"/>
	<polygon points="14.082,40.889 9.785,40.889 9.785,45.186 14.082,45.186 	"/>
	<polygon points="18.867,45.674 14.57,45.674 14.57,49.971 18.867,49.971 	"/>
	<polygon points="23.652,50.459 19.355,50.459 19.355,54.756 23.652,54.756 	"/>
	<polygon points="28.438,55.244 24.141,55.244 24.141,59.541 28.438,59.541 	"/>
	<polygon points="33.223,50.459 28.926,50.459 28.926,54.756 33.223,54.756 	"/>
	<polygon points="38.008,45.674 33.711,45.674 33.711,49.971 38.008,49.971 	"/>
	<polygon points="42.793,40.889 38.496,40.889 38.496,45.186 42.793,45.186 	"/>
	<polygon points="47.578,36.103 43.281,36.103 43.281,40.401 47.578,40.401 	"/>
	<polygon points="9.297,40.889 5,40.889 5,45.186 9.297,45.186 	"/>
	<polygon points="14.082,45.674 9.785,45.674 9.785,49.971 14.082,49.971 	"/>
	<polygon points="18.867,50.459 14.57,50.459 14.57,54.756 18.867,54.756 	"/>
	<polygon points="23.652,55.244 19.355,55.244 19.355,59.541 23.652,59.541 	"/>
	<polygon points="28.438,60.029 24.141,60.029 24.141,64.326 28.438,64.326 	"/>
	<polygon points="33.223,55.244 28.926,55.244 28.926,59.541 33.223,59.541 	"/>
	<polygon points="42.793,45.674 38.496,45.674 38.496,49.971 42.793,49.971 	"/>
	<polygon points="47.578,40.889 43.281,40.889 43.281,45.186 47.578,45.186 	"/>
	<polygon points="9.297,45.674 5,45.674 5,49.971 9.297,49.971 	"/>
	<polygon points="14.082,50.459 9.785,50.459 9.785,54.756 14.082,54.756 	"/>
	<polygon points="18.867,55.244 14.57,55.244 14.57,59.541 18.867,59.541 	"/>
	<polygon points="23.652,60.029 19.355,60.029 19.355,64.326 23.652,64.326 	"/>
	<polygon points="28.438,64.814 24.141,64.814 24.141,69.111 28.438,69.111 	"/>
	<polygon points="33.223,60.029 28.926,60.029 28.926,64.326 33.223,64.326 	"/>
	<polygon points="42.793,50.459 38.496,50.459 38.496,54.756 42.793,54.756 	"/>
	<polygon points="47.578,45.674 43.281,45.674 43.281,49.971 47.578,49.971 	"/>
	<polygon points="9.297,50.459 5,50.459 5,54.756 9.297,54.756 	"/>
	<polygon points="14.082,55.244 9.785,55.244 9.785,59.541 14.082,59.541 	"/>
	<polygon points="18.867,60.029 14.57,60.029 14.57,64.326 18.867,64.326 	"/>
	<polygon points="23.652,64.814 19.355,64.814 19.355,69.111 23.652,69.111 	"/>
	<polygon points="28.438,69.599 24.141,69.599 24.141,73.897 28.438,73.897 	"/>
	<polygon points="33.223,64.814 28.926,64.814 28.926,69.111 33.223,69.111 	"/>
	<polygon points="42.793,55.244 38.496,55.244 38.496,59.541 42.793,59.541 	"/>
	<polygon points="47.578,50.459 43.281,50.459 43.281,54.756 47.578,54.756 	"/>
	<polygon points="52.363,45.674 48.066,45.674 48.066,49.971 52.363,49.971 	"/>
	<polygon points="9.297,55.244 5,55.244 5,59.541 9.297,59.541 	"/>
	<polygon points="14.082,60.029 9.785,60.029 9.785,64.326 14.082,64.326 	"/>
	<polygon points="18.867,64.814 14.57,64.814 14.57,69.111 18.867,69.111 	"/>
	<polygon points="23.652,69.599 19.355,69.599 19.355,73.897 23.652,73.897 	"/>
	<polygon points="28.438,74.385 24.141,74.385 24.141,78.682 28.438,78.682 	"/>
	<polygon points="33.223,69.599 28.926,69.599 28.926,73.897 33.223,73.897 	"/>
	<polygon points="42.793,60.029 38.496,60.029 38.496,64.326 42.793,64.326 	"/>
	<polygon points="47.578,55.244 43.281,55.244 43.281,59.541 47.578,59.541 	"/>
	<polygon points="52.363,50.459 48.066,50.459 48.066,54.756 52.363,54.756 	"/>
	<polygon points="9.297,60.029 5,60.029 5,64.326 9.297,64.326 	"/>
	<polygon points="14.082,64.814 9.785,64.814 9.785,69.111 14.082,69.111 	"/>
	<polygon points="18.867,69.599 14.57,69.599 14.57,73.897 18.867,73.897 	"/>
	<polygon points="23.652,74.385 19.355,74.385 19.355,78.682 23.652,78.682 	"/>
	<polygon points="28.438,79.17 24.141,79.17 24.141,83.467 28.438,83.467 	"/>
	<polygon points="33.223,74.385 28.926,74.385 28.926,78.682 33.223,78.682 	"/>
	<polygon points="42.793,64.814 38.496,64.814 38.496,69.111 42.793,69.111 	"/>
	<polygon points="47.578,60.029 43.281,60.029 43.281,64.326 47.578,64.326 	"/>
	<polygon points="52.363,55.244 48.066,55.244 48.066,59.541 52.363,59.541 	"/>
	<polygon points="9.297,64.814 5,64.814 5,69.111 9.297,69.111 	"/>
	<polygon points="14.082,69.599 9.785,69.599 9.785,73.897 14.082,73.897 	"/>
	<polygon points="18.867,74.385 14.57,74.385 14.57,78.682 18.867,78.682 	"/>
	<polygon points="23.652,79.17 19.355,79.17 19.355,83.467 23.652,83.467 	"/>
	<polygon points="28.438,83.955 24.141,83.955 24.141,88.252 28.438,88.252 	"/>
	<polygon points="33.223,79.17 28.926,79.17 28.926,83.467 33.223,83.467 	"/>
	<polygon points="47.578,64.814 43.281,64.814 43.281,69.111 47.578,69.111 	"/>
	<polygon points="52.363,60.029 48.066,60.029 48.066,64.326 52.363,64.326 	"/>
	<polygon points="9.297,69.599 5,69.599 5,73.897 9.297,73.897 	"/>
	<polygon points="14.082,74.385 9.785,74.385 9.785,78.682 14.082,78.682 	"/>
	<polygon points="18.867,79.17 14.57,79.17 14.57,83.467 18.867,83.467 	"/>
	<polygon points="14.082,79.17 9.785,79.17 9.785,83.467 14.082,83.467 	"/>
	<polygon points="23.652,83.955 19.355,83.955 19.355,88.252 23.652,88.252 	"/>
	<polygon points="28.438,88.74 24.141,88.74 24.141,93.037 28.438,93.037 	"/>
	<polygon points="33.223,83.955 28.926,83.955 28.926,88.252 33.223,88.252 	"/>
	<polygon points="47.578,69.599 43.281,69.599 43.281,73.897 47.578,73.897 	"/>
	<polygon points="52.363,64.814 48.066,64.814 48.066,69.111 52.363,69.111 	"/>
	<polygon points="57.149,60.029 52.851,60.029 52.851,64.326 57.149,64.326 	"/>
	<polygon points="9.297,74.385 5,74.385 5,78.682 9.297,78.682 	"/>
	<polygon points="18.867,83.955 14.57,83.955 14.57,88.252 18.867,88.252 	"/>
	<polygon points="23.652,88.74 19.355,88.74 19.355,93.037 23.652,93.037 	"/>
	<polygon points="47.578,74.385 43.281,74.385 43.281,78.682 47.578,78.682 	"/>
	<polygon points="52.363,69.599 48.066,69.599 48.066,73.897 52.363,73.897 	"/>
	<polygon points="57.149,64.814 52.851,64.814 52.851,69.111 57.149,69.111 	"/>
	<polygon points="61.934,60.029 57.637,60.029 57.637,64.326 61.934,64.326 	"/>
	<polygon points="9.297,79.17 5,79.17 5,83.467 9.297,83.467 	"/>
	<polygon points="14.082,83.955 9.785,83.955 9.785,88.252 14.082,88.252 	"/>
	<polygon points="18.867,88.74 14.57,88.74 14.57,93.037 18.867,93.037 	"/>
	<polygon points="23.652,93.525 19.355,93.525 19.355,97.822 23.652,97.822 	"/>
	<polygon points="47.578,79.17 43.281,79.17 43.281,83.467 47.578,83.467 	"/>
	<polygon points="52.363,74.385 48.066,74.385 48.066,78.682 52.363,78.682 	"/>
	<polygon points="57.149,69.599 52.851,69.599 52.851,73.897 57.149,73.897 	"/>
	<polygon points="61.934,64.814 57.637,64.814 57.637,69.111 61.934,69.111 	"/>
	<polygon points="61.934,55.244 57.637,55.244 57.637,59.541 61.934,59.541 	"/>
	<polygon points="66.719,60.029 62.422,60.029 62.422,64.326 66.719,64.326 	"/>
	<polygon points="9.297,83.955 5,83.955 5,88.252 9.297,88.252 	"/>
	<polygon points="14.082,88.74 9.785,88.74 9.785,93.037 14.082,93.037 	"/>
	<polygon points="18.867,93.525 14.57,93.525 14.57,97.822 18.867,97.822 	"/>
	<polygon points="52.363,79.17 48.066,79.17 48.066,83.467 52.363,83.467 	"/>
	<polygon points="57.149,74.385 52.851,74.385 52.851,78.682 57.149,78.682 	"/>
	<polygon points="61.934,69.599 57.637,69.599 57.637,73.897 61.934,73.897 	"/>
	<polygon points="66.719,64.814 62.422,64.814 62.422,69.111 66.719,69.111 	"/>
	<polygon points="61.934,50.459 57.637,50.459 57.637,54.756 61.934,54.756 	"/>
	<polygon points="66.719,55.244 62.422,55.244 62.422,59.541 66.719,59.541 	"/>
	<polygon points="71.504,60.029 67.207,60.029 67.207,64.326 71.504,64.326 	"/>
	<polygon points="52.363,83.955 48.066,83.955 48.066,88.252 52.363,88.252 	"/>
	<polygon points="57.149,79.17 52.851,79.17 52.851,83.467 57.149,83.467 	"/>
	<polygon points="61.934,74.385 57.637,74.385 57.637,78.682 61.934,78.682 	"/>
	<polygon points="66.719,69.599 62.422,69.599 62.422,73.897 66.719,73.897 	"/>
	<polygon points="71.504,64.814 67.207,64.814 67.207,69.111 71.504,69.111 	"/>
	<polygon points="61.934,45.674 57.637,45.674 57.637,49.971 61.934,49.971 	"/>
	<polygon points="66.719,50.459 62.422,50.459 62.422,54.756 66.719,54.756 	"/>
	<polygon points="71.504,55.244 67.207,55.244 67.207,59.541 71.504,59.541 	"/>
	<polygon points="52.363,88.74 48.066,88.74 48.066,93.037 52.363,93.037 	"/>
	<polygon points="57.149,83.955 52.851,83.955 52.851,88.252 57.149,88.252 	"/>
	<polygon points="61.934,79.17 57.637,79.17 57.637,83.467 61.934,83.467 	"/>
	<polygon points="66.719,74.385 62.422,74.385 62.422,78.682 66.719,78.682 	"/>
	<polygon points="66.719,45.674 62.422,45.674 62.422,49.971 66.719,49.971 	"/>
	<polygon points="71.504,50.459 67.207,50.459 67.207,54.756 71.504,54.756 	"/>
	<polygon points="57.149,88.74 52.851,88.74 52.851,93.037 57.149,93.037 	"/>
	<polygon points="61.934,83.955 57.637,83.955 57.637,88.252 61.934,88.252 	"/>
	<polygon points="66.719,79.17 62.422,79.17 62.422,83.467 66.719,83.467 	"/>
	<polygon points="66.719,40.889 62.422,40.889 62.422,45.186 66.719,45.186 	"/>
	<polygon points="71.504,45.674 67.207,45.674 67.207,49.971 71.504,49.971 	"/>
	<polygon points="57.149,93.525 52.851,93.525 52.851,97.822 57.149,97.822 	"/>
	<polygon points="61.934,88.74 57.637,88.74 57.637,93.037 61.934,93.037 	"/>
	<polygon points="66.719,36.103 62.422,36.103 62.422,40.401 66.719,40.401 	"/>
	<polygon points="71.504,40.889 67.207,40.889 67.207,45.186 71.504,45.186 	"/>
	<polygon points="76.289,45.674 71.992,45.674 71.992,49.971 76.289,49.971 	"/>
	<polygon points="66.719,31.318 62.422,31.318 62.422,35.615 66.719,35.615 	"/>
	<polygon points="71.504,36.103 67.207,36.103 67.207,40.401 71.504,40.401 	"/>
	<polygon points="76.289,40.889 71.992,40.889 71.992,45.186 76.289,45.186 	"/>
	<polygon points="81.074,45.674 76.777,45.674 76.777,49.971 81.074,49.971 	"/>
	<polygon points="71.504,31.318 67.207,31.318 67.207,35.615 71.504,35.615 	"/>
	<polygon points="76.289,36.103 71.992,36.103 71.992,40.401 76.289,40.401 	"/>
	<polygon points="81.074,40.889 76.777,40.889 76.777,45.186 81.074,45.186 	"/>
	<polygon points="81.074,50.459 76.777,50.459 76.777,54.756 81.074,54.756 	"/>
	<polygon points="85.859,45.674 81.562,45.674 81.562,49.971 85.859,49.971 	"/>
	<polygon points="71.504,26.533 67.207,26.533 67.207,30.83 71.504,30.83 	"/>
	<polygon points="76.289,31.318 71.992,31.318 71.992,35.615 76.289,35.615 	"/>
	<polygon points="81.074,36.103 76.777,36.103 76.777,40.401 81.074,40.401 	"/>
	<polygon points="85.859,40.889 81.562,40.889 81.562,45.186 85.859,45.186 	"/>
	<polygon points="81.074,55.244 76.777,55.244 76.777,59.541 81.074,59.541 	"/>
	<polygon points="85.859,50.459 81.562,50.459 81.562,54.756 85.859,54.756 	"/>
	<polygon points="90.645,45.674 86.348,45.674 86.348,49.971 90.645,49.971 	"/>
	<polygon points="71.504,21.748 67.207,21.748 67.207,26.045 71.504,26.045 	"/>
	<polygon points="76.289,26.533 71.992,26.533 71.992,30.83 76.289,30.83 	"/>
	<polygon points="81.074,31.318 76.777,31.318 76.777,35.615 81.074,35.615 	"/>
	<polygon points="85.859,36.103 81.562,36.103 81.562,40.401 85.859,40.401 	"/>
	<polygon points="90.645,40.889 86.348,40.889 86.348,45.186 90.645,45.186 	"/>
	<polygon points="81.074,60.029 76.777,60.029 76.777,64.326 81.074,64.326 	"/>
	<polygon points="85.859,55.244 81.562,55.244 81.562,59.541 85.859,59.541 	"/>
	<polygon points="90.645,50.459 86.348,50.459 86.348,54.756 90.645,54.756 	"/>
	<polygon points="95.43,45.674 91.133,45.674 91.133,49.971 95.43,49.971 	"/>
	<polygon points="76.289,21.748 71.992,21.748 71.992,26.045 76.289,26.045 	"/>
	<polygon points="81.074,26.533 76.777,26.533 76.777,30.83 81.074,30.83 	"/>
	<polygon points="85.859,31.318 81.562,31.318 81.562,35.615 85.859,35.615 	"/>
	<polygon points="90.645,36.103 86.348,36.103 86.348,40.401 90.645,40.401 	"/>
	<polygon points="95.43,40.889 91.133,40.889 91.133,45.186 95.43,45.186 	"/>
	<polygon points="81.074,64.814 76.777,64.814 76.777,69.111 81.074,69.111 	"/>
	<polygon points="85.859,60.029 81.562,60.029 81.562,64.326 85.859,64.326 	"/>
	<polygon points="90.645,55.244 86.348,55.244 86.348,59.541 90.645,59.541 	"/>
	<polygon points="95.43,50.459 91.133,50.459 91.133,54.756 95.43,54.756 	"/>
	<polygon points="100.215,45.674 95.918,45.674 95.918,49.971 100.215,49.971 	"/>
	<polygon points="76.289,16.963 71.992,16.963 71.992,21.26 76.289,21.26 	"/>
	<polygon points="81.074,21.748 76.777,21.748 76.777,26.045 81.074,26.045 	"/>
	<polygon points="85.859,26.533 81.562,26.533 81.562,30.83 85.859,30.83 	"/>
	<polygon points="90.645,31.318 86.348,31.318 86.348,35.615 90.645,35.615 	"/>
	<polygon points="95.43,36.103 91.133,36.103 91.133,40.401 95.43,40.401 	"/>
	<polygon points="100.215,40.889 95.918,40.889 95.918,45.186 100.215,45.186 	"/>
	<polygon points="81.074,69.599 76.777,69.599 76.777,73.897 81.074,73.897 	"/>
	<polygon points="85.859,64.814 81.562,64.814 81.562,69.111 85.859,69.111 	"/>
	<polygon points="90.645,60.029 86.348,60.029 86.348,64.326 90.645,64.326 	"/>
	<polygon points="95.43,55.244 91.133,55.244 91.133,59.541 95.43,59.541 	"/>
	<polygon points="100.215,50.459 95.918,50.459 95.918,54.756 100.215,54.756 	"/>
	<polygon points="105,45.674 100.703,45.674 100.703,49.971 105,49.971 	"/>
	<polygon points="81.074,16.963 76.777,16.963 76.777,21.26 81.074,21.26 	"/>
	<polygon points="85.859,21.748 81.562,21.748 81.562,26.045 85.859,26.045 	"/>
	<polygon points="90.645,26.533 86.348,26.533 86.348,30.83 90.645,30.83 	"/>
	<polygon points="95.43,31.318 91.133,31.318 91.133,35.615 95.43,35.615 	"/>
	<polygon points="100.215,36.103 95.918,36.103 95.918,40.401 100.215,40.401 	"/>
	<polygon points="105,40.889 100.703,40.889 100.703,45.186 105,45.186 	"/>
	<polygon points="81.074,74.385 76.777,74.385 76.777,78.682 81.074,78.682 	"/>
	<polygon points="85.859,69.599 81.562,69.599 81.562,73.897 85.859,73.897 	"/>
	<polygon points="90.645,64.814 86.348,64.814 86.348,69.111 90.645,69.111 	"/>
	<polygon points="95.43,60.029 91.133,60.029 91.133,64.326 95.43,64.326 	"/>
	<polygon points="100.215,55.244 95.918,55.244 95.918,59.541 100.215,59.541 	"/>
	<polygon points="105,50.459 100.703,50.459 100.703,54.756 105,54.756 	"/>
	<polygon points="81.074,12.178 76.777,12.178 76.777,16.475 81.074,16.475 	"/>
	<polygon points="85.859,16.963 81.562,16.963 81.562,21.26 85.859,21.26 	"/>
	<polygon points="90.645,21.748 86.348,21.748 86.348,26.045 90.645,26.045 	"/>
	<polygon points="95.43,26.533 91.133,26.533 91.133,30.83 95.43,30.83 	"/>
	<polygon points="100.215,31.318 95.918,31.318 95.918,35.615 100.215,35.615 	"/>
	<polygon points="105,36.103 100.703,36.103 100.703,40.401 105,40.401 	"/>
	<polygon points="81.074,79.17 76.777,79.17 76.777,83.467 81.074,83.467 	"/>
	<polygon points="85.859,74.385 81.562,74.385 81.562,78.682 85.859,78.682 	"/>
	<polygon points="90.645,69.599 86.348,69.599 86.348,73.897 90.645,73.897 	"/>
	<polygon points="95.43,64.814 91.133,64.814 91.133,69.111 95.43,69.111 	"/>
	<polygon points="100.215,60.029 95.918,60.029 95.918,64.326 100.215,64.326 	"/>
	<polygon points="105,55.244 100.703,55.244 100.703,59.541 105,59.541 	"/>
	<polygon points="85.859,12.178 81.562,12.178 81.562,16.475 85.859,16.475 	"/>
	<polygon points="90.645,16.963 86.348,16.963 86.348,21.26 90.645,21.26 	"/>
	<polygon points="95.43,21.748 91.133,21.748 91.133,26.045 95.43,26.045 	"/>
	<polygon points="100.215,26.533 95.918,26.533 95.918,30.83 100.215,30.83 	"/>
	<polygon points="105,31.318 100.703,31.318 100.703,35.615 105,35.615 	"/>
	<polygon points="81.074,83.955 76.777,83.955 76.777,88.252 81.074,88.252 	"/>
	<polygon points="85.859,79.17 81.562,79.17 81.562,83.467 85.859,83.467 	"/>
	<polygon points="90.645,74.385 86.348,74.385 86.348,78.682 90.645,78.682 	"/>
	<polygon points="95.43,69.599 91.133,69.599 91.133,73.897 95.43,73.897 	"/>
	<polygon points="100.215,64.814 95.918,64.814 95.918,69.111 100.215,69.111 	"/>
	<polygon points="105,60.029 100.703,60.029 100.703,64.326 105,64.326 	"/>
	<polygon points="85.859,83.955 81.562,83.955 81.562,88.252 85.859,88.252 	"/>
	<polygon points="90.645,79.17 86.348,79.17 86.348,83.467 90.645,83.467 	"/>
	<polygon points="95.43,74.385 91.133,74.385 91.133,78.682 95.43,78.682 	"/>
	<polygon points="100.215,69.599 95.918,69.599 95.918,73.897 100.215,73.897 	"/>
	<polygon points="105,64.814 100.703,64.814 100.703,69.111 105,69.111 	"/>
	<polygon points="85.859,88.74 81.562,88.74 81.562,93.037 85.859,93.037 	"/>
	<polygon points="90.645,83.955 86.348,83.955 86.348,88.252 90.645,88.252 	"/>
	<polygon points="95.43,79.17 91.133,79.17 91.133,83.467 95.43,83.467 	"/>
	<polygon points="100.215,74.385 95.918,74.385 95.918,78.682 100.215,78.682 	"/>
	<polygon points="105,69.599 100.703,69.599 100.703,73.897 105,73.897 	"/>
	<polygon points="90.645,88.74 86.348,88.74 86.348,93.037 90.645,93.037 	"/>
	<polygon points="95.43,83.955 91.133,83.955 91.133,88.252 95.43,88.252 	"/>
	<polygon points="100.215,79.17 95.918,79.17 95.918,83.467 100.215,83.467 	"/>
	<polygon points="105,74.385 100.703,74.385 100.703,78.682 105,78.682 	"/>
	<polygon points="90.645,93.525 86.348,93.525 86.348,97.822 90.645,97.822 	"/>
	<polygon points="95.43,88.74 91.133,88.74 91.133,93.037 95.43,93.037 	"/>
	<polygon points="100.215,83.955 95.918,83.955 95.918,88.252 100.215,88.252 	"/>
	<polygon points="105,79.17 100.703,79.17 100.703,83.467 105,83.467 	"/>
	<polygon points="95.43,93.525 91.133,93.525 91.133,97.822 95.43,97.822 	"/>
	<polygon points="100.215,88.74 95.918,88.74 95.918,93.037 100.215,93.037 	"/>
	<polygon points="105,83.955 100.703,83.955 100.703,88.252 105,88.252 	"/>
</g>
</svg>
