<?xml version="1.0" encoding="UTF-8"?>
<svg id="a" data-name="Layer 1" xmlns="http://www.w3.org/2000/svg" width="110" height="110" viewBox="0 0 110 110">
  <path d="M56.211,37.345h35.078c.669,0,1.211.465,1.211,1.039v4.154c0,.574.542,1.039,1.211,1.039h3.828c.669,0,1.211.465,1.211,1.039v4.154c0,.574.542,1.039,1.211,1.039h3.828c.669,0,1.211.465,1.211,1.039v6.231c0,.574-.542,1.039-1.211,1.039h-3.828c-.669,0-1.211.465-1.211,1.039v4.154c0,.574-.542,1.039-1.211,1.039h-3.828c-.669,0-1.211.465-1.211,1.039h0c0,.574-.542,1.039-1.211,1.039h-3.828c-.669,0-1.211.465-1.211,1.039h0c0,.574-.542,1.039-1.211,1.039h-3.828c-.669,0-1.211.465-1.211,1.039h0c0,.574-.542,1.039-1.211,1.039h-10.078c-.669,0-1.211.465-1.211,1.039h0c0,.574-.542,1.039-1.211,1.039H18.711c-.669,0-1.211-.465-1.211-1.039h0c0-.574-.542-1.039-1.211-1.039h-3.828c-.669,0-1.211-.465-1.211-1.039v-2.077c0-.574-.542-1.039-1.211-1.039h-3.828c-.669,0-1.211-.465-1.211-1.039v-8.308c0-.574.542-1.039,1.211-1.039h3.828c.669,0,1.211-.465,1.211-1.039v-4.154c0-.574.542-1.039,1.211-1.039h3.828c.669,0,1.211-.465,1.211-1.039v-2.077c0-.574.542-1.039,1.211-1.039h3.828c.669,0,1.211-.465,1.211-1.039h0c0-.574.542-1.039,1.211-1.039h3.828c.669,0,1.211-.465,1.211-1.039h0c0-.574.542-1.039,1.211-1.039h3.828c.669,0,1.211-.465,1.211-1.039h0c0-.574.542-1.039,1.211-1.039h16.328c.669,0,1.211-.465,1.211-1.039h0c0-.574.542-1.039,1.211-1.039ZM78.609,38.503l-19.052,2.52c-.564.075-.97.527-.906,1.011h0c.064.484-.342.937-.906,1.011l-13.778,1.822c-.564.075-.97.527-.906,1.011h0c.064.484-.342.937-.906,1.011l-3.23.427c-.564.075-.97.527-.906,1.011h0c.064.484-.342.937-.906,1.011l-3.23.427c-.564.075-.97.527-.906,1.011h0c.064.484-.342.937-.906,1.011l-3.23.427c-.564.075-.97.527-.906,1.011l.232,1.753c.064.484-.342.937-.906,1.011l-3.23.427c-.564.075-.97.527-.906,1.011l.464,3.505c.064.484-.342.937-.906,1.011l-3.23.427c-.564.075-.97.527-.906,1.011l.464,3.505c.064.484.573.816,1.138.741l3.23-.427c.564-.075,1.074.257,1.138.741l.232,1.753c.064.484.573.816,1.138.741l3.23-.427c.564-.075,1.074.257,1.138.741h0c.064.484.573.816,1.138.741l29.599-3.914c.564-.075.97-.527.906-1.011h0c-.064-.484.342-.937.906-1.011l8.504-1.125c.564-.075.97-.527.906-1.011h0c-.064-.484.342-.937.906-1.011l3.23-.427c.564-.075.97-.527.906-1.011h0c-.064-.484.342-.937.906-1.011l3.23-.427c.564-.075.97-.527.906-1.011h0c-.064-.484.342-.937.906-1.011l3.23-.427c.564-.075.97-.527.906-1.011l-.464-3.505c-.064-.484.342-.937.906-1.011l3.23-.427c.564-.075.97-.527.906-1.011l-.232-1.753c-.064-.484-.573-.816-1.138-.741l-3.23.427c-.564.075-1.074-.257-1.138-.741l-.464-3.505c-.064-.484-.573-.816-1.138-.741l-3.23.427c-.564.075-1.074-.257-1.138-.741l-.464-3.505c-.064-.484-.573-.816-1.138-.741Z" fill="#000" stroke-width="0"/>
</svg>