<svg width="347" height="74" viewBox="0 0 347 74" fill="none" xmlns="http://www.w3.org/2000/svg">
<path d="M11.9926 24.8874C11.9926 11.4186 22.9112 0.5 36.38 0.5V0.5V35.7976H11.9926V24.8874Z" fill="#E9E9EB" stroke="#E9E9EB"/>
<rect x="11.9926" y="35.7974" width="24.3874" height="2.40483" fill="#E9E9EB" stroke="#E9E9EB"/>
<path d="M36.38 38.2021V73.5C30.474 73.5 25.0587 71.3995 20.839 67.9062C16.6293 70.7109 9.87958 73.3784 1.72375 71.8955C3.96996 70.9328 12.6335 65.1564 12.3126 53.6045C12.3519 53.6585 12.394 53.7111 12.4366 53.7627C12.146 52.2572 11.9923 50.7027 11.9923 49.1123V38.2021H36.38Z" fill="#E9E9EB"/>
<path d="M36.38 38.2021H36.88V37.7021H36.38V38.2021ZM36.38 73.5V74H36.88V73.5H36.38ZM20.839 67.9062L21.1578 67.5211L20.8713 67.2839L20.5618 67.4901L20.839 67.9062ZM1.72375 71.8955L1.5268 71.4359L-3.08752e-05 72.0903L1.63431 72.3874L1.72375 71.8955ZM12.3126 53.6045L12.717 53.3104L11.768 52.0056L11.8128 53.6184L12.3126 53.6045ZM12.4366 53.7627L12.0514 54.0814L12.9276 53.6679L12.4366 53.7627ZM11.9923 38.2021V37.7021H11.4923V38.2021H11.9923ZM36.38 38.2021H35.88V73.5H36.38H36.88V38.2021H36.38ZM36.38 73.5V73C30.5947 73 25.2913 70.9429 21.1578 67.5211L20.839 67.9062L20.5201 68.2914C24.8262 71.8561 30.3533 74 36.38 74V73.5ZM20.839 67.9062L20.5618 67.4901C16.4295 70.2432 9.80968 72.8575 1.8132 71.4036L1.72375 71.8955L1.63431 72.3874C9.94947 73.8993 16.8292 71.1786 21.1162 68.3224L20.839 67.9062ZM1.72375 71.8955L1.92071 72.3551C3.12043 71.8409 5.91402 70.1052 8.3713 67.0333C10.8384 63.9492 12.9767 59.5046 12.8124 53.5906L12.3126 53.6045L11.8128 53.6184C11.9694 59.2563 9.93641 63.4759 7.5904 66.4086C5.23458 69.3537 2.57329 70.9874 1.5268 71.4359L1.72375 71.8955ZM12.3126 53.6045L11.9083 53.8986C11.9562 53.9645 12.0056 54.026 12.0514 54.0814L12.4366 53.7627L12.8219 53.444C12.7824 53.3962 12.7476 53.3525 12.717 53.3104L12.3126 53.6045ZM12.4366 53.7627L12.9276 53.6679C12.6428 52.1932 12.4923 50.6704 12.4923 49.1123H11.9923H11.4923C11.4923 50.735 11.6491 52.3212 11.9457 53.8575L12.4366 53.7627ZM11.9923 49.1123H12.4923V38.2021H11.9923H11.4923V49.1123H11.9923ZM11.9923 38.2021V38.7021H36.38V38.2021V37.7021H11.9923V38.2021Z" fill="#E9E9EB"/>
<rect x="36.3796" y="0.500061" width="284.957" height="73" fill="#E9E9EB"/>
<rect x="36.3796" y="0.500061" width="284.957" height="73" stroke="#E9E9EB"/>
<path d="M345.724 24.8874C345.724 11.4186 334.805 0.5 321.336 0.5V0.5V35.7976H345.724V24.8874Z" fill="#E9E9EB" stroke="#E9E9EB"/>
<rect width="24.3874" height="2.40483" transform="matrix(-1 0 0 1 345.724 35.7976)" fill="#E9E9EB" stroke="#E9E9EB"/>
<path d="M345.724 49.1126C345.724 62.5814 334.805 73.5 321.336 73.5V73.5V38.2024H345.724V49.1126Z" fill="#E9E9EB" stroke="#E9E9EB"/>
</svg>
