<?xml version="1.0" encoding="utf-8"?>
<!-- Generator: Adobe Illustrator 28.3.0, SVG Export Plug-In . SVG Version: 6.00 Build 0)  -->
<svg version="1.1" id="Layer_1" xmlns="http://www.w3.org/2000/svg" xmlns:xlink="http://www.w3.org/1999/xlink" x="0px" y="0px"
	 viewBox="0 0 110 110" enable-background="new 0 0 110 110" xml:space="preserve">
<path fill="none" stroke="#000000" stroke-width="0.8245" stroke-miterlimit="10" d="M94.345,48.193L83.802,43.87
	c-0.649-0.266-0.417,0.392-0.417,0.392c0.234,0.663-0.424,0.399-0.424,0.399l-5.519-2.214c-0.724-0.29-0.498,0.404-0.498,0.404
	c0.228,0.699-0.506,0.411-0.506,0.411l-3.019-1.183c-0.776-0.304-0.554,0.417-0.554,0.417c0.224,0.726-0.564,0.425-0.564,0.425
	l-4.925-1.885c-0.855-0.327-0.642,0.431-0.642,0.431c0.215,0.763-0.654,0.439-0.654,0.439l-3.585-1.338
	c-0.925-0.345-1.128-1.13-1.128-1.13c-0.202-0.779,0.719-0.427,0.719-0.427c0.909,0.348,0.705-0.418,0.705-0.418l-0.804-3.012
	c-0.197-0.74,0.689-0.376,0.689-0.376c0.876,0.359,0.676-0.369,0.676-0.369l-0.786-2.865c-0.193-0.704,0.662-0.331,0.662-0.331
	c0.845,0.369,0.65-0.326,0.65-0.326l-0.768-2.731c-0.189-0.671,0.637-0.291,0.637-0.291c0.817,0.376,0.626-0.286,0.626-0.286
	l-0.751-2.607c-0.185-0.641,0.614-0.255,0.614-0.255c0.79,0.382,0.603-0.251,0.603-0.251l-0.37-1.254
	c-0.183-0.621-0.967-1.012-0.967-1.012c-0.793-0.395-0.972-1.017-0.972-1.017l-0.355-1.232c-0.176-0.61-0.971-1.018-0.971-1.018
	c-0.804-0.412-0.975-1.023-0.975-1.023c-0.171-0.607-0.98-1.027-0.98-1.027l-5.045-2.622c-0.874-0.454-0.718,0.169-0.718,0.169
	c0.158,0.627-0.73,0.171-0.73,0.171c-0.898-0.461-0.744,0.175-0.744,0.175l0.312,1.283c0.158,0.648-0.759,0.191-0.759,0.191
	c-0.928-0.462-0.773,0.194-0.773,0.194l0.948,4.036c0.162,0.689-0.795,0.241-0.795,0.241c-0.969-0.454-0.811,0.245-0.811,0.245
	l6.132,27.091c0.206,0.909-0.872,0.584-0.872,0.584c-1.093-0.329-1.293-1.248-1.293-1.248c-0.198-0.912-1.301-1.255-1.301-1.255
	c-1.118-0.349-1.308-1.263-1.308-1.263c-0.189-0.907-1.316-1.271-1.316-1.271l-2.304-0.743c-1.177-0.38-1.351-1.299-1.351-1.299
	c-0.172-0.912-1.359-1.307-1.359-1.307c-1.204-0.401-1.367-1.315-1.367-1.315c-0.162-0.906-1.376-1.323-1.376-1.323l-2.482-0.853
	c-1.269-0.436-1.413-1.354-1.413-1.354c-0.143-0.91-1.422-1.363-1.422-1.363c-1.298-0.459-1.431-1.371-1.431-1.371
	c-0.131-0.905-1.44-1.38-1.44-1.38c-1.329-0.483-1.449-1.389-1.449-1.389c-0.12-0.898-1.459-1.398-1.459-1.398l-2.74-1.022
	c-1.402-0.523-1.5-1.432-1.5-1.432c-0.097-0.901-1.51-1.442-1.51-1.442c-1.434-0.549-1.52-1.451-1.52-1.451
	c-0.085-0.894-1.53-1.461-1.53-1.461l-9.167-3.593c-1.616-0.633-1.584,0.297-1.584,0.297c0.032,0.939-1.626,0.305-1.626,0.305
	c-1.686-0.645-1.669,0.313-1.669,0.313c0.017,0.968-1.714,0.322-1.714,0.322C5,19.115,5,20.102,5,20.102v4.052
	c0,1.039,1.815,1.662,1.815,1.662c1.783,0.612,1.802,1.65,1.802,1.65c0.018,1.048,1.788,1.638,1.788,1.638
	c1.739,0.579,1.775,1.626,1.775,1.626c0.036,1.057,1.762,1.613,1.762,1.613c1.695,0.547,1.749,1.601,1.749,1.601
	c0.054,1.065,1.736,1.589,1.736,1.589l3.278,1.022c1.597,0.498,1.682,1.547,1.682,1.547c0.085,1.059,1.67,1.536,1.67,1.536
	l3.09,0.93c1.507,0.453,1.619,1.497,1.619,1.497c0.114,1.053,1.608,1.486,1.608,1.486l2.915,0.844
	c1.423,0.412,1.561,1.449,1.561,1.449c0.14,1.046,1.55,1.439,1.55,1.439l5.421,1.508c1.303,0.362,1.473,1.38,1.473,1.38
	c0.172,1.026,1.463,1.37,1.463,1.37l2.523,0.672c1.233,0.329,1.424,1.338,1.424,1.338c0.192,1.019,1.414,1.33,1.414,1.33
	l4.708,1.198c1.134,0.289,1.349,1.279,1.349,1.279c0.217,0.998,1.341,1.27,1.341,1.27l4.334,1.05
	c1.045,0.253,1.281,1.223,1.281,1.223c0.238,0.978,1.274,1.216,1.274,1.216l2.028,0.466c0.993,0.228,1.242,1.191,1.242,1.191
	c0.252,0.97-0.746,0.754-0.746,0.754c-1.012-0.219-0.763,0.771-0.763,0.771c0.251,0.999-0.78,0.789-0.78,0.789l-2.107-0.429
	c-1.077-0.219-0.834,0.813-0.834,0.813c0.245,1.042-0.853,0.833-0.853,0.833c-1.115-0.212-0.874,0.852-0.874,0.852
	c0.243,1.074-0.895,0.873-0.895,0.873l-2.329-0.411c-1.192-0.21-0.96,0.903-0.96,0.903c0.234,1.124-0.984,0.926-0.984,0.926
	c-1.238-0.201-1.009,0.949-1.009,0.949c0.231,1.161-1.035,0.974-1.035,0.974c-1.287-0.19-1.062,0.999-1.062,0.999
	c0.227,1.201-1.09,1.026-1.09,1.026l-2.701-0.36c-1.385-0.184-1.175,1.066-1.175,1.066c0.212,1.263-1.208,1.096-1.208,1.096
	c-1.445-0.171-1.242,1.126-1.242,1.126c0.205,1.31-1.277,1.158-1.277,1.158c-1.509-0.155-1.314,1.192-1.314,1.192
	c0.198,1.361-1.352,1.227-1.352,1.227c-1.579-0.137-1.392,1.263-1.392,1.263l0.767,5.753c0.197,1.478,1.817,1.536,1.817,1.536
	c1.589,0.057,1.803,1.524,1.803,1.524l0.392,2.696c0.262,1.803,2.146,1.803,2.146,1.803h11.366c1.342,0,1.067-1.383,1.067-1.383
	c-0.272-1.369,1.038-1.345,1.038-1.345c1.287,0.023,1.01-1.309,1.01-1.309c-0.275-1.319,0.983-1.274,0.983-1.274
	c1.237,0.045,0.957-1.24,0.957-1.24c-0.277-1.272,0.933-1.208,0.933-1.208c1.19,0.063,0.909-1.177,0.909-1.177
	c-0.278-1.229,0.886-1.148,0.886-1.148c1.145,0.08,0.864-1.119,0.864-1.119c-0.279-1.188,0.843-1.091,0.843-1.091
	c1.104,0.095,0.822-1.065,0.822-1.065c-0.28-1.15,0.802-1.039,0.802-1.039c1.065,0.109,0.783-1.014,0.783-1.014
	c-0.28-1.114,0.765-0.991,0.765-0.991c1.029,0.121,0.747-0.968,0.747-0.968c-0.28-1.08,0.73-0.945,0.73-0.945
	c0.995,0.133,0.713-0.924,0.713-0.924c-0.28-1.048,0.697-0.903,0.697-0.903c0.963,0.142,0.682-0.883,0.682-0.883l-0.556-2.027
	c-0.274-1.001,0.668-0.835,0.668-0.835c0.929,0.164,0.653-0.817,0.653-0.817c-0.274-0.973,0.639-0.799,0.639-0.799
	c0.901,0.171,0.626-0.783,0.626-0.783c-0.273-0.947,0.613-0.766,0.613-0.766c0.874,0.178,0.6-0.751,0.6-0.751
	c-0.272-0.922,0.588-0.735,0.588-0.735c0.849,0.184,0.576-0.72,0.576-0.72l-0.539-1.789c-0.267-0.885,0.566-0.683,0.566-0.683
	c0.822,0.199,0.555-0.669,0.555-0.669c-0.265-0.862,0.544-0.657,0.544-0.657c0.799,0.203,1.067,1.057,1.067,1.057l0.541,1.725
	c0.274,0.872,1.068,1.054,1.068,1.054c0.784,0.18,1.062,1.049,1.062,1.049l1.131,3.536c0.288,0.9,1.069,1.049,1.069,1.049
	c0.771,0.147,1.063,1.043,1.063,1.043l1.189,3.65c0.303,0.929,1.069,1.043,1.069,1.043c0.757,0.112,1.064,1.037,1.064,1.037
	l1.249,3.768c0.318,0.959,1.07,1.036,1.07,1.036c0.743,0.076,1.064,1.031,1.064,1.031l1.311,3.89c0.334,0.991,1.071,1.03,1.071,1.03
	c0.728,0.039,1.065,1.024,1.065,1.024c0.34,0.993,1.059,1.018,1.059,1.018c0.71,0.026,1.053,1.013,1.053,1.013
	c0.346,0.995,1.047,1.008,1.047,1.008l2.72,0.05c0.659,0.012,0.312-0.946,0.312-0.946c-0.345-0.952,0.306-0.928,0.306-0.928
	l1.157,0.042c0.748,0.027,0.34-1.071,0.34-1.071l-2.598-6.985c-0.323-0.868-0.949-0.942-0.949-0.942
	c-0.633-0.075-0.953-0.947-0.953-0.947l-1.26-3.431c-0.31-0.844-0.949-0.947-0.949-0.947c-0.646-0.105-0.953-0.952-0.953-0.952
	l-0.608-1.677c-0.301-0.83-0.953-0.954-0.953-0.954c-0.66-0.126-0.958-0.959-0.958-0.959c-0.296-0.828-0.962-0.964-0.962-0.964
	c-0.674-0.137-0.967-0.969-0.967-0.969l-0.581-1.646c-0.287-0.815-0.967-0.971-0.967-0.971c-0.687-0.158-0.972-0.976-0.972-0.976
	c-0.282-0.812-0.977-0.981-0.977-0.981c-0.702-0.17-0.981-0.985-0.981-0.985l-0.553-1.615c-0.274-0.799-0.981-0.988-0.981-0.988
	c-0.716-0.191-0.986-0.993-0.986-0.993c-0.268-0.797-0.991-0.998-0.991-0.998c-0.731-0.203-0.996-1.002-0.996-1.002l-0.524-1.582
	c-0.26-0.783-0.995-1.005-0.995-1.005c-0.744-0.224-1-1.01-1-1.01c-0.254-0.781-1.005-1.015-1.005-1.015
	c-0.76-0.237-1.01-1.02-1.01-1.02l-0.496-1.55c-0.245-0.767-1.01-1.022-1.01-1.022c-0.773-0.258-1.015-1.027-1.015-1.027
	c-0.24-0.764,0.531-0.5,0.531-0.5l18.465,6.342c0.565,0.194,0.305-0.472,0.305-0.472c-0.258-0.662,0.301-0.465,0.301-0.465
	l0.997,0.352c0.646,0.228,0.34-0.542,0.34-0.542l-2.403-6.046C94.987,48.457,94.345,48.193,94.345,48.193z"/>
</svg>
