<?xml version="1.0" encoding="utf-8"?>
<!-- Generator: Adobe Illustrator 28.3.0, SVG Export Plug-In . SVG Version: 6.00 Build 0)  -->
<svg version="1.1" id="Layer_1" xmlns="http://www.w3.org/2000/svg" xmlns:xlink="http://www.w3.org/1999/xlink" x="0px" y="0px"
	 viewBox="0 0 110 110" xml:space="preserve">
<g>
	<path d="M83.086,32.778c0.309,0,0.309-0.309,0.309-0.309c0-0.309-0.309-0.309-0.309-0.309c-0.309,0-0.309,0.309-0.309,0.309
		C82.778,32.778,83.086,32.778,83.086,32.778z"/>
	<path d="M34.938,30.309c0.309,0,0.309-0.309,0.309-0.309c0-0.309-0.309-0.309-0.309-0.309C34.63,29.691,34.63,30,34.63,30
		C34.63,30.309,34.938,30.309,34.938,30.309z"/>
	<path d="M7.16,45.123H5.309C5,45.123,5,45.432,5,45.432c0,0.309,0.309,0.309,0.309,0.309H7.16c0.309,0,0.309-0.309,0.309-0.309
		C7.469,45.123,7.16,45.123,7.16,45.123z"/>
	<path d="M57.16,28.457c0.309,0,0.309-0.309,0.309-0.309v-0.617c0-0.309-0.309-0.309-0.309-0.309c-0.309,0-0.309,0.309-0.309,0.309
		v0.617C56.852,28.457,57.16,28.457,57.16,28.457z"/>
	<path d="M35.556,30.926c0.309,0,0.309,0.309,0.309,0.309c0,0.309,0.309,0.309,0.309,0.309h0.617c0.309,0,0.309-0.309,0.309-0.309
		c0-0.309-0.309-0.309-0.309-0.309c-0.309,0-0.309-0.309-0.309-0.309c0-0.309-0.309-0.309-0.309-0.309h-0.617
		c-0.309,0-0.309,0.309-0.309,0.309C35.247,30.926,35.556,30.926,35.556,30.926z"/>
	<path d="M34.321,29.691c0.309,0,0.309-0.309,0.309-0.309c0-0.309-0.309-0.309-0.309-0.309c-0.309,0-0.309,0.309-0.309,0.309
		C34.012,29.691,34.321,29.691,34.321,29.691z"/>
	<path d="M48.519,77.84c-0.309,0-0.309,0.309-0.309,0.309c0,0.309,0.309,0.309,0.309,0.309c0.309,0,0.309-0.309,0.309-0.309
		C48.827,77.84,48.519,77.84,48.519,77.84z"/>
	<path d="M104.691,58.704h-2.469c-0.309,0-0.309-0.309-0.309-0.309c0-0.309-0.309-0.309-0.309-0.309h-2.469
		c-0.309,0-0.309-0.309-0.309-0.309c0-0.309-0.309-0.309-0.309-0.309h-2.469c-0.309,0-0.309-0.309-0.309-0.309
		c0-0.309-0.309-0.309-0.309-0.309h-2.469c-0.309,0-0.309-0.309-0.309-0.309c0-0.309-0.309-0.309-0.309-0.309h-2.469
		c-0.309,0-0.309-0.309-0.309-0.309c0-0.309-0.309-0.309-0.309-0.309H86.79c-0.309,0-0.309-0.309-0.309-0.309
		C86.481,55,86.173,55,86.173,55h-2.469c-0.309,0-0.309-0.309-0.309-0.309c0-0.309-0.309-0.309-0.309-0.309h-2.469
		c-0.309,0-0.309-0.309-0.309-0.309c0-0.309-0.309-0.309-0.309-0.309h-2.469c-0.309,0-0.309-0.309-0.309-0.309
		c0-0.309-0.309-0.309-0.309-0.309h-2.469c-0.309,0-0.309-0.309-0.309-0.309c0-0.309-0.309-0.309-0.309-0.309h-1.852
		c-0.309,0-0.309-0.309-0.309-0.309c0-0.309,0.309-0.309,0.309-0.309c0.309,0,0.309-0.309,0.309-0.309v-0.617
		c0-0.309,0.309-0.309,0.309-0.309c0.309,0,0.309-0.309,0.309-0.309v-0.617c0-0.309,0.309-0.309,0.309-0.309
		c0.309,0,0.309-0.309,0.309-0.309c0-0.309,0.309-0.309,0.309-0.309c0.309,0,0.309-0.309,0.309-0.309v-0.617
		c0-0.309,0.309-0.309,0.309-0.309c0.309,0,0.309-0.309,0.309-0.309v-0.617c0-0.309,0.309-0.309,0.309-0.309
		c0.309,0,0.309-0.309,0.309-0.309c0-0.309,0.309-0.309,0.309-0.309c0.309,0,0.309-0.309,0.309-0.309v-0.617
		c0-0.309,0.309-0.309,0.309-0.309c0.309,0,0.309-0.309,0.309-0.309V43.58c0-0.309,0.309-0.309,0.309-0.309
		c0.309,0,0.309-0.309,0.309-0.309c0-0.309,0.309-0.309,0.309-0.309c0.309,0,0.309-0.309,0.309-0.309v-0.617
		c0-0.309,0.309-0.309,0.309-0.309c0.309,0,0.309-0.309,0.309-0.309v-0.617c0-0.309,0.309-0.309,0.309-0.309
		c0.309,0,0.309-0.309,0.309-0.309v-0.617c0-0.309,0.309-0.309,0.309-0.309c0.309,0,0.309-0.309,0.309-0.309
		c0-0.309,0.309-0.309,0.309-0.309c0.309,0,0.309-0.309,0.309-0.309v-0.617c0-0.309,0.309-0.309,0.309-0.309
		c0.309,0,0.309-0.309,0.309-0.309v-0.617c0-0.309,0.309-0.309,0.309-0.309c0.309,0,0.309-0.309,0.309-0.309
		c0-0.309,0.309-0.309,0.309-0.309c0.309,0,0.309-0.309,0.309-0.309v-0.617c0-0.309,0.309-0.309,0.309-0.309
		c0.309,0,0.309-0.309,0.309-0.309v-0.617c0-0.309-0.309-0.309-0.309-0.309c-0.309,0-0.309,0.309-0.309,0.309
		c0,0.309-0.309,0.309-0.309,0.309c-0.309,0-0.309,0.309-0.309,0.309c0,0.309-0.309,0.309-0.309,0.309
		c-0.309,0-0.309,0.309-0.309,0.309c0,0.309-0.309,0.309-0.309,0.309c-0.309,0-0.309,0.309-0.309,0.309v0.617
		c0,0.309-0.309,0.309-0.309,0.309c-0.309,0-0.309,0.309-0.309,0.309c0,0.309-0.309,0.309-0.309,0.309
		c-0.309,0-0.309,0.309-0.309,0.309c0,0.309-0.309,0.309-0.309,0.309c-0.309,0-0.309,0.309-0.309,0.309
		c0,0.309-0.309,0.309-0.309,0.309c-0.309,0-0.309,0.309-0.309,0.309c0,0.309-0.309,0.309-0.309,0.309
		c-0.309,0-0.309,0.309-0.309,0.309c0,0.309-0.309,0.309-0.309,0.309c-0.309,0-0.309,0.309-0.309,0.309
		c0,0.309-0.309,0.309-0.309,0.309c-0.309,0-0.309,0.309-0.309,0.309c0,0.309-0.309,0.309-0.309,0.309
		c-0.309,0-0.309,0.309-0.309,0.309c0,0.309-0.309,0.309-0.309,0.309c-0.309,0-0.309,0.309-0.309,0.309
		c0,0.309-0.309,0.309-0.309,0.309c-0.309,0-0.309,0.309-0.309,0.309c0,0.309-0.309,0.309-0.309,0.309
		c-0.309,0-0.309,0.309-0.309,0.309c0,0.309-0.309,0.309-0.309,0.309c-0.309,0-0.309,0.309-0.309,0.309
		c0,0.309-0.309,0.309-0.309,0.309c-0.309,0-0.309,0.309-0.309,0.309c0,0.309-0.309,0.309-0.309,0.309
		c-0.309,0-0.309,0.309-0.309,0.309c0,0.309-0.309,0.309-0.309,0.309c-0.309,0-0.309,0.309-0.309,0.309
		c0,0.309-0.309,0.309-0.309,0.309c-0.309,0-0.309,0.309-0.309,0.309c0,0.309-0.309,0.309-0.309,0.309
		c-0.309,0-0.309,0.309-0.309,0.309c0,0.309-0.309,0.309-0.309,0.309c-0.309,0-0.309,0.309-0.309,0.309
		c0,0.309-0.309,0.309-0.309,0.309c-0.309,0-0.309,0.309-0.309,0.309c0,0.309-0.309,0.309-0.309,0.309
		c-0.309,0-0.309,0.309-0.309,0.309c0,0.309-0.309,0.309-0.309,0.309c-0.309,0-0.309,0.309-0.309,0.309
		c0,0.309-0.309,0.309-0.309,0.309c-0.309,0-0.309-0.309-0.309-0.309v-0.617c0-0.309-0.309-0.309-0.309-0.309
		c-0.309,0-0.309-0.309-0.309-0.309v-0.617c0-0.309-0.309-0.309-0.309-0.309c-0.309,0-0.309-0.309-0.309-0.309v-1.235
		c0-0.309-0.309-0.309-0.309-0.309c-0.309,0-0.309-0.309-0.309-0.309V43.58c0-0.309-0.309-0.309-0.309-0.309
		c-0.309,0-0.309-0.309-0.309-0.309v-0.617c0-0.309-0.309-0.309-0.309-0.309c-0.309,0-0.309-0.309-0.309-0.309v-0.617
		c0-0.309-0.309-0.309-0.309-0.309c-0.309,0-0.309-0.309-0.309-0.309v-0.617c0-0.309-0.309-0.309-0.309-0.309
		c-0.309,0-0.309-0.309-0.309-0.309v-0.617c0-0.309-0.309-0.309-0.309-0.309c-0.309,0-0.309-0.309-0.309-0.309V36.79
		c0-0.309-0.309-0.309-0.309-0.309c-0.309,0-0.309-0.309-0.309-0.309v-0.617c0-0.309-0.309-0.309-0.309-0.309
		c-0.309,0-0.309-0.309-0.309-0.309v-0.617c0-0.309-0.309-0.309-0.309-0.309c-0.309,0-0.309-0.309-0.309-0.309v-0.617
		c0-0.309-0.309-0.309-0.309-0.309c-0.309,0-0.309-0.309-0.309-0.309v-0.617c0-0.309-0.309-0.309-0.309-0.309
		c-0.309,0-0.309-0.309-0.309-0.309v-0.617c0-0.309-0.309-0.309-0.309-0.309c-0.309,0-0.309-0.309-0.309-0.309v-1.235
		c0-0.309-0.309-0.309-0.309-0.309c-0.309,0-0.309,0.309-0.309,0.309v1.852c0,0.309,0.309,0.309,0.309,0.309
		c0.309,0,0.309,0.309,0.309,0.309v1.235c0,0.309,0.309,0.309,0.309,0.309c0.309,0,0.309,0.309,0.309,0.309v1.852
		c0,0.309,0.309,0.309,0.309,0.309c0.309,0,0.309,0.309,0.309,0.309v1.235c0,0.309,0.309,0.309,0.309,0.309
		c0.309,0,0.309,0.309,0.309,0.309v1.852c0,0.309,0.309,0.309,0.309,0.309c0.309,0,0.309,0.309,0.309,0.309v1.235
		c0,0.309,0.309,0.309,0.309,0.309c0.309,0,0.309,0.309,0.309,0.309v1.852c0,0.309,0.309,0.309,0.309,0.309
		c0.309,0,0.309,0.309,0.309,0.309v1.852c0,0.309,0.309,0.309,0.309,0.309c0.309,0,0.309,0.309,0.309,0.309v1.235
		c0,0.309,0.309,0.309,0.309,0.309c0.309,0,0.309,0.309,0.309,0.309c0,0.309-0.309,0.309-0.309,0.309
		c-0.309,0-0.309-0.309-0.309-0.309c0-0.309-0.309-0.309-0.309-0.309c-0.309,0-0.309-0.309-0.309-0.309
		c0-0.309-0.309-0.309-0.309-0.309h-0.617c-0.309,0-0.309-0.309-0.309-0.309c0-0.309-0.309-0.309-0.309-0.309
		c-0.309,0-0.309-0.309-0.309-0.309c0-0.309-0.309-0.309-0.309-0.309c-0.309,0-0.309-0.309-0.309-0.309
		c0-0.309-0.309-0.309-0.309-0.309h-0.617c-0.309,0-0.309-0.309-0.309-0.309c0-0.309-0.309-0.309-0.309-0.309
		c-0.309,0-0.309-0.309-0.309-0.309c0-0.309-0.309-0.309-0.309-0.309h-0.617c-0.309,0-0.309-0.309-0.309-0.309
		c0-0.309-0.309-0.309-0.309-0.309c-0.309,0-0.309-0.309-0.309-0.309c0-0.309-0.309-0.309-0.309-0.309h-0.617
		c-0.309,0-0.309-0.309-0.309-0.309c0-0.309-0.309-0.309-0.309-0.309c-0.309,0-0.309-0.309-0.309-0.309
		c0-0.309-0.309-0.309-0.309-0.309H52.84c-0.309,0-0.309-0.309-0.309-0.309c0-0.309-0.309-0.309-0.309-0.309
		c-0.309,0-0.309-0.309-0.309-0.309c0-0.309-0.309-0.309-0.309-0.309h-0.617c-0.309,0-0.309-0.309-0.309-0.309
		c0-0.309-0.309-0.309-0.309-0.309c-0.309,0-0.309-0.309-0.309-0.309c0-0.309-0.309-0.309-0.309-0.309h-0.617
		c-0.309,0-0.309-0.309-0.309-0.309c0-0.309-0.309-0.309-0.309-0.309c-0.309,0-0.309-0.309-0.309-0.309
		c0-0.309-0.309-0.309-0.309-0.309h-0.617c-0.309,0-0.309-0.309-0.309-0.309c0-0.309-0.309-0.309-0.309-0.309
		c-0.309,0-0.309-0.309-0.309-0.309c0-0.309-0.309-0.309-0.309-0.309c-0.309,0-0.309-0.309-0.309-0.309
		c0-0.309-0.309-0.309-0.309-0.309h-0.617c-0.309,0-0.309-0.309-0.309-0.309c0-0.309-0.309-0.309-0.309-0.309
		c-0.309,0-0.309-0.309-0.309-0.309c0-0.309-0.309-0.309-0.309-0.309h-0.617c-0.309,0-0.309-0.309-0.309-0.309
		c0-0.309-0.309-0.309-0.309-0.309c-0.309,0-0.309-0.309-0.309-0.309c0-0.309-0.309-0.309-0.309-0.309h-0.617
		c-0.309,0-0.309-0.309-0.309-0.309c0-0.309-0.309-0.309-0.309-0.309c-0.309,0-0.309-0.309-0.309-0.309
		c0-0.309-0.309-0.309-0.309-0.309h-0.617c-0.309,0-0.309-0.309-0.309-0.309c0-0.309-0.309-0.309-0.309-0.309
		c-0.309,0-0.309-0.309-0.309-0.309c0-0.309-0.309-0.309-0.309-0.309h-0.617c-0.309,0-0.309,0.309-0.309,0.309
		c0,0.309,0.309,0.309,0.309,0.309c0.309,0,0.309,0.309,0.309,0.309c0,0.309,0.309,0.309,0.309,0.309
		c0.309,0,0.309,0.309,0.309,0.309c0,0.309,0.309,0.309,0.309,0.309c0.309,0,0.309,0.309,0.309,0.309
		c0,0.309,0.309,0.309,0.309,0.309h0.617c0.309,0,0.309,0.309,0.309,0.309c0,0.309,0.309,0.309,0.309,0.309
		c0.309,0,0.309,0.309,0.309,0.309c0,0.309,0.309,0.309,0.309,0.309c0.309,0,0.309,0.309,0.309,0.309
		c0,0.309,0.309,0.309,0.309,0.309c0.309,0,0.309,0.309,0.309,0.309c0,0.309,0.309,0.309,0.309,0.309
		c0.309,0,0.309,0.309,0.309,0.309c0,0.309,0.309,0.309,0.309,0.309h0.617c0.309,0,0.309,0.309,0.309,0.309
		c0,0.309,0.309,0.309,0.309,0.309c0.309,0,0.309,0.309,0.309,0.309c0,0.309,0.309,0.309,0.309,0.309
		c0.309,0,0.309,0.309,0.309,0.309c0,0.309,0.309,0.309,0.309,0.309c0.309,0,0.309,0.309,0.309,0.309
		c0,0.309,0.309,0.309,0.309,0.309c0.309,0,0.309,0.309,0.309,0.309c0,0.309,0.309,0.309,0.309,0.309h0.617
		c0.309,0,0.309,0.309,0.309,0.309c0,0.309,0.309,0.309,0.309,0.309c0.309,0,0.309,0.309,0.309,0.309
		c0,0.309,0.309,0.309,0.309,0.309c0.309,0,0.309,0.309,0.309,0.309c0,0.309,0.309,0.309,0.309,0.309
		c0.309,0,0.309,0.309,0.309,0.309c0,0.309,0.309,0.309,0.309,0.309c0.309,0,0.309,0.309,0.309,0.309
		c0,0.309,0.309,0.309,0.309,0.309h0.617c0.309,0,0.309,0.309,0.309,0.309c0,0.309,0.309,0.309,0.309,0.309
		c0.309,0,0.309,0.309,0.309,0.309c0,0.309,0.309,0.309,0.309,0.309c0.309,0,0.309,0.309,0.309,0.309
		c0,0.309,0.309,0.309,0.309,0.309c0.309,0,0.309,0.309,0.309,0.309c0,0.309,0.309,0.309,0.309,0.309h0.617
		c0.309,0,0.309,0.309,0.309,0.309c0,0.309,0.309,0.309,0.309,0.309C55,46.358,55,46.667,55,46.667c0,0.309,0.309,0.309,0.309,0.309
		c0.309,0,0.309,0.309,0.309,0.309c0,0.309,0.309,0.309,0.309,0.309c0.309,0,0.309,0.309,0.309,0.309
		c0,0.309,0.309,0.309,0.309,0.309c0.309,0,0.309,0.309,0.309,0.309c0,0.309,0.309,0.309,0.309,0.309h0.617
		c0.309,0,0.309,0.309,0.309,0.309c0,0.309,0.309,0.309,0.309,0.309c0.309,0,0.309,0.309,0.309,0.309
		c0,0.309,0.309,0.309,0.309,0.309c0.309,0,0.309,0.309,0.309,0.309c0,0.309-0.309,0.309-0.309,0.309H57.16
		c-0.309,0-0.309-0.309-0.309-0.309c0-0.309-0.309-0.309-0.309-0.309h-5.556c-0.309,0-0.309-0.309-0.309-0.309
		c0-0.309-0.309-0.309-0.309-0.309h-5.556c-0.309,0-0.309-0.309-0.309-0.309c0-0.309-0.309-0.309-0.309-0.309h-5.556
		c-0.309,0-0.309-0.309-0.309-0.309c0-0.309-0.309-0.309-0.309-0.309h-5.556c-0.309,0-0.309-0.309-0.309-0.309
		c0-0.309-0.309-0.309-0.309-0.309h-5.556c-0.309,0-0.309-0.309-0.309-0.309c0-0.309-0.309-0.309-0.309-0.309h-5.556
		c-0.309,0-0.309-0.309-0.309-0.309c0-0.309-0.309-0.309-0.309-0.309h-5.556c-0.309,0-0.309-0.309-0.309-0.309
		c0-0.309-0.309-0.309-0.309-0.309H8.395c-0.309,0-0.309,0.309-0.309,0.309c0,0.309,0.309,0.309,0.309,0.309h3.086
		c0.309,0,0.309,0.309,0.309,0.309c0,0.309,0.309,0.309,0.309,0.309h3.086c0.309,0,0.309,0.309,0.309,0.309
		c0,0.309,0.309,0.309,0.309,0.309h2.469c0.309,0,0.309,0.309,0.309,0.309c0,0.309,0.309,0.309,0.309,0.309h3.086
		c0.309,0,0.309,0.309,0.309,0.309c0,0.309,0.309,0.309,0.309,0.309h2.469c0.309,0,0.309,0.309,0.309,0.309
		c0,0.309,0.309,0.309,0.309,0.309h3.086c0.309,0,0.309,0.309,0.309,0.309c0,0.309,0.309,0.309,0.309,0.309h3.086
		c0.309,0,0.309,0.309,0.309,0.309c0,0.309,0.309,0.309,0.309,0.309h2.469c0.309,0,0.309,0.309,0.309,0.309
		c0,0.309,0.309,0.309,0.309,0.309h3.086c0.309,0,0.309,0.309,0.309,0.309c0,0.309,0.309,0.309,0.309,0.309h3.086
		c0.309,0,0.309,0.309,0.309,0.309c0,0.309,0.309,0.309,0.309,0.309h2.469c0.309,0,0.309,0.309,0.309,0.309
		c0,0.309,0.309,0.309,0.309,0.309h3.086c0.309,0,0.309,0.309,0.309,0.309c0,0.309,0.309,0.309,0.309,0.309h3.086
		c0.309,0,0.309,0.309,0.309,0.309c0,0.309,0.309,0.309,0.309,0.309h2.469c0.309,0,0.309,0.309,0.309,0.309
		C56.852,55,57.16,55,57.16,55h3.086c0.309,0,0.309,0.309,0.309,0.309c0,0.309,0.309,0.309,0.309,0.309h0.617
		c0.309,0,0.309,0.309,0.309,0.309c0,0.309-0.309,0.309-0.309,0.309c-0.309,0-0.309,0.309-0.309,0.309v0.617
		c0,0.309-0.309,0.309-0.309,0.309c-0.309,0-0.309,0.309-0.309,0.309v0.617c0,0.309-0.309,0.309-0.309,0.309
		c-0.309,0-0.309,0.309-0.309,0.309c0,0.309-0.309,0.309-0.309,0.309c-0.309,0-0.309,0.309-0.309,0.309v0.617
		c0,0.309-0.309,0.309-0.309,0.309c-0.309,0-0.309,0.309-0.309,0.309v0.617c0,0.309-0.309,0.309-0.309,0.309
		c-0.309,0-0.309,0.309-0.309,0.309c0,0.309-0.309,0.309-0.309,0.309c-0.309,0-0.309,0.309-0.309,0.309v0.617
		c0,0.309-0.309,0.309-0.309,0.309c-0.309,0-0.309,0.309-0.309,0.309v0.617c0,0.309-0.309,0.309-0.309,0.309
		c-0.309,0-0.309,0.309-0.309,0.309c0,0.309-0.309,0.309-0.309,0.309c-0.309,0-0.309,0.309-0.309,0.309v0.617
		c0,0.309-0.309,0.309-0.309,0.309C55,66.728,55,67.037,55,67.037c0,0.309-0.309,0.309-0.309,0.309
		c-0.309,0-0.309,0.309-0.309,0.309v0.617c0,0.309-0.309,0.309-0.309,0.309c-0.309,0-0.309,0.309-0.309,0.309v0.617
		c0,0.309-0.309,0.309-0.309,0.309c-0.309,0-0.309,0.309-0.309,0.309c0,0.309-0.309,0.309-0.309,0.309
		c-0.309,0-0.309,0.309-0.309,0.309v0.617c0,0.309-0.309,0.309-0.309,0.309c-0.309,0-0.309,0.309-0.309,0.309v0.617
		c0,0.309-0.309,0.309-0.309,0.309c-0.309,0-0.309,0.309-0.309,0.309c0,0.309-0.309,0.309-0.309,0.309
		c-0.309,0-0.309,0.309-0.309,0.309v0.617c0,0.309-0.309,0.309-0.309,0.309c-0.309,0-0.309,0.309-0.309,0.309v0.617
		c0,0.309-0.309,0.309-0.309,0.309c-0.309,0-0.309,0.309-0.309,0.309c0,0.309-0.309,0.309-0.309,0.309
		c-0.309,0-0.309,0.309-0.309,0.309v0.617c0,0.309,0.309,0.309,0.309,0.309c0.309,0,0.309-0.309,0.309-0.309
		c0-0.309,0.309-0.309,0.309-0.309c0.309,0,0.309-0.309,0.309-0.309c0-0.309,0.309-0.309,0.309-0.309
		c0.309,0,0.309-0.309,0.309-0.309c0-0.309,0.309-0.309,0.309-0.309c0.309,0,0.309-0.309,0.309-0.309
		c0-0.309,0.309-0.309,0.309-0.309c0.309,0,0.309-0.309,0.309-0.309c0-0.309,0.309-0.309,0.309-0.309
		c0.309,0,0.309-0.309,0.309-0.309c0-0.309,0.309-0.309,0.309-0.309c0.309,0,0.309-0.309,0.309-0.309V73.21
		c0-0.309,0.309-0.309,0.309-0.309c0.309,0,0.309-0.309,0.309-0.309c0-0.309,0.309-0.309,0.309-0.309
		c0.309,0,0.309-0.309,0.309-0.309c0-0.309,0.309-0.309,0.309-0.309C55,71.667,55,71.358,55,71.358c0-0.309,0.309-0.309,0.309-0.309
		c0.309,0,0.309-0.309,0.309-0.309c0-0.309,0.309-0.309,0.309-0.309c0.309,0,0.309-0.309,0.309-0.309
		c0-0.309,0.309-0.309,0.309-0.309c0.309,0,0.309-0.309,0.309-0.309c0-0.309,0.309-0.309,0.309-0.309
		c0.309,0,0.309-0.309,0.309-0.309c0-0.309,0.309-0.309,0.309-0.309c0.309,0,0.309-0.309,0.309-0.309
		c0-0.309,0.309-0.309,0.309-0.309c0.309,0,0.309-0.309,0.309-0.309c0-0.309,0.309-0.309,0.309-0.309
		c0.309,0,0.309-0.309,0.309-0.309c0-0.309,0.309-0.309,0.309-0.309c0.309,0,0.309-0.309,0.309-0.309
		c0-0.309,0.309-0.309,0.309-0.309c0.309,0,0.309-0.309,0.309-0.309c0-0.309,0.309-0.309,0.309-0.309
		c0.309,0,0.309-0.309,0.309-0.309c0-0.309,0.309-0.309,0.309-0.309c0.309,0,0.309-0.309,0.309-0.309
		c0-0.309,0.309-0.309,0.309-0.309c0.309,0,0.309-0.309,0.309-0.309v-0.617c0-0.309,0.309-0.309,0.309-0.309
		c0.309,0,0.309-0.309,0.309-0.309c0-0.309,0.309-0.309,0.309-0.309c0.309,0,0.309-0.309,0.309-0.309
		c0-0.309,0.309-0.309,0.309-0.309c0.309,0,0.309-0.309,0.309-0.309c0-0.309,0.309-0.309,0.309-0.309
		c0.309,0,0.309-0.309,0.309-0.309c0-0.309,0.309-0.309,0.309-0.309c0.309,0,0.309-0.309,0.309-0.309
		c0-0.309,0.309-0.309,0.309-0.309c0.309,0,0.309-0.309,0.309-0.309c0-0.309,0.309-0.309,0.309-0.309
		c0.309,0,0.309,0.309,0.309,0.309v0.617c0,0.309,0.309,0.309,0.309,0.309c0.309,0,0.309,0.309,0.309,0.309v0.617
		c0,0.309,0.309,0.309,0.309,0.309c0.309,0,0.309,0.309,0.309,0.309v1.235c0,0.309,0.309,0.309,0.309,0.309
		c0.309,0,0.309,0.309,0.309,0.309v0.617c0,0.309,0.309,0.309,0.309,0.309c0.309,0,0.309,0.309,0.309,0.309v0.617
		c0,0.309,0.309,0.309,0.309,0.309c0.309,0,0.309,0.309,0.309,0.309v1.235c0,0.309,0.309,0.309,0.309,0.309
		c0.309,0,0.309,0.309,0.309,0.309v0.617c0,0.309,0.309,0.309,0.309,0.309c0.309,0,0.309,0.309,0.309,0.309v0.617
		c0,0.309,0.309,0.309,0.309,0.309c0.309,0,0.309,0.309,0.309,0.309v1.235c0,0.309,0.309,0.309,0.309,0.309
		c0.309,0,0.309,0.309,0.309,0.309v0.617c0,0.309,0.309,0.309,0.309,0.309c0.309,0,0.309,0.309,0.309,0.309v1.235
		c0,0.309,0.309,0.309,0.309,0.309c0.309,0,0.309,0.309,0.309,0.309v0.617c0,0.309,0.309,0.309,0.309,0.309
		c0.309,0,0.309,0.309,0.309,0.309v0.617c0,0.309,0.309,0.309,0.309,0.309c0.309,0,0.309,0.309,0.309,0.309v1.235
		c0,0.309,0.309,0.309,0.309,0.309C75.37,79.691,75.37,80,75.37,80v0.617c0,0.309,0.309,0.309,0.309,0.309
		c0.309,0,0.309-0.309,0.309-0.309v-1.852c0-0.309-0.309-0.309-0.309-0.309c-0.309,0-0.309-0.309-0.309-0.309v-1.852
		c0-0.309-0.309-0.309-0.309-0.309c-0.309,0-0.309-0.309-0.309-0.309v-1.852c0-0.309-0.309-0.309-0.309-0.309
		c-0.309,0-0.309-0.309-0.309-0.309v-1.852c0-0.309-0.309-0.309-0.309-0.309c-0.309,0-0.309-0.309-0.309-0.309v-1.852
		c0-0.309-0.309-0.309-0.309-0.309c-0.309,0-0.309-0.309-0.309-0.309V66.42c0-0.309-0.309-0.309-0.309-0.309
		c-0.309,0-0.309-0.309-0.309-0.309v-1.852c0-0.309-0.309-0.309-0.309-0.309c-0.309,0-0.309-0.309-0.309-0.309v-1.852
		c0-0.309-0.309-0.309-0.309-0.309c-0.309,0-0.309-0.309-0.309-0.309V59.63c0-0.309,0.309-0.309,0.309-0.309
		c0.309,0,0.309,0.309,0.309,0.309c0,0.309,0.309,0.309,0.309,0.309h0.617c0.309,0,0.309,0.309,0.309,0.309
		c0,0.309,0.309,0.309,0.309,0.309h0.617c0.309,0,0.309,0.309,0.309,0.309c0,0.309,0.309,0.309,0.309,0.309
		c0.309,0,0.309,0.309,0.309,0.309c0,0.309,0.309,0.309,0.309,0.309h0.617c0.309,0,0.309,0.309,0.309,0.309
		c0,0.309,0.309,0.309,0.309,0.309c0.309,0,0.309,0.309,0.309,0.309c0,0.309,0.309,0.309,0.309,0.309h0.617
		c0.309,0,0.309,0.309,0.309,0.309c0,0.309,0.309,0.309,0.309,0.309c0.309,0,0.309,0.309,0.309,0.309
		c0,0.309,0.309,0.309,0.309,0.309h0.617c0.309,0,0.309,0.309,0.309,0.309c0,0.309,0.309,0.309,0.309,0.309h0.617
		c0.309,0,0.309,0.309,0.309,0.309c0,0.309,0.309,0.309,0.309,0.309c0.309,0,0.309,0.309,0.309,0.309
		c0,0.309,0.309,0.309,0.309,0.309h0.617c0.309,0,0.309,0.309,0.309,0.309c0,0.309,0.309,0.309,0.309,0.309
		c0.309,0,0.309,0.309,0.309,0.309c0,0.309,0.309,0.309,0.309,0.309h0.617c0.309,0,0.309,0.309,0.309,0.309
		c0,0.309,0.309,0.309,0.309,0.309h0.617c0.309,0,0.309,0.309,0.309,0.309c0,0.309,0.309,0.309,0.309,0.309
		c0.309,0,0.309,0.309,0.309,0.309c0,0.309,0.309,0.309,0.309,0.309h0.617c0.309,0,0.309,0.309,0.309,0.309
		c0,0.309,0.309,0.309,0.309,0.309c0.309,0,0.309,0.309,0.309,0.309c0,0.309,0.309,0.309,0.309,0.309h0.617
		c0.309,0,0.309-0.309,0.309-0.309c0-0.309-0.309-0.309-0.309-0.309c-0.309,0-0.309-0.309-0.309-0.309
		c0-0.309-0.309-0.309-0.309-0.309c-0.309,0-0.309-0.309-0.309-0.309c0-0.309-0.309-0.309-0.309-0.309
		c-0.309,0-0.309-0.309-0.309-0.309c0-0.309-0.309-0.309-0.309-0.309c-0.309,0-0.309-0.309-0.309-0.309
		c0-0.309-0.309-0.309-0.309-0.309h-0.617c-0.309,0-0.309-0.309-0.309-0.309c0-0.309-0.309-0.309-0.309-0.309
		c-0.309,0-0.309-0.309-0.309-0.309c0-0.309-0.309-0.309-0.309-0.309c-0.309,0-0.309-0.309-0.309-0.309
		c0-0.309-0.309-0.309-0.309-0.309c-0.309,0-0.309-0.309-0.309-0.309c0-0.309-0.309-0.309-0.309-0.309
		c-0.309,0-0.309-0.309-0.309-0.309c0-0.309-0.309-0.309-0.309-0.309h-0.617c-0.309,0-0.309-0.309-0.309-0.309
		c0-0.309-0.309-0.309-0.309-0.309c-0.309,0-0.309-0.309-0.309-0.309c0-0.309-0.309-0.309-0.309-0.309
		c-0.309,0-0.309-0.309-0.309-0.309c0-0.309-0.309-0.309-0.309-0.309c-0.309,0-0.309-0.309-0.309-0.309
		C80.309,61.79,80,61.79,80,61.79h-0.617c-0.309,0-0.309-0.309-0.309-0.309c0-0.309-0.309-0.309-0.309-0.309
		c-0.309,0-0.309-0.309-0.309-0.309c0-0.309-0.309-0.309-0.309-0.309c-0.309,0-0.309-0.309-0.309-0.309
		c0-0.309-0.309-0.309-0.309-0.309c-0.309,0-0.309-0.309-0.309-0.309c0-0.309-0.309-0.309-0.309-0.309
		c-0.309,0-0.309-0.309-0.309-0.309c0-0.309-0.309-0.309-0.309-0.309h-0.617c-0.309,0-0.309-0.309-0.309-0.309
		c0-0.309-0.309-0.309-0.309-0.309c-0.309,0-0.309-0.309-0.309-0.309c0-0.309-0.309-0.309-0.309-0.309
		c-0.309,0-0.309-0.309-0.309-0.309c0-0.309,0.309-0.309,0.309-0.309c0.309,0,0.309,0.309,0.309,0.309
		c0,0.309,0.309,0.309,0.309,0.309h8.025c0.309,0,0.309,0.309,0.309,0.309c0,0.309,0.309,0.309,0.309,0.309h7.407
		c0.309,0,0.309,0.309,0.309,0.309c0,0.309,0.309,0.309,0.309,0.309h7.407c0.309,0,0.309,0.309,0.309,0.309
		c0,0.309,0.309,0.309,0.309,0.309h4.938c0.309,0,0.309-0.309,0.309-0.309C105,58.704,104.691,58.704,104.691,58.704z"/>
	<path d="M91.728,71.667c-0.309,0-0.309,0.309-0.309,0.309c0,0.309,0.309,0.309,0.309,0.309c0.309,0,0.309-0.309,0.309-0.309
		C92.037,71.667,91.728,71.667,91.728,71.667z"/>
	<path d="M76.296,80.926c-0.309,0-0.309,0.309-0.309,0.309v1.235c0,0.309,0.309,0.309,0.309,0.309c0.309,0,0.309-0.309,0.309-0.309
		v-1.235C76.605,80.926,76.296,80.926,76.296,80.926z"/>
	<path d="M91.111,71.049c-0.309,0-0.309-0.309-0.309-0.309c0-0.309-0.309-0.309-0.309-0.309h-0.617
		c-0.309,0-0.309,0.309-0.309,0.309c0,0.309,0.309,0.309,0.309,0.309c0.309,0,0.309,0.309,0.309,0.309
		c0,0.309,0.309,0.309,0.309,0.309h0.617c0.309,0,0.309-0.309,0.309-0.309C91.42,71.049,91.111,71.049,91.111,71.049z"/>
</g>
</svg>
