<svg width="24" height="24" viewBox="0 0 24 24" fill="none" xmlns="http://www.w3.org/2000/svg">
<rect x="17" y="5" width="2" height="2" fill="black"/>
<rect x="5" y="17" width="2" height="2" fill="black"/>
<rect x="11" y="3" width="2" height="6" fill="black"/>
<rect x="9" y="1" width="2" height="8" fill="black"/>
<rect x="9" y="9" width="2" height="2" fill="black"/>
<rect width="10" height="2" transform="matrix(-1 0 0 1 19 17)" fill="black"/>
<rect width="2" height="10" transform="matrix(-1 0 0 1 5 7)" fill="black"/>
<rect width="2" height="6" transform="matrix(-1 0 0 1 13 15)" fill="black"/>
<rect width="2" height="8" transform="matrix(-1 0 0 1 15 13)" fill="black"/>
<rect width="2" height="2" transform="matrix(-1 0 0 1 15 21)" fill="black"/>
<rect x="5" y="5" width="10" height="2" fill="black"/>
<rect width="2" height="10" transform="matrix(1 0 0 -1 19 17)" fill="black"/>
</svg>
