<?xml version="1.0" encoding="utf-8"?>
<!-- Generator: Adobe Illustrator 28.3.0, SVG Export Plug-In . SVG Version: 6.00 Build 0)  -->
<svg version="1.1" id="Layer_1" xmlns="http://www.w3.org/2000/svg" xmlns:xlink="http://www.w3.org/1999/xlink" x="0px" y="0px"
	 viewBox="0 0 110 110" enable-background="new 0 0 110 110" xml:space="preserve">
<path d="M104.072,56.009l-5.283-1.929c-2.746-1.002-3.723-3.459-2.492-6.756c1.807-4.838,0.518-9.835-4.708-12.435
	c-6.417-3.194-14.872-1.529-21.037,2.826c-0.417-0.513-0.863-0.939-1.33-1.257c-1.445-0.985-2.798-3.348-3.509-6.326
	c0-0.001-2.635-10.742-4.761-19.908c-0.896-3.862-4.03-6.799-4.944-4.296l-1.929,5.283c-1.002,2.746-3.459,3.723-6.756,2.492
	c-4.838-1.807-9.835-0.518-12.435,4.708c-3.194,6.417-1.529,14.872,2.826,21.037c-0.513,0.418-0.939,0.863-1.257,1.33
	c-0.985,1.445-3.348,2.798-6.326,3.509c-0.001,0-10.742,2.635-19.908,4.761c-3.862,0.896-6.799,4.03-4.296,4.944l5.283,1.929
	c2.746,1.002,3.723,3.459,2.492,6.756c-1.807,4.838-0.518,9.835,4.708,12.435c6.417,3.194,14.872,1.529,21.038-2.827
	c0.417,0.513,0.863,0.939,1.33,1.257c1.445,0.985,2.798,3.348,3.509,6.326c0,0.001,2.635,10.742,4.761,19.908
	c0.896,3.862,4.03,6.799,4.944,4.296l1.929-5.283c1.002-2.746,3.459-3.723,6.756-2.492c4.838,1.807,9.835,0.518,12.435-4.708
	c3.194-6.417,1.529-14.872-2.826-21.037c0.513-0.417,0.939-0.863,1.257-1.33c0.985-1.445,3.348-2.798,6.326-3.509
	c0.001,0,10.742-2.635,19.908-4.761C103.637,60.057,106.574,56.922,104.072,56.009z M92.709,59.776l-13.547,3.413
	c-3.169,0.798-6.382,0.664-8.764-0.336c-3.234-1.358-7.887-1.632-12.122-0.427c-1.135,0.323-2.122,0.717-2.965,1.16
	c-0.032,0.017-0.064,0.033-0.096,0.05c-0.124,0.066-0.243,0.134-0.36,0.203c-0.021,0.013-0.043,0.024-0.064,0.037
	c-0.785,0.467-1.419,0.98-1.9,1.521c-1.279,1.318-2.253,3.04-2.814,5.054c-1.155,4.144-0.618,9.138,1.174,13.588
	c1.418,3.522,1.743,7.379,0.908,9.987l0,0c-0.336,1.049-1.556,0.185-1.935-1.317l-3.413-13.547
	c-0.798-3.169-0.664-6.382,0.336-8.764c1.358-3.234,1.632-7.887,0.427-12.122c-0.324-1.139-0.719-2.129-1.164-2.973
	c-0.014-0.027-0.028-0.055-0.043-0.082c-0.071-0.132-0.143-0.259-0.216-0.383c-0.008-0.014-0.016-0.029-0.025-0.043
	c-0.468-0.788-0.983-1.424-1.526-1.907c-1.317-1.278-3.039-2.251-5.052-2.812c-4.144-1.155-9.138-0.618-13.588,1.174
	c-3.522,1.418-7.379,1.743-9.987,0.908h0c-1.049-0.336-0.185-1.556,1.317-1.935l13.547-3.413c3.169-0.798,6.382-0.664,8.764,0.335
	c3.234,1.358,7.887,1.632,12.122,0.427c1.136-0.323,2.124-0.718,2.967-1.161c0.031-0.016,0.062-0.032,0.093-0.049
	c0.125-0.067,0.246-0.136,0.364-0.205c0.02-0.012,0.04-0.023,0.06-0.035c0.785-0.467,1.419-0.981,1.901-1.521
	c1.279-1.318,2.253-3.041,2.814-5.054c1.155-4.144,0.618-9.138-1.174-13.588c-1.418-3.522-1.743-7.379-0.908-9.987l0,0
	c0.336-1.049,1.556-0.185,1.935,1.317l3.413,13.547c0.798,3.169,0.664,6.382-0.336,8.764c-1.358,3.234-1.632,7.887-0.427,12.122
	c0.323,1.136,0.717,2.123,1.161,2.966c0.016,0.031,0.032,0.063,0.049,0.094c0.067,0.125,0.136,0.246,0.205,0.364
	c0.012,0.02,0.023,0.04,0.035,0.06c0.467,0.785,0.981,1.419,1.521,1.901c1.318,1.279,3.041,2.253,5.054,2.814
	c4.144,1.155,9.138,0.618,13.588-1.174c3.522-1.418,7.379-1.743,9.987-0.908h0C95.076,58.177,94.212,59.398,92.709,59.776z"/>
</svg>
