<?xml version="1.0" encoding="utf-8"?>
<!-- Generator: Adobe Illustrator 28.3.0, SVG Export Plug-In . SVG Version: 6.00 Build 0)  -->
<svg version="1.1" id="Layer_1" xmlns="http://www.w3.org/2000/svg" xmlns:xlink="http://www.w3.org/1999/xlink" x="0px" y="0px"
	 viewBox="0 0 110 110" xml:space="preserve">
<g>
	<rect x="59.93" y="49.718" width="0.704" height="0.704"/>
	<rect x="91.62" y="32.817" width="0.704" height="0.704"/>
	<rect x="16.972" y="35.634" width="0.704" height="0.704"/>
	<rect x="28.944" y="50.423" width="0.704" height="0.704"/>
	<rect x="25.423" y="66.62" width="0.704" height="1.408"/>
	<rect x="59.225" y="50.423" width="0.704" height="0.704"/>
	<rect x="58.521" y="51.127" width="0.704" height="0.704"/>
	<rect x="28.944" y="47.606" width="1.408" height="0.704"/>
	<rect x="90.211" y="34.225" width="0.704" height="0.704"/>
	<polygon points="27.535,65.915 28.944,65.915 28.944,65.211 28.239,65.211 28.239,63.803 28.944,63.803 28.944,63.099 
		26.831,63.099 26.831,63.803 26.127,63.803 26.127,64.507 27.535,64.507 	"/>
	<polygon points="31.056,48.31 31.056,49.014 32.465,49.014 32.465,49.718 33.169,49.718 33.169,48.31 32.465,48.31 32.465,47.606 
		31.761,47.606 31.761,48.31 	"/>
	<rect x="16.268" y="75.07" width="0.704" height="0.704"/>
	<rect x="21.901" y="70.141" width="1.408" height="0.704"/>
	<rect x="26.127" y="58.169" width="0.704" height="0.704"/>
	<rect x="19.789" y="71.549" width="0.704" height="1.408"/>
	<rect x="61.338" y="47.606" width="0.704" height="1.408"/>
	<rect x="21.901" y="71.549" width="0.704" height="0.704"/>
	<rect x="26.831" y="56.761" width="0.704" height="1.408"/>
	<polygon points="27.535,68.732 27.535,67.324 26.831,67.324 26.831,68.028 26.127,68.028 26.127,68.732 	"/>
	<rect x="23.31" y="69.437" width="0.704" height="0.704"/>
	<rect x="17.676" y="36.338" width="0.704" height="0.704"/>
	<polygon points="26.127,59.577 26.127,58.873 22.606,58.873 22.606,59.577 21.901,59.577 21.901,58.873 20.493,58.873 
		20.493,58.169 19.789,58.169 19.789,58.873 18.38,58.873 18.38,58.169 17.676,58.169 17.676,58.873 16.268,58.873 16.268,59.577 
		20.493,59.577 20.493,60.282 26.831,60.282 26.831,60.986 27.535,60.986 27.535,58.873 26.831,58.873 26.831,59.577 	"/>
	<rect x="90.915" y="33.521" width="0.704" height="0.704"/>
	<polygon points="27.535,56.056 27.535,54.648 25.423,54.648 25.423,55.352 24.718,55.352 24.718,56.056 	"/>
	<rect x="21.197" y="40.563" width="0.704" height="0.704"/>
	<rect x="20.493" y="37.746" width="0.704" height="0.704"/>
	<rect x="22.606" y="68.732" width="0.704" height="0.704"/>
	<rect x="19.085" y="38.451" width="0.704" height="0.704"/>
	<rect x="21.197" y="70.845" width="0.704" height="0.704"/>
	<polygon points="31.761,51.127 33.169,51.127 33.169,50.423 32.465,50.423 32.465,49.718 31.761,49.718 	"/>
	<polygon points="19.789,39.859 19.085,39.859 19.085,40.563 20.493,40.563 20.493,39.859 21.197,39.859 21.197,39.155 
		19.789,39.155 	"/>
	<rect x="29.648" y="49.014" width="1.408" height="0.704"/>
	<rect x="20.493" y="70.141" width="0.704" height="0.704"/>
	<rect x="29.648" y="60.282" width="0.704" height="0.704"/>
	<rect x="12.042" y="77.183" width="1.408" height="1.408"/>
	<rect x="26.127" y="44.789" width="0.704" height="0.704"/>
	<rect x="29.648" y="63.099" width="0.704" height="0.704"/>
	<polygon points="60.634,51.127 59.93,51.127 59.93,51.831 60.634,51.831 60.634,52.535 61.338,52.535 61.338,51.831 63.451,51.831 
		63.451,51.127 64.155,51.127 64.155,50.423 60.634,50.423 	"/>
	<polygon points="14.859,57.465 14.859,58.169 14.155,58.169 14.155,57.465 12.746,57.465 12.746,56.761 12.042,56.761 
		12.042,57.465 11.338,57.465 11.338,56.761 9.225,56.761 9.225,58.169 9.93,58.169 9.93,57.465 10.634,57.465 10.634,58.169 
		11.338,58.169 11.338,58.873 12.042,58.873 12.042,58.169 13.451,58.169 13.451,58.873 14.859,58.873 14.859,59.577 15.563,59.577 
		15.563,58.873 16.268,58.873 16.268,57.465 	"/>
	<rect x="62.746" y="49.014" width="1.408" height="0.704"/>
	<polygon points="30.352,53.944 30.352,54.648 31.761,54.648 31.761,53.239 31.056,53.239 31.056,53.944 	"/>
	<rect x="25.423" y="43.38" width="0.704" height="1.408"/>
	<rect x="28.944" y="63.803" width="0.704" height="0.704"/>
	<polygon points="17.676,56.056 17.676,55.352 19.085,55.352 19.085,54.648 20.493,54.648 20.493,55.352 22.606,55.352 
		22.606,56.056 23.31,56.056 23.31,55.352 24.718,55.352 24.718,54.648 21.901,54.648 21.901,53.944 18.38,53.944 18.38,53.239 
		17.676,53.239 17.676,54.648 16.972,54.648 16.972,55.352 16.268,55.352 16.268,56.056 	"/>
	<rect x="93.028" y="32.817" width="0.704" height="0.704"/>
	<polygon points="27.535,51.831 28.239,51.831 28.239,52.535 28.944,52.535 28.944,53.239 29.648,53.239 29.648,52.535 
		30.352,52.535 30.352,51.831 28.944,51.831 28.944,51.127 27.535,51.127 	"/>
	<rect x="12.042" y="75.775" width="0.704" height="0.704"/>
	<rect x="16.268" y="72.958" width="0.704" height="0.704"/>
	<rect x="28.239" y="59.577" width="0.704" height="1.408"/>
	<rect x="28.944" y="57.465" width="0.704" height="0.704"/>
	<polygon points="15.563,75.07 16.268,75.07 16.268,74.366 14.859,74.366 14.859,75.775 15.563,75.775 	"/>
	<rect x="13.451" y="75.775" width="1.408" height="0.704"/>
	<rect x="28.239" y="58.169" width="0.704" height="0.704"/>
	<rect x="30.352" y="52.535" width="0.704" height="0.704"/>
	<polygon points="29.648,62.394 31.056,62.394 31.056,61.69 29.648,61.69 29.648,60.986 28.944,60.986 28.944,63.099 29.648,63.099 
			"/>
	<polygon points="59.225,52.535 58.521,52.535 58.521,53.239 57.817,53.239 57.817,52.535 58.521,52.535 58.521,51.831 
		57.113,51.831 57.113,53.944 59.225,53.944 59.225,53.239 59.93,53.239 59.93,51.831 59.225,51.831 	"/>
	<rect x="30.352" y="50.423" width="0.704" height="1.408"/>
	<rect x="59.225" y="48.31" width="0.704" height="0.704"/>
	<rect x="88.803" y="34.93" width="1.408" height="0.704"/>
	<rect x="23.31" y="43.38" width="0.704" height="0.704"/>
	<rect x="21.901" y="42.676" width="0.704" height="0.704"/>
	<rect x="15.563" y="75.775" width="0.704" height="0.704"/>
	<rect x="60.634" y="49.014" width="0.704" height="0.704"/>
	<rect x="55.704" y="51.127" width="1.408" height="0.704"/>
	<rect x="24.718" y="68.732" width="0.704" height="1.408"/>
	<rect x="59.93" y="47.606" width="0.704" height="0.704"/>
	<polygon points="23.31,44.789 23.31,45.493 24.718,45.493 24.718,44.085 24.014,44.085 24.014,44.789 	"/>
	<rect x="88.099" y="34.225" width="0.704" height="0.704"/>
	<rect x="29.648" y="53.239" width="0.704" height="0.704"/>
	<polygon points="58.521,50.423 58.521,49.718 57.817,49.718 57.817,49.014 57.113,49.014 57.113,50.423 	"/>
	<polygon points="8.521,57.465 8.521,56.761 9.225,56.761 9.225,56.056 8.521,56.056 8.521,55.352 7.817,55.352 7.817,54.648 
		6.408,54.648 6.408,53.944 7.113,53.944 7.113,53.239 7.817,53.239 7.817,54.648 8.521,54.648 8.521,55.352 9.225,55.352 
		9.225,53.239 8.521,53.239 8.521,52.535 9.225,52.535 9.225,53.239 9.93,53.239 9.93,53.944 10.634,53.944 10.634,53.239 
		12.042,53.239 12.042,53.944 11.338,53.944 11.338,54.648 13.451,54.648 13.451,53.944 14.155,53.944 14.155,54.648 14.859,54.648 
		14.859,53.944 15.563,53.944 15.563,54.648 14.859,54.648 14.859,56.761 16.268,56.761 16.268,56.056 15.563,56.056 15.563,55.352 
		16.268,55.352 16.268,53.944 16.972,53.944 16.972,53.239 12.746,53.239 12.746,52.535 11.338,52.535 11.338,51.831 5.704,51.831 
		5.704,53.239 5,53.239 5,53.944 5.704,53.944 5.704,54.648 5,54.648 5,55.352 5.704,55.352 5.704,56.056 6.408,56.056 
		6.408,56.761 7.113,56.761 7.113,56.056 7.817,56.056 7.817,56.761 7.113,56.761 7.113,57.465 	"/>
	<rect x="88.099" y="35.634" width="0.704" height="0.704"/>
	<rect x="21.901" y="41.268" width="0.704" height="0.704"/>
	<rect x="58.521" y="49.014" width="0.704" height="0.704"/>
	<rect x="14.859" y="76.479" width="0.704" height="0.704"/>
	<rect x="24.718" y="42.676" width="0.704" height="0.704"/>
	<rect x="33.873" y="69.437" width="0.704" height="0.704"/>
	<rect x="24.014" y="84.93" width="0.704" height="0.704"/>
	<rect x="25.423" y="83.521" width="0.704" height="0.704"/>
	<polygon points="16.268,32.817 16.268,33.521 17.676,33.521 17.676,34.225 18.38,34.225 18.38,34.93 19.085,34.93 19.085,33.521 
		18.38,33.521 18.38,32.817 17.676,32.817 17.676,32.113 16.972,32.113 16.972,32.817 	"/>
	<polygon points="18.38,35.634 18.38,36.338 19.789,36.338 19.789,35.634 20.493,35.634 20.493,34.93 19.085,34.93 19.085,35.634 	
		"/>
	<rect x="22.606" y="87.746" width="0.704" height="0.704"/>
	<rect x="23.31" y="85.634" width="0.704" height="0.704"/>
	<rect x="19.085" y="55.352" width="1.408" height="0.704"/>
	<rect x="21.901" y="58.169" width="0.704" height="0.704"/>
	<rect x="31.761" y="69.437" width="0.704" height="0.704"/>
	<polygon points="12.042,34.93 12.746,34.93 12.746,34.225 13.451,34.225 13.451,33.521 14.155,33.521 14.155,32.113 13.451,32.113 
		13.451,32.817 12.042,32.817 12.042,32.113 13.451,32.113 13.451,30.704 14.155,30.704 14.155,32.113 14.859,32.113 14.859,31.408 
		15.563,31.408 15.563,32.113 14.859,32.113 14.859,33.521 15.563,33.521 15.563,32.817 16.268,32.817 16.268,32.113 16.972,32.113 
		16.972,31.408 16.268,31.408 16.268,30.704 15.563,30.704 15.563,30 14.155,30 14.155,29.296 13.451,29.296 13.451,30 12.042,30 
		12.042,30.704 11.338,30.704 11.338,34.225 12.042,34.225 	"/>
	<rect x="22.606" y="86.338" width="0.704" height="0.704"/>
	<polygon points="21.901,57.465 22.606,57.465 22.606,58.169 23.31,58.169 23.31,56.761 22.606,56.761 22.606,56.056 21.901,56.056 
			"/>
	<rect x="31.056" y="73.662" width="0.704" height="0.704"/>
	<polygon points="21.197,38.451 21.197,39.155 21.901,39.155 21.901,40.563 22.606,40.563 22.606,39.859 23.31,39.859 23.31,42.676 
		24.718,42.676 24.718,41.972 24.014,41.972 24.014,41.268 24.718,41.268 24.718,41.972 25.423,41.972 25.423,42.676 26.127,42.676 
		26.127,43.38 26.831,43.38 26.831,44.789 28.239,44.789 28.239,45.493 26.831,45.493 26.831,46.197 28.944,46.197 28.944,45.493 
		29.648,45.493 29.648,44.789 28.944,44.789 28.944,44.085 28.239,44.085 28.239,43.38 27.535,43.38 27.535,42.676 26.831,42.676 
		26.831,41.972 26.127,41.972 26.127,41.268 25.423,41.268 25.423,40.563 24.718,40.563 24.718,39.859 24.014,39.859 24.014,39.155 
		22.606,39.155 22.606,38.451 23.31,38.451 23.31,37.746 21.901,37.746 21.901,38.451 	"/>
	<rect x="33.169" y="71.549" width="0.704" height="1.408"/>
	<rect x="28.944" y="77.183" width="0.704" height="0.704"/>
	<rect x="30.352" y="70.141" width="0.704" height="0.704"/>
	<rect x="26.127" y="82.817" width="0.704" height="0.704"/>
	<rect x="21.197" y="37.042" width="0.704" height="0.704"/>
	<rect x="33.873" y="70.845" width="0.704" height="0.704"/>
	<rect x="31.761" y="72.958" width="1.408" height="0.704"/>
	<polygon points="19.789,36.338 19.789,37.042 18.38,37.042 18.38,37.746 20.493,37.746 20.493,37.042 21.197,37.042 21.197,35.634 
		20.493,35.634 20.493,36.338 	"/>
	<rect x="17.676" y="56.056" width="1.408" height="0.704"/>
	<rect x="26.831" y="82.113" width="0.704" height="0.704"/>
	<rect x="26.127" y="81.408" width="0.704" height="0.704"/>
	<rect x="19.085" y="56.761" width="1.408" height="0.704"/>
	<rect x="22.606" y="84.93" width="0.704" height="0.704"/>
	<rect x="32.465" y="70.141" width="0.704" height="0.704"/>
	<rect x="16.972" y="57.465" width="0.704" height="0.704"/>
	<polygon points="28.944,55.352 29.648,55.352 29.648,54.648 28.239,54.648 28.239,56.056 28.944,56.056 	"/>
	<rect x="20.493" y="56.056" width="0.704" height="0.704"/>
	<rect x="23.31" y="84.225" width="0.704" height="0.704"/>
	<rect x="23.31" y="56.056" width="1.408" height="0.704"/>
	<rect x="28.944" y="56.056" width="0.704" height="0.704"/>
	<rect x="25.423" y="82.113" width="0.704" height="0.704"/>
	<rect x="24.718" y="84.225" width="0.704" height="0.704"/>
	<rect x="24.014" y="57.465" width="0.704" height="0.704"/>
	<rect x="24.718" y="56.761" width="1.408" height="0.704"/>
	<rect x="27.535" y="56.056" width="0.704" height="0.704"/>
	<rect x="21.197" y="87.746" width="0.704" height="0.704"/>
	<rect x="21.901" y="88.451" width="0.704" height="0.704"/>
	<rect x="21.901" y="87.042" width="0.704" height="0.704"/>
	<rect x="30.352" y="58.873" width="0.704" height="0.704"/>
	<rect x="31.056" y="63.099" width="0.704" height="1.408"/>
	<rect x="20.493" y="57.465" width="0.704" height="0.704"/>
	<polygon points="28.944,46.197 28.944,46.901 30.352,46.901 30.352,47.606 31.761,47.606 31.761,46.901 31.056,46.901 
		31.056,46.197 30.352,46.197 30.352,45.493 29.648,45.493 29.648,46.197 	"/>
	<rect x="30.352" y="67.324" width="1.408" height="0.704"/>
	<rect x="31.056" y="56.761" width="0.704" height="0.704"/>
	<rect x="32.465" y="55.352" width="0.704" height="0.704"/>
	<rect x="29.648" y="55.352" width="0.704" height="0.704"/>
	<rect x="21.901" y="85.634" width="0.704" height="0.704"/>
	<rect x="54.296" y="51.831" width="0.704" height="0.704"/>
	<rect x="10.634" y="54.648" width="0.704" height="0.704"/>
	<polygon points="12.746,75.775 13.451,75.775 13.451,75.07 14.155,75.07 14.155,74.366 13.451,74.366 13.451,73.662 14.859,73.662 
		14.859,72.958 16.268,72.958 16.268,71.549 16.972,71.549 16.972,72.958 18.38,72.958 18.38,72.254 17.676,72.254 17.676,70.845 
		18.38,70.845 18.38,71.549 19.789,71.549 19.789,70.845 19.085,70.845 19.085,70.141 20.493,70.141 20.493,69.437 19.789,69.437 
		19.789,68.732 19.085,68.732 19.085,69.437 17.676,69.437 17.676,70.141 16.972,70.141 16.972,70.845 15.563,70.845 15.563,71.549 
		14.859,71.549 14.859,72.254 14.155,72.254 14.155,72.958 12.746,72.958 12.746,73.662 12.042,73.662 12.042,74.366 12.746,74.366 
			"/>
	<rect x="35.986" y="49.014" width="0.704" height="0.704"/>
	<rect x="33.873" y="49.014" width="0.704" height="1.408"/>
	<polygon points="29.648,68.732 29.648,69.437 28.239,69.437 28.239,68.732 27.535,68.732 27.535,69.437 26.831,69.437 
		26.831,70.141 30.352,70.141 30.352,68.732 	"/>
	<rect x="34.577" y="50.423" width="1.408" height="0.704"/>
	<rect x="13.451" y="54.648" width="0.704" height="1.408"/>
	<rect x="15.563" y="33.521" width="0.704" height="0.704"/>
	<path d="M16.268,77.183h-0.704v0.704h-0.704v-0.704h-0.704v1.408h-0.704v0.704h-1.408v-0.704h-0.704v-1.408h0.704v-0.704h-0.704
		V75.07h0.704v-0.704h-1.408v0.704H9.93v1.408h0.704v0.704H9.93v-0.704H8.521V80H9.93v0.704h2.113V80h2.113v-0.704h0.704v-0.704
		h1.408v-0.704h0.704v-1.408h-0.704V77.183z M10.634,79.296H9.93v-0.704H9.225v-0.704H9.93v0.704h0.704V79.296z"/>
	<polygon points="22.606,84.225 23.31,84.225 23.31,83.521 24.014,83.521 24.014,84.225 24.718,84.225 24.718,82.817 23.31,82.817 
		23.31,82.113 25.423,82.113 25.423,81.408 24.718,81.408 24.718,80 25.423,80 25.423,81.408 26.127,81.408 26.127,79.296 
		27.535,79.296 27.535,78.592 26.127,78.592 26.127,77.887 27.535,77.887 27.535,78.592 28.239,78.592 28.239,77.183 27.535,77.183 
		27.535,75.775 28.944,75.775 28.944,75.07 29.648,75.07 29.648,74.366 28.944,74.366 28.944,73.662 29.648,73.662 29.648,74.366 
		30.352,74.366 30.352,72.958 29.648,72.958 29.648,72.254 30.352,72.254 30.352,72.958 31.056,72.958 31.056,72.254 31.761,72.254 
		31.761,71.549 30.352,71.549 30.352,70.845 29.648,70.845 29.648,71.549 28.944,71.549 28.944,72.958 28.239,72.958 28.239,74.366 
		27.535,74.366 27.535,75.07 26.831,75.07 26.831,76.479 26.127,76.479 26.127,77.183 25.423,77.183 25.423,78.592 24.718,78.592 
		24.718,79.296 24.014,79.296 24.014,80 23.31,80 23.31,81.408 22.606,81.408 22.606,82.817 21.901,82.817 21.901,83.521 
		22.606,83.521 	"/>
	<polygon points="35.986,70.845 35.282,70.845 35.282,72.254 34.577,72.254 34.577,72.958 33.873,72.958 33.873,73.662 
		33.169,73.662 33.169,74.366 31.761,74.366 31.761,75.07 32.465,75.07 32.465,75.775 31.761,75.775 31.761,77.183 30.352,77.183 
		30.352,78.592 31.056,78.592 31.056,79.296 31.761,79.296 31.761,77.887 32.465,77.887 32.465,77.183 33.169,77.183 33.169,75.775 
		33.873,75.775 33.873,74.366 35.282,74.366 35.282,72.958 35.986,72.958 35.986,71.549 36.69,71.549 36.69,70.141 35.986,70.141 	
		"/>
	<path d="M30.352,78.592h-1.408v0.704h-1.408V80h0.704v0.704h0.704V80h0.704v0.704h-0.704v0.704h-0.704v-0.704h-0.704V80h-0.704
		v1.408h0.704v0.704h0.704v0.704h-0.704v0.704h-0.704v0.704h-0.704v1.408h-1.408v0.704h-0.704v0.704H23.31v0.704h0.704v0.704H23.31
		v1.408h-1.408v-0.704h-0.704v-0.704h-0.704v-1.408h1.408v-0.704h-0.704v-0.704h0.704V84.93h0.704v-0.704h-0.704v-0.704h-0.704
		v0.704h-0.704v1.408h-0.704v1.408h-0.704v2.113H18.38v0.704h0.704v1.408h1.408v0.704h0.704v-0.704h2.113v-0.704h0.704v-0.704h0.704
		v-1.408h0.704v-0.704h-0.704v-0.704h0.704v0.704h0.704v-1.408h0.704v-0.704h0.704v-1.408h0.704v-0.704h0.704v-1.408h0.704v-0.704
		h0.704v-0.704h0.704v-1.408h-0.704V78.592z M20.493,89.859h-0.704v-0.704h0.704V89.859z"/>
	<rect x="32.465" y="17.324" width="0.704" height="0.704"/>
	<rect x="52.887" y="51.831" width="0.704" height="1.408"/>
	<polygon points="23.31,68.028 23.31,68.732 24.718,68.732 24.718,67.324 24.014,67.324 24.014,68.028 	"/>
	<polygon points="14.859,36.338 15.563,36.338 15.563,35.634 16.268,35.634 16.268,34.93 14.859,34.93 	"/>
	<rect x="53.592" y="53.239" width="0.704" height="0.704"/>
	<rect x="50.775" y="52.535" width="0.704" height="0.704"/>
	<rect x="17.676" y="34.93" width="0.704" height="0.704"/>
	<rect x="51.479" y="51.831" width="0.704" height="0.704"/>
	<polygon points="20.493,69.437 21.197,69.437 21.197,70.141 21.901,70.141 21.901,68.028 23.31,68.028 23.31,67.324 24.014,67.324 
		24.014,66.62 24.718,66.62 24.718,65.915 26.127,65.915 26.127,66.62 26.831,66.62 26.831,65.211 26.127,65.211 26.127,64.507 
		25.423,64.507 25.423,65.211 24.014,65.211 24.014,65.915 23.31,65.915 23.31,66.62 22.606,66.62 22.606,67.324 21.197,67.324 
		21.197,68.028 19.789,68.028 19.789,68.732 20.493,68.732 	"/>
	<polygon points="55.704,54.648 56.408,54.648 56.408,55.352 57.113,55.352 57.113,53.944 55.704,53.944 	"/>
	<rect x="16.268" y="34.225" width="1.408" height="0.704"/>
	<rect x="55" y="52.535" width="1.408" height="0.704"/>
	<rect x="9.225" y="55.352" width="1.408" height="0.704"/>
	<rect x="35.282" y="68.732" width="0.704" height="0.704"/>
	<polygon points="14.155,36.338 14.155,34.93 14.859,34.93 14.859,34.225 13.451,34.225 13.451,34.93 12.746,34.93 12.746,36.338 
		13.451,36.338 13.451,37.042 14.859,37.042 14.859,36.338 	"/>
	<rect x="29.648" y="75.07" width="0.704" height="0.704"/>
	<polygon points="26.127,49.014 26.127,50.423 26.831,50.423 26.831,51.127 27.535,51.127 27.535,49.014 	"/>
	<rect x="22.606" y="45.493" width="0.704" height="0.704"/>
	<polygon points="25.423,48.31 25.423,47.606 26.127,47.606 26.127,46.197 23.31,46.197 23.31,47.606 24.718,47.606 24.718,49.014 
		26.127,49.014 26.127,48.31 	"/>
	<polygon points="25.423,70.845 24.718,70.845 24.718,70.141 24.014,70.141 24.014,70.845 23.31,70.845 23.31,72.254 22.606,72.254 
		22.606,72.958 24.014,72.958 24.014,72.254 24.718,72.254 24.718,71.549 26.831,71.549 26.831,70.141 25.423,70.141 	"/>
	<rect x="28.944" y="75.775" width="0.704" height="0.704"/>
	<rect x="27.535" y="46.901" width="1.408" height="0.704"/>
	<rect x="16.268" y="56.761" width="0.704" height="0.704"/>
	<rect x="26.127" y="47.606" width="1.408" height="0.704"/>
	<rect x="27.535" y="48.31" width="0.704" height="0.704"/>
	<rect x="30.352" y="75.775" width="0.704" height="0.704"/>
	<rect x="28.239" y="49.014" width="0.704" height="1.408"/>
	<rect x="28.239" y="76.479" width="0.704" height="0.704"/>
	<rect x="30.352" y="74.366" width="0.704" height="0.704"/>
	<polygon points="19.085,39.859 19.085,39.155 17.676,39.155 17.676,37.746 16.972,37.746 16.972,38.451 16.268,38.451 
		16.268,37.746 16.972,37.746 16.972,36.338 16.268,36.338 16.268,37.042 14.859,37.042 14.859,38.451 15.563,38.451 15.563,39.155 
		16.972,39.155 16.972,40.563 17.676,40.563 17.676,39.859 	"/>
	<rect x="31.056" y="75.07" width="0.704" height="0.704"/>
	<rect x="14.155" y="56.761" width="0.704" height="0.704"/>
	<rect x="28.239" y="67.324" width="0.704" height="1.408"/>
	<rect x="12.746" y="56.056" width="0.704" height="0.704"/>
	<polygon points="23.31,44.789 23.31,44.085 21.901,44.085 21.901,43.38 20.493,43.38 20.493,42.676 21.901,42.676 21.901,41.972 
		19.789,41.972 19.789,41.268 19.085,41.268 19.085,40.563 17.676,40.563 17.676,41.972 19.085,41.972 19.085,42.676 19.789,42.676 
		19.789,44.085 20.493,44.085 20.493,44.789 21.901,44.789 21.901,45.493 22.606,45.493 22.606,44.789 	"/>
	<rect x="11.338" y="56.056" width="0.704" height="0.704"/>
	<rect x="29.648" y="76.479" width="0.704" height="0.704"/>
	<rect x="12.042" y="55.352" width="0.704" height="0.704"/>
	<polygon points="21.901,72.254 21.197,72.254 21.197,72.958 20.493,72.958 20.493,74.366 19.789,74.366 19.789,72.958 
		18.38,72.958 18.38,73.662 19.085,73.662 19.085,75.07 18.38,75.07 18.38,74.366 16.972,74.366 16.972,75.07 17.676,75.07 
		17.676,75.775 16.972,75.775 16.972,76.479 18.38,76.479 18.38,75.775 19.789,75.775 19.789,75.07 21.197,75.07 21.197,74.366 
		21.901,74.366 21.901,73.662 22.606,73.662 22.606,72.958 21.901,72.958 	"/>
	<rect x="18.38" y="57.465" width="0.704" height="0.704"/>
	<polygon points="52.887,72.958 52.887,72.254 51.479,72.254 51.479,71.549 50.07,71.549 50.07,70.845 50.775,70.845 50.775,70.141 
		49.366,70.141 49.366,70.845 48.662,70.845 48.662,68.732 45.845,68.732 45.845,69.437 46.549,69.437 46.549,70.141 47.958,70.141 
		47.958,71.549 49.366,71.549 49.366,72.254 50.07,72.254 50.07,73.662 51.479,73.662 51.479,72.958 	"/>
	<rect x="59.93" y="78.592" width="1.408" height="0.704"/>
	<rect x="57.113" y="76.479" width="0.704" height="0.704"/>
	<rect x="69.789" y="86.338" width="0.704" height="0.704"/>
	<polygon points="69.085,87.746 68.38,87.746 68.38,88.451 69.789,88.451 69.789,87.042 69.085,87.042 	"/>
	<rect x="61.338" y="79.296" width="0.704" height="0.704"/>
	<rect x="64.155" y="82.113" width="0.704" height="1.408"/>
	<rect x="62.746" y="82.817" width="0.704" height="0.704"/>
	<rect x="58.521" y="78.592" width="0.704" height="0.704"/>
	<rect x="59.225" y="77.887" width="0.704" height="0.704"/>
	<rect x="68.38" y="86.338" width="0.704" height="0.704"/>
	<rect x="76.127" y="92.676" width="0.704" height="0.704"/>
	<rect x="76.127" y="94.085" width="0.704" height="0.704"/>
	<rect x="75.423" y="91.268" width="0.704" height="1.408"/>
	<polygon points="40.211,81.408 40.915,81.408 40.915,80.704 41.62,80.704 41.62,80 40.211,80 	"/>
	<polygon points="75.423,93.38 75.423,92.676 74.014,92.676 74.014,94.085 74.718,94.085 74.718,93.38 	"/>
	<polygon points="74.014,91.972 74.718,91.972 74.718,91.268 75.423,91.268 75.423,90.563 74.014,90.563 	"/>
	<rect x="55" y="72.958" width="0.704" height="0.704"/>
	<rect x="71.197" y="89.155" width="0.704" height="0.704"/>
	<rect x="69.789" y="88.451" width="0.704" height="0.704"/>
	<rect x="70.493" y="87.042" width="0.704" height="0.704"/>
	<rect x="71.901" y="90.563" width="0.704" height="0.704"/>
	<rect x="56.408" y="73.662" width="0.704" height="0.704"/>
	<rect x="59.225" y="76.479" width="0.704" height="0.704"/>
	<polygon points="57.113,75.07 56.408,75.07 56.408,75.775 57.817,75.775 57.817,74.366 57.113,74.366 	"/>
	<rect x="52.887" y="72.958" width="0.704" height="0.704"/>
	<rect x="57.817" y="75.775" width="0.704" height="0.704"/>
	<rect x="55" y="74.366" width="1.408" height="0.704"/>
	<rect x="54.296" y="73.662" width="0.704" height="0.704"/>
	<rect x="51.479" y="70.141" width="1.408" height="0.704"/>
	<rect x="50.775" y="69.437" width="0.704" height="0.704"/>
	<rect x="52.887" y="71.549" width="0.704" height="0.704"/>
	<rect x="65.563" y="82.113" width="0.704" height="0.704"/>
	<rect x="64.859" y="84.225" width="0.704" height="1.408"/>
	<rect x="66.972" y="85.634" width="1.408" height="0.704"/>
	<rect x="67.676" y="84.225" width="0.704" height="0.704"/>
	<rect x="65.563" y="85.634" width="0.704" height="0.704"/>
	<rect x="66.268" y="84.93" width="0.704" height="0.704"/>
	<rect x="61.338" y="77.887" width="0.704" height="0.704"/>
	<rect x="59.93" y="77.183" width="1.408" height="0.704"/>
	<rect x="62.042" y="80" width="0.704" height="1.408"/>
	<rect x="62.746" y="81.408" width="1.408" height="0.704"/>
	<rect x="64.859" y="81.408" width="0.704" height="0.704"/>
	<rect x="65.563" y="83.521" width="0.704" height="0.704"/>
	<rect x="40.915" y="91.268" width="0.704" height="0.704"/>
	<rect x="41.62" y="96.901" width="1.408" height="0.704"/>
	<rect x="40.915" y="89.859" width="0.704" height="0.704"/>
	<rect x="41.62" y="95.493" width="0.704" height="0.704"/>
	<rect x="41.62" y="91.972" width="0.704" height="0.704"/>
	<rect x="41.62" y="90.563" width="1.408" height="0.704"/>
	<rect x="42.324" y="89.155" width="0.704" height="0.704"/>
	<rect x="42.324" y="85.634" width="0.704" height="1.408"/>
	<rect x="42.324" y="93.38" width="0.704" height="0.704"/>
	<rect x="43.028" y="89.859" width="0.704" height="0.704"/>
	<polygon points="41.62,83.521 40.915,83.521 40.915,84.225 40.211,84.225 40.211,84.93 41.62,84.93 	"/>
	<rect x="41.62" y="78.592" width="0.704" height="1.408"/>
	<rect x="40.211" y="75.775" width="1.408" height="0.704"/>
	<polygon points="40.915,78.592 41.62,78.592 41.62,77.183 40.211,77.183 40.211,77.887 40.915,77.887 	"/>
	<rect x="40.211" y="78.592" width="0.704" height="0.704"/>
	<polygon points="41.62,74.366 41.62,72.958 40.915,72.958 40.915,73.662 40.211,73.662 40.211,74.366 	"/>
	<polygon points="40.211,82.113 40.211,81.408 39.507,81.408 39.507,80 40.211,80 40.211,79.296 39.507,79.296 39.507,78.592 
		40.211,78.592 40.211,77.887 39.507,77.887 39.507,77.183 40.211,77.183 40.211,76.479 39.507,76.479 39.507,75.775 40.211,75.775 
		40.211,74.366 38.803,74.366 38.803,76.479 38.099,76.479 38.099,77.183 38.803,77.183 38.803,82.817 39.507,82.817 39.507,82.113 
			"/>
	<rect x="42.324" y="82.817" width="0.704" height="0.704"/>
	<rect x="42.324" y="84.225" width="0.704" height="0.704"/>
	<rect x="41.62" y="84.93" width="0.704" height="0.704"/>
	<polygon points="40.915,83.521 40.915,82.817 41.62,82.817 41.62,81.408 40.915,81.408 40.915,82.113 40.211,82.113 40.211,82.817 
		39.507,82.817 39.507,83.521 38.803,83.521 38.803,84.225 40.211,84.225 40.211,83.521 	"/>
	<polygon points="43.732,97.606 43.732,99.014 43.028,99.014 43.028,99.718 44.437,99.718 44.437,98.31 45.141,98.31 45.141,99.718 
		44.437,99.718 44.437,100.423 45.141,100.423 45.141,101.127 44.437,101.127 44.437,100.423 43.028,100.423 43.028,101.127 
		43.732,101.127 43.732,101.831 43.028,101.831 43.028,101.127 41.62,101.127 41.62,99.718 42.324,99.718 42.324,99.014 
		43.028,99.014 43.028,98.31 41.62,98.31 41.62,99.014 40.915,99.014 40.915,98.31 39.507,98.31 39.507,99.014 40.211,99.014 
		40.211,101.831 40.915,101.831 40.915,102.535 41.62,102.535 41.62,103.239 44.437,103.239 44.437,102.535 45.141,102.535 
		45.141,101.831 45.845,101.831 45.845,96.901 44.437,96.901 44.437,97.606 	"/>
	<rect x="43.028" y="67.324" width="1.408" height="0.704"/>
	<polygon points="47.254,68.028 47.254,66.62 46.549,66.62 46.549,67.324 45.141,67.324 45.141,68.028 44.437,68.028 44.437,68.732 
		45.845,68.732 45.845,68.028 	"/>
	<rect x="41.62" y="68.028" width="1.408" height="0.704"/>
	<rect x="43.732" y="68.732" width="0.704" height="1.408"/>
	<rect x="42.324" y="69.437" width="0.704" height="0.704"/>
	<rect x="50.07" y="67.324" width="0.704" height="1.408"/>
	<rect x="48.662" y="66.62" width="1.408" height="0.704"/>
	<polygon points="41.62,86.338 41.62,85.634 40.211,85.634 40.211,84.93 38.803,84.93 38.803,85.634 39.507,85.634 39.507,86.338 
		38.803,86.338 38.803,87.042 40.211,87.042 40.211,86.338 	"/>
	<rect x="47.958" y="65.915" width="0.704" height="0.704"/>
	<rect x="48.662" y="68.028" width="0.704" height="0.704"/>
	<polygon points="43.028,71.549 42.324,71.549 42.324,72.254 44.437,72.254 44.437,71.549 43.732,71.549 43.732,70.141 
		43.028,70.141 	"/>
	<rect x="40.915" y="97.606" width="0.704" height="0.704"/>
	<rect x="49.366" y="68.732" width="0.704" height="0.704"/>
	<rect x="42.324" y="99.718" width="0.704" height="0.704"/>
	<polygon points="40.915,91.268 40.915,90.563 40.211,90.563 40.211,89.155 41.62,89.155 41.62,88.451 40.915,88.451 40.915,87.746 
		41.62,87.746 41.62,88.451 43.028,88.451 43.028,87.746 42.324,87.746 42.324,87.042 40.211,87.042 40.211,88.451 39.507,88.451 
		39.507,90.563 38.803,90.563 38.803,91.268 39.507,91.268 39.507,91.972 40.211,91.972 40.211,91.268 	"/>
	<polygon points="41.62,96.901 41.62,96.197 40.915,96.197 40.915,95.493 41.62,95.493 41.62,94.085 40.915,94.085 40.915,94.789 
		40.211,94.789 40.211,93.38 41.62,93.38 41.62,92.676 40.915,92.676 40.915,91.972 40.211,91.972 40.211,92.676 39.507,92.676 
		39.507,95.493 40.211,95.493 40.211,96.901 39.507,96.901 39.507,97.606 40.915,97.606 40.915,96.901 	"/>
	<rect x="43.028" y="96.197" width="1.408" height="0.704"/>
	<polygon points="43.028,74.366 43.028,73.662 44.437,73.662 44.437,72.958 42.324,72.958 42.324,74.366 	"/>
	<rect x="41.62" y="72.254" width="0.704" height="0.704"/>
	<polygon points="42.324,75.07 42.324,74.366 41.62,74.366 41.62,75.775 43.028,75.775 43.028,76.479 42.324,76.479 42.324,78.592 
		43.028,78.592 43.028,77.183 43.732,77.183 43.732,77.887 44.437,77.887 44.437,75.775 43.732,75.775 43.732,75.07 44.437,75.07 
		44.437,74.366 43.028,74.366 43.028,75.07 	"/>
	<polygon points="42.324,80.704 42.324,82.113 43.028,82.113 43.028,81.408 43.732,81.408 43.732,82.113 43.028,82.113 
		43.028,82.817 43.732,82.817 43.732,83.521 43.028,83.521 43.028,84.225 43.732,84.225 43.732,84.93 43.028,84.93 43.028,85.634 
		43.732,85.634 43.732,87.042 43.028,87.042 43.028,87.746 43.732,87.746 43.732,89.859 44.437,89.859 44.437,91.268 43.028,91.268 
		43.028,93.38 43.732,93.38 43.732,92.676 44.437,92.676 44.437,94.085 43.028,94.085 43.028,95.493 44.437,95.493 44.437,96.197 
		45.845,96.197 45.845,95.493 45.141,95.493 45.141,94.085 45.845,94.085 45.845,93.38 45.141,93.38 45.141,91.268 45.845,91.268 
		45.845,90.563 45.141,90.563 45.141,88.451 44.437,88.451 44.437,87.746 45.141,87.746 45.141,87.042 44.437,87.042 44.437,85.634 
		45.141,85.634 45.141,84.93 44.437,84.93 44.437,78.592 43.028,78.592 43.028,80.704 	"/>
	<rect x="75.423" y="93.38" width="0.704" height="0.704"/>
	<rect x="81.761" y="58.169" width="0.704" height="0.704"/>
	<rect x="84.577" y="58.169" width="0.704" height="0.704"/>
	<rect x="76.127" y="58.873" width="0.704" height="0.704"/>
	<rect x="77.535" y="58.169" width="0.704" height="0.704"/>
	<rect x="77.535" y="59.577" width="0.704" height="0.704"/>
	<rect x="91.62" y="57.465" width="0.704" height="0.704"/>
	<rect x="85.986" y="58.169" width="0.704" height="0.704"/>
	<rect x="90.915" y="56.761" width="0.704" height="0.704"/>
	<rect x="88.803" y="58.169" width="0.704" height="0.704"/>
	<rect x="87.394" y="58.169" width="0.704" height="0.704"/>
	<rect x="85.282" y="58.873" width="0.704" height="0.704"/>
	<rect x="88.099" y="57.465" width="0.704" height="0.704"/>
	<rect x="76.831" y="57.465" width="0.704" height="0.704"/>
	<rect x="70.493" y="58.873" width="0.704" height="1.408"/>
	<rect x="86.69" y="57.465" width="0.704" height="0.704"/>
	<rect x="73.31" y="57.465" width="0.704" height="1.408"/>
	<rect x="88.803" y="56.761" width="0.704" height="0.704"/>
	<rect x="78.239" y="57.465" width="0.704" height="0.704"/>
	<rect x="81.056" y="57.465" width="0.704" height="0.704"/>
	<rect x="87.394" y="56.761" width="0.704" height="0.704"/>
	<rect x="83.873" y="57.465" width="0.704" height="0.704"/>
	<polygon points="81.056,56.761 81.761,56.761 81.761,56.056 82.465,56.056 82.465,56.761 81.761,56.761 81.761,57.465 
		83.169,57.465 83.169,56.761 83.873,56.761 83.873,56.056 85.282,56.056 85.282,56.761 84.577,56.761 84.577,57.465 85.986,57.465 
		85.986,56.761 87.394,56.761 87.394,56.056 90.211,56.056 90.211,56.761 90.915,56.761 90.915,55.352 91.62,55.352 91.62,54.648 
		90.915,54.648 90.915,53.944 90.211,53.944 90.211,54.648 87.394,54.648 87.394,55.352 86.69,55.352 86.69,56.056 85.986,56.056 
		85.986,55.352 84.577,55.352 84.577,54.648 83.873,54.648 83.873,55.352 79.648,55.352 79.648,56.056 81.056,56.056 	"/>
	<rect x="93.732" y="32.113" width="0.704" height="0.704"/>
	<polygon points="85.282,59.577 84.577,59.577 84.577,60.282 83.873,60.282 83.873,59.577 84.577,59.577 84.577,58.873 
		82.465,58.873 82.465,59.577 83.169,59.577 83.169,60.282 81.761,60.282 81.761,58.873 80.352,58.873 80.352,59.577 81.056,59.577 
		81.056,60.282 79.648,60.282 79.648,58.873 78.239,58.873 78.239,59.577 78.944,59.577 78.944,60.282 78.239,60.282 78.239,60.986 
		77.535,60.986 77.535,60.282 75.423,60.282 75.423,60.986 74.718,60.986 74.718,60.282 75.423,60.282 75.423,58.873 74.014,58.873 
		74.014,61.69 78.944,61.69 78.944,60.986 79.648,60.986 79.648,61.69 80.352,61.69 80.352,60.986 81.761,60.986 81.761,61.69 
		82.465,61.69 82.465,60.986 85.986,60.986 85.986,60.282 85.282,60.282 	"/>
	<polygon points="91.62,58.873 91.62,58.169 90.915,58.169 90.915,57.465 90.211,57.465 90.211,58.873 89.507,58.873 89.507,59.577 
		88.803,59.577 88.803,58.873 88.099,58.873 88.099,59.577 87.394,59.577 87.394,58.873 86.69,58.873 86.69,59.577 85.986,59.577 
		85.986,60.282 86.69,60.282 86.69,60.986 87.394,60.986 87.394,60.282 90.211,60.282 90.211,59.577 90.915,59.577 90.915,58.873 	
		"/>
	<polygon points="73.31,60.282 71.197,60.282 71.197,60.986 71.901,60.986 71.901,61.69 72.606,61.69 72.606,62.394 74.014,62.394 
		74.014,61.69 73.31,61.69 	"/>
	<polygon points="71.197,60.986 70.493,60.986 70.493,60.282 69.789,60.282 69.789,60.986 67.676,60.986 67.676,60.282 
		66.972,60.282 66.972,61.69 65.563,61.69 65.563,60.282 64.859,60.282 64.859,61.69 64.155,61.69 64.155,60.986 63.451,60.986 
		63.451,61.69 62.746,61.69 62.746,60.282 62.042,60.282 62.042,61.69 61.338,61.69 61.338,60.282 60.634,60.282 60.634,61.69 
		59.93,61.69 59.93,60.282 59.225,60.282 59.225,60.986 57.817,60.986 57.817,61.69 57.113,61.69 57.113,60.986 56.408,60.986 
		56.408,61.69 55.704,61.69 55.704,60.986 55,60.986 55,61.69 54.296,61.69 54.296,59.577 53.592,59.577 53.592,61.69 52.887,61.69 
		52.887,60.282 52.183,60.282 52.183,60.986 51.479,60.986 51.479,61.69 49.366,61.69 49.366,63.099 50.07,63.099 50.07,62.394 
		58.521,62.394 58.521,61.69 59.225,61.69 59.225,62.394 67.676,62.394 67.676,61.69 68.38,61.69 68.38,62.394 69.085,62.394 
		69.085,61.69 70.493,61.69 70.493,62.394 71.901,62.394 71.901,61.69 71.197,61.69 	"/>
	<rect x="97.958" y="56.761" width="0.704" height="0.704"/>
	<rect x="55.704" y="58.169" width="0.704" height="0.704"/>
	<path d="M104.296,53.944v-0.704h-0.704v-0.704h-1.408v-0.704h-0.704v0.704h-0.704v-0.704h-0.704v0.704h-0.704v0.704h-1.408v-0.704
		h-0.704v0.704h-2.113v0.704h-0.704v-0.704h-0.704v0.704H91.62v0.704h0.704v1.408h0.704v-1.408h0.704v0.704h0.704v-0.704h0.704
		v0.704h1.408v-0.704h-0.704v-0.704h0.704v0.704h0.704v-0.704h1.408v0.704h0.704v-0.704h0.704v-0.704h1.408v1.408h0.704v-0.704
		h0.704v0.704h0.704v0.704h-0.704v-0.704h-0.704v0.704h-0.704v0.704h-0.704v0.704h0.704v0.704h2.113v-0.704h0.704v-1.408H105v-1.408
		H104.296z M102.887,56.761h-0.704v-0.704h0.704V56.761z"/>
	<rect x="62.746" y="59.577" width="0.704" height="0.704"/>
	<polygon points="100.775,56.761 99.366,56.761 99.366,57.465 98.662,57.465 98.662,58.873 99.366,58.873 99.366,58.169 
		101.479,58.169 101.479,57.465 100.775,57.465 	"/>
	<rect x="69.085" y="59.577" width="0.704" height="0.704"/>
	<rect x="94.437" y="55.352" width="0.704" height="0.704"/>
	<rect x="92.324" y="56.761" width="0.704" height="0.704"/>
	<rect x="91.62" y="56.056" width="0.704" height="0.704"/>
	<rect x="94.437" y="56.761" width="0.704" height="0.704"/>
	<polygon points="62.042,58.873 62.042,58.169 62.746,58.169 62.746,56.761 62.042,56.761 62.042,57.465 61.338,57.465 
		61.338,59.577 62.746,59.577 62.746,58.873 	"/>
	<rect x="93.732" y="56.056" width="0.704" height="0.704"/>
	<rect x="62.746" y="58.169" width="0.704" height="0.704"/>
	<polygon points="66.268,57.465 66.268,58.873 66.972,58.873 66.972,57.465 68.38,57.465 68.38,58.873 69.085,58.873 69.085,58.169 
		69.789,58.169 69.789,57.465 71.197,57.465 71.197,58.873 71.901,58.873 71.901,57.465 73.31,57.465 73.31,56.761 74.014,56.761 
		74.014,57.465 75.423,57.465 75.423,58.873 76.127,58.873 76.127,57.465 76.831,57.465 76.831,56.761 77.535,56.761 77.535,57.465 
		78.239,57.465 78.239,56.761 78.944,56.761 78.944,57.465 79.648,57.465 79.648,58.169 80.352,58.169 80.352,57.465 81.056,57.465 
		81.056,56.761 79.648,56.761 79.648,56.056 75.423,56.056 75.423,56.761 74.718,56.761 74.718,56.056 71.901,56.056 71.901,56.761 
		71.197,56.761 71.197,56.056 70.493,56.056 70.493,56.761 65.563,56.761 65.563,56.056 64.155,56.056 64.155,56.761 63.451,56.761 
		63.451,57.465 64.155,57.465 64.155,58.169 64.859,58.169 64.859,57.465 	"/>
	<polygon points="64.155,59.577 64.155,60.282 64.859,60.282 64.859,58.873 63.451,58.873 63.451,59.577 	"/>
	<rect x="64.859" y="58.169" width="0.704" height="0.704"/>
	<polygon points="47.958,63.803 48.662,63.803 48.662,65.915 50.07,65.915 50.07,64.507 49.366,64.507 49.366,63.099 47.958,63.099 
			"/>
	<polygon points="53.592,70.141 53.592,71.549 54.296,71.549 54.296,70.845 55.704,70.845 55.704,70.141 55,70.141 55,69.437 
		54.296,69.437 54.296,70.141 	"/>
	<polygon points="54.296,71.549 54.296,72.958 55,72.958 55,72.254 55.704,72.254 55.704,72.958 57.113,72.958 57.113,71.549 
		56.408,71.549 56.408,70.845 55.704,70.845 55.704,71.549 	"/>
	<polygon points="57.817,73.662 57.817,74.366 58.521,74.366 58.521,75.775 59.93,75.775 59.93,76.479 61.338,76.479 61.338,75.775 
		60.634,75.775 60.634,74.366 59.225,74.366 59.225,73.662 58.521,73.662 58.521,72.958 57.113,72.958 57.113,73.662 	"/>
	<polygon points="62.042,77.183 62.042,77.887 62.746,77.887 62.746,80 64.155,80 64.155,81.408 64.859,81.408 64.859,80 65.563,80 
		65.563,79.296 64.155,79.296 64.155,77.887 63.451,77.887 63.451,77.183 62.746,77.183 62.746,76.479 61.338,76.479 61.338,77.183 
			"/>
	<polygon points="52.887,69.437 52.887,70.141 53.592,70.141 53.592,69.437 54.296,69.437 54.296,68.732 53.592,68.732 
		53.592,68.028 52.887,68.028 52.887,68.732 52.183,68.732 52.183,68.028 52.887,68.028 52.887,67.324 51.479,67.324 51.479,69.437 
			"/>
	<polygon points="56.408,76.479 56.408,75.775 55,75.775 55,75.07 54.296,75.07 54.296,75.775 53.592,75.775 53.592,75.07 
		54.296,75.07 54.296,74.366 52.887,74.366 52.887,73.662 51.479,73.662 51.479,74.366 52.183,74.366 52.183,75.07 52.887,75.07 
		52.887,76.479 54.296,76.479 54.296,77.183 55.704,77.183 55.704,76.479 	"/>
	<polygon points="50.775,66.62 50.775,67.324 51.479,67.324 51.479,65.915 50.07,65.915 50.07,66.62 	"/>
	<polygon points="66.268,81.408 66.268,82.113 66.972,82.113 66.972,84.225 67.676,84.225 67.676,83.521 68.38,83.521 68.38,84.225 
		69.085,84.225 69.085,84.93 68.38,84.93 68.38,85.634 70.493,85.634 70.493,86.338 71.197,86.338 71.197,87.042 72.606,87.042 
		72.606,85.634 71.197,85.634 71.197,84.93 70.493,84.93 70.493,84.225 69.789,84.225 69.789,83.521 69.085,83.521 69.085,82.817 
		67.676,82.817 67.676,81.408 66.972,81.408 66.972,80.704 66.268,80.704 66.268,80 65.563,80 65.563,81.408 	"/>
	<rect x="47.958" y="60.986" width="1.408" height="0.704"/>
	<rect x="46.549" y="63.803" width="1.408" height="0.704"/>
	<rect x="47.254" y="62.394" width="0.704" height="0.704"/>
	<polygon points="62.042,83.521 62.042,82.817 62.746,82.817 62.746,82.113 61.338,82.113 61.338,82.817 60.634,82.817 
		60.634,83.521 61.338,83.521 61.338,84.225 62.746,84.225 62.746,83.521 	"/>
	<polygon points="65.563,86.338 64.859,86.338 64.859,85.634 64.155,85.634 64.155,83.521 63.451,83.521 63.451,84.225 
		62.746,84.225 62.746,85.634 63.451,85.634 63.451,86.338 64.155,86.338 64.155,87.042 64.859,87.042 64.859,87.746 66.268,87.746 
		66.268,87.042 65.563,87.042 	"/>
	<rect x="66.268" y="86.338" width="0.704" height="0.704"/>
	<polygon points="61.338,82.113 61.338,81.408 60.634,81.408 60.634,80 58.521,80 58.521,79.296 57.817,79.296 57.817,78.592 
		58.521,78.592 58.521,77.183 57.817,77.183 57.817,77.887 57.113,77.887 57.113,78.592 56.408,78.592 56.408,79.296 57.113,79.296 
		57.113,80 57.817,80 57.817,80.704 58.521,80.704 58.521,81.408 59.93,81.408 59.93,82.817 60.634,82.817 60.634,82.113 	"/>
	<polygon points="57.113,77.887 57.113,77.183 55.704,77.183 55.704,78.592 56.408,78.592 56.408,77.887 	"/>
	<rect x="67.676" y="58.873" width="0.704" height="1.408"/>
	<polygon points="67.676,88.451 67.676,87.746 68.38,87.746 68.38,87.042 66.972,87.042 66.972,89.859 68.38,89.859 68.38,88.451 	
		"/>
	<polygon points="76.831,91.268 76.831,92.676 78.239,92.676 78.239,91.268 77.535,91.268 77.535,90.563 76.127,90.563 
		76.127,91.268 	"/>
	<polygon points="76.831,93.38 76.831,94.085 78.239,94.085 78.239,94.789 78.944,94.789 78.944,95.493 78.239,95.493 
		78.239,94.789 76.831,94.789 76.831,95.493 77.535,95.493 77.535,96.197 76.831,96.197 76.831,95.493 75.423,95.493 75.423,94.085 
		74.718,94.085 74.718,94.789 74.014,94.789 74.014,94.085 72.606,94.085 72.606,94.789 73.31,94.789 73.31,95.493 74.014,95.493 
		74.014,96.197 75.423,96.197 75.423,96.901 76.127,96.901 76.127,97.606 78.239,97.606 78.239,96.901 79.648,96.901 79.648,95.493 
		80.352,95.493 80.352,94.789 79.648,94.789 79.648,92.676 78.239,92.676 78.239,93.38 	"/>
	<polygon points="73.31,93.38 73.31,91.268 72.606,91.268 72.606,92.676 71.901,92.676 71.901,91.268 71.197,91.268 71.197,89.859 
		70.493,89.859 70.493,90.563 69.789,90.563 69.789,89.155 69.085,89.155 69.085,89.859 68.38,89.859 68.38,91.268 70.493,91.268 
		70.493,92.676 71.197,92.676 71.197,93.38 71.901,93.38 71.901,94.085 72.606,94.085 72.606,93.38 	"/>
	<polygon points="71.197,87.746 71.197,88.451 72.606,88.451 72.606,89.859 75.423,89.859 75.423,90.563 76.127,90.563 
		76.127,89.155 75.423,89.155 75.423,88.451 74.014,88.451 74.014,89.155 73.31,89.155 73.31,88.451 74.014,88.451 74.014,87.746 
		73.31,87.746 73.31,87.042 72.606,87.042 72.606,87.746 	"/>
	<polygon points="98.662,56.056 98.662,54.648 97.958,54.648 97.958,55.352 96.549,55.352 96.549,56.056 	"/>
	<polygon points="100.775,56.056 100.775,55.352 100.07,55.352 100.07,54.648 99.366,54.648 99.366,56.056 	"/>
	<rect x="95.141" y="56.056" width="0.704" height="0.704"/>
	<rect x="100.775" y="54.648" width="0.704" height="0.704"/>
	<rect x="100.07" y="53.944" width="0.704" height="0.704"/>
	<rect x="72.606" y="58.873" width="0.704" height="0.704"/>
	<rect x="69.789" y="58.169" width="0.704" height="0.704"/>
	<rect x="65.563" y="59.577" width="1.408" height="0.704"/>
	<rect x="96.549" y="56.761" width="0.704" height="0.704"/>
	<rect x="49.366" y="60.282" width="0.704" height="0.704"/>
	<rect x="98.662" y="56.056" width="0.704" height="0.704"/>
	<rect x="55.704" y="59.577" width="0.704" height="1.408"/>
	<rect x="59.93" y="58.873" width="0.704" height="1.408"/>
	<rect x="58.521" y="58.169" width="0.704" height="0.704"/>
	<rect x="52.887" y="58.873" width="0.704" height="0.704"/>
	<rect x="50.775" y="60.282" width="0.704" height="0.704"/>
	<rect x="85.986" y="54.648" width="0.704" height="0.704"/>
	<rect x="54.296" y="55.352" width="1.408" height="0.704"/>
	<polygon points="60.634,56.056 60.634,56.761 57.817,56.761 57.817,56.056 57.113,56.056 57.113,56.761 56.408,56.761 
		56.408,56.056 55.704,56.056 55.704,57.465 57.817,57.465 57.817,58.169 58.521,58.169 58.521,57.465 59.93,57.465 59.93,58.169 
		60.634,58.169 60.634,57.465 61.338,57.465 61.338,56.056 	"/>
	<rect x="53.592" y="54.648" width="0.704" height="0.704"/>
	<rect x="57.113" y="58.873" width="1.408" height="1.408"/>
	<polygon points="97.254,58.169 96.549,58.169 96.549,57.465 95.141,57.465 95.141,58.169 94.437,58.169 94.437,57.465 
		93.028,57.465 93.028,58.873 91.62,58.873 91.62,59.577 90.915,59.577 90.915,60.282 92.324,60.282 92.324,59.577 93.732,59.577 
		93.732,58.873 95.141,58.873 95.141,59.577 95.845,59.577 95.845,58.873 97.958,58.873 97.958,57.465 97.254,57.465 	"/>
	<rect x="59.93" y="27.887" width="0.704" height="0.704"/>
	<rect x="47.958" y="46.901" width="0.704" height="0.704"/>
	<polygon points="58.521,28.592 58.521,30.704 59.225,30.704 59.225,29.296 59.93,29.296 59.93,28.592 	"/>
	<rect x="56.408" y="32.113" width="0.704" height="1.408"/>
	<rect x="57.817" y="27.887" width="0.704" height="0.704"/>
	<rect x="60.634" y="25.775" width="0.704" height="0.704"/>
	<rect x="60.634" y="21.549" width="0.704" height="0.704"/>
	<rect x="62.042" y="21.549" width="0.704" height="0.704"/>
	<rect x="60.634" y="23.662" width="0.704" height="1.408"/>
	<rect x="61.338" y="22.958" width="1.408" height="0.704"/>
	<rect x="59.93" y="22.254" width="0.704" height="0.704"/>
	<rect x="51.479" y="41.972" width="0.704" height="0.704"/>
	<rect x="52.183" y="41.268" width="0.704" height="0.704"/>
	<rect x="51.479" y="39.155" width="0.704" height="0.704"/>
	<rect x="50.07" y="44.789" width="0.704" height="0.704"/>
	<polygon points="55,35.634 54.296,35.634 54.296,36.338 55.704,36.338 55.704,34.93 55,34.93 	"/>
	<polygon points="51.479,41.268 52.183,41.268 52.183,40.563 50.775,40.563 50.775,41.972 51.479,41.972 	"/>
	<rect x="64.859" y="10.986" width="0.704" height="0.704"/>
	<rect x="53.592" y="37.746" width="0.704" height="1.408"/>
	<rect x="54.296" y="37.042" width="0.704" height="0.704"/>
	<rect x="52.887" y="39.155" width="0.704" height="0.704"/>
	<polygon points="59.225,26.479 59.225,27.887 59.93,27.887 59.93,27.183 60.634,27.183 60.634,26.479 	"/>
	<polygon points="60.634,29.296 59.93,29.296 59.93,30.704 59.225,30.704 59.225,31.408 58.521,31.408 58.521,32.113 57.817,32.113 
		57.817,33.521 57.113,33.521 57.113,34.225 56.408,34.225 56.408,33.521 55.704,33.521 55.704,34.93 57.113,34.93 57.113,35.634 
		56.408,35.634 56.408,36.338 55.704,36.338 55.704,37.746 55,37.746 55,39.155 54.296,39.155 54.296,39.859 53.592,39.859 
		53.592,40.563 52.887,40.563 52.887,41.268 53.592,41.268 53.592,41.972 52.887,41.972 52.887,42.676 52.183,42.676 52.183,43.38 
		50.775,43.38 50.775,44.789 51.479,44.789 51.479,45.493 52.183,45.493 52.183,44.789 52.887,44.789 52.887,43.38 53.592,43.38 
		53.592,42.676 54.296,42.676 54.296,40.563 55,40.563 55,39.859 55.704,39.859 55.704,38.451 56.408,38.451 56.408,37.746 
		57.113,37.746 57.113,36.338 57.817,36.338 57.817,34.93 58.521,34.93 58.521,33.521 59.225,33.521 59.225,32.113 59.93,32.113 
		59.93,31.408 60.634,31.408 60.634,30 61.338,30 61.338,28.592 60.634,28.592 	"/>
	<rect x="45.845" y="48.31" width="0.704" height="0.704"/>
	<rect x="59.225" y="25.07" width="0.704" height="0.704"/>
	<rect x="46.549" y="49.014" width="1.408" height="0.704"/>
	<polygon points="50.775,46.197 50.07,46.197 50.07,45.493 49.366,45.493 49.366,47.606 48.662,47.606 48.662,48.31 49.366,48.31 
		49.366,49.014 48.662,49.014 48.662,49.718 47.958,49.718 47.958,50.423 49.366,50.423 49.366,49.718 50.07,49.718 50.07,48.31 
		50.775,48.31 50.775,46.901 51.479,46.901 51.479,45.493 50.775,45.493 	"/>
	<polygon points="63.451,20.141 62.746,20.141 62.746,21.549 63.451,21.549 63.451,20.845 64.155,20.845 64.155,19.437 
		63.451,19.437 	"/>
	<rect x="64.859" y="15.211" width="0.704" height="0.704"/>
	<rect x="65.563" y="11.69" width="0.704" height="0.704"/>
	<rect x="64.859" y="16.62" width="0.704" height="0.704"/>
	<rect x="62.042" y="18.732" width="0.704" height="0.704"/>
	<polygon points="63.451,21.549 63.451,22.254 62.746,22.254 62.746,22.958 63.451,22.958 63.451,23.662 62.746,23.662 
		62.746,25.07 61.338,25.07 61.338,25.775 62.042,25.775 62.042,26.479 61.338,26.479 61.338,27.183 60.634,27.183 60.634,27.887 
		61.338,27.887 61.338,28.592 62.042,28.592 62.042,27.183 62.746,27.183 62.746,25.775 63.451,25.775 63.451,25.07 64.155,25.07 
		64.155,22.254 64.859,22.254 64.859,21.549 65.563,21.549 65.563,20.845 64.155,20.845 64.155,21.549 	"/>
	<rect x="47.254" y="46.197" width="0.704" height="0.704"/>
	<rect x="55" y="32.113" width="0.704" height="0.704"/>
	<rect x="55.704" y="30.704" width="0.704" height="1.408"/>
	<polygon points="57.817,32.113 57.817,31.408 58.521,31.408 58.521,30.704 57.113,30.704 57.113,32.113 	"/>
	<rect x="58.521" y="25.775" width="0.704" height="0.704"/>
	<rect x="53.592" y="36.338" width="0.704" height="0.704"/>
	<rect x="50.07" y="41.972" width="0.704" height="1.408"/>
	<polygon points="50.07,43.38 49.366,43.38 49.366,44.085 48.662,44.085 48.662,44.789 50.07,44.789 	"/>
	<rect x="50.775" y="38.451" width="0.704" height="0.704"/>
	<rect x="52.183" y="38.451" width="0.704" height="0.704"/>
	<rect x="52.183" y="39.859" width="0.704" height="0.704"/>
	<rect x="69.789" y="43.38" width="0.704" height="0.704"/>
	<rect x="75.423" y="41.268" width="0.704" height="0.704"/>
	<rect x="68.38" y="44.085" width="1.408" height="0.704"/>
	<rect x="76.127" y="39.859" width="0.704" height="0.704"/>
	<rect x="78.944" y="38.451" width="0.704" height="0.704"/>
	<rect x="47.254" y="47.606" width="0.704" height="0.704"/>
	<rect x="67.676" y="44.789" width="0.704" height="1.408"/>
	<rect x="70.493" y="42.676" width="0.704" height="0.704"/>
	<polygon points="71.901,44.085 71.901,43.38 71.197,43.38 71.197,44.789 72.606,44.789 72.606,44.085 	"/>
	<rect x="81.056" y="37.746" width="1.408" height="0.704"/>
	<rect x="78.239" y="40.563" width="1.408" height="0.704"/>
	<polygon points="74.014,41.972 74.014,42.676 74.718,42.676 74.718,43.38 75.423,43.38 75.423,41.972 	"/>
	<rect x="86.69" y="34.93" width="1.408" height="0.704"/>
	<rect x="92.324" y="32.113" width="0.704" height="0.704"/>
	<rect x="88.803" y="33.521" width="0.704" height="0.704"/>
	<rect x="76.831" y="40.563" width="0.704" height="0.704"/>
	<rect x="63.451" y="46.197" width="0.704" height="0.704"/>
	<rect x="84.577" y="37.042" width="0.704" height="0.704"/>
	<polygon points="83.169,38.451 82.465,38.451 82.465,39.859 83.169,39.859 83.169,39.155 83.873,39.155 83.873,37.042 
		82.465,37.042 82.465,37.746 83.169,37.746 	"/>
	<rect x="80.352" y="38.451" width="0.704" height="0.704"/>
	<rect x="79.648" y="39.155" width="0.704" height="0.704"/>
	<rect x="70.493" y="44.789" width="0.704" height="0.704"/>
	<polygon points="52.183,51.831 52.887,51.831 52.887,51.127 53.592,51.127 53.592,51.831 54.296,51.831 54.296,51.127 
		55.704,51.127 55.704,50.423 55,50.423 55,49.718 55.704,49.718 55.704,50.423 56.408,50.423 56.408,49.014 57.113,49.014 
		57.113,48.31 55.704,48.31 55.704,49.014 54.296,49.014 54.296,50.423 51.479,50.423 51.479,51.127 52.183,51.127 	"/>
	<rect x="48.662" y="52.535" width="1.408" height="0.704"/>
	<rect x="47.958" y="51.831" width="0.704" height="0.704"/>
	<polygon points="60.634,47.606 61.338,47.606 61.338,46.197 59.93,46.197 59.93,46.901 60.634,46.901 	"/>
	<polygon points="57.817,49.014 58.521,49.014 58.521,48.31 59.225,48.31 59.225,47.606 59.93,47.606 59.93,46.901 58.521,46.901 
		58.521,47.606 57.113,47.606 57.113,48.31 57.817,48.31 	"/>
	<rect x="47.958" y="48.31" width="0.704" height="0.704"/>
	<polygon points="62.042,46.901 62.746,46.901 62.746,46.197 63.451,46.197 63.451,45.493 64.155,45.493 64.155,46.197 
		64.859,46.197 64.859,44.789 65.563,44.789 65.563,45.493 66.972,45.493 66.972,44.789 66.268,44.789 66.268,44.085 66.972,44.085 
		66.972,44.789 67.676,44.789 67.676,43.38 69.085,43.38 69.085,42.676 70.493,42.676 70.493,41.972 71.197,41.972 71.197,42.676 
		72.606,42.676 72.606,41.972 71.901,41.972 71.901,41.268 72.606,41.268 72.606,41.972 73.31,41.972 73.31,41.268 74.014,41.268 
		74.014,40.563 74.718,40.563 74.718,41.268 75.423,41.268 75.423,39.859 76.127,39.859 76.127,39.155 76.831,39.155 76.831,38.451 
		75.423,38.451 75.423,39.155 74.014,39.155 74.014,39.859 73.31,39.859 73.31,40.563 71.197,40.563 71.197,41.268 69.789,41.268 
		69.789,41.972 68.38,41.972 68.38,42.676 66.972,42.676 66.972,43.38 65.563,43.38 65.563,44.085 64.155,44.085 64.155,44.789 
		62.746,44.789 62.746,45.493 61.338,45.493 61.338,46.197 62.042,46.197 	"/>
	<rect x="65.563" y="46.197" width="0.704" height="0.704"/>
	<polygon points="48.662,51.127 48.662,51.831 51.479,51.831 51.479,51.127 50.07,51.127 50.07,50.423 49.366,50.423 49.366,51.127 
			"/>
	<polygon points="45.141,49.718 44.437,49.718 44.437,50.423 45.845,50.423 45.845,49.014 45.141,49.014 	"/>
	<rect x="61.338" y="20.845" width="0.704" height="0.704"/>
	<polygon points="70.493,45.493 69.789,45.493 69.789,46.901 69.085,46.901 69.085,46.197 68.38,46.197 68.38,47.606 67.676,47.606 
		67.676,49.014 68.38,49.014 68.38,48.31 69.789,48.31 69.789,47.606 71.197,47.606 71.197,46.197 70.493,46.197 	"/>
	<polygon points="66.268,48.31 65.563,48.31 65.563,49.014 64.859,49.014 64.859,49.718 64.155,49.718 64.155,50.423 65.563,50.423 
		65.563,49.718 66.972,49.718 66.972,47.606 66.268,47.606 	"/>
	<rect x="66.972" y="46.197" width="0.704" height="1.408"/>
	<polygon points="77.535,39.155 76.831,39.155 76.831,39.859 78.944,39.859 78.944,39.155 78.239,39.155 78.239,38.451 
		78.944,38.451 78.944,37.746 81.056,37.746 81.056,36.338 79.648,36.338 79.648,37.042 77.535,37.042 77.535,37.746 76.831,37.746 
		76.831,38.451 77.535,38.451 	"/>
	<polygon points="64.859,47.606 63.451,47.606 63.451,46.901 62.746,46.901 62.746,48.31 64.155,48.31 64.155,49.014 64.859,49.014 
			"/>
	<rect x="64.859" y="46.901" width="0.704" height="0.704"/>
	<path d="M81.761,37.042h0.704v-0.704h4.225v-0.704h-0.704V34.93h0.704v-0.704h0.704v-0.704h1.408v-0.704h0.704v0.704h0.704v-0.704
		h0.704v-1.408h0.704v0.704h0.704v-0.704h0.704v0.704h0.704v-1.408h1.408v0.704h-0.704v0.704h0.704v1.408h-1.408v0.704h0.704v0.704
		h-0.704v-0.704h-1.408v0.704h0.704v0.704h-0.704V34.93h-1.408v0.704h0.704v0.704h2.113v-0.704h1.408v-1.408h1.408v-0.704h0.704
		v-1.408h-0.704v-0.704h0.704v-0.704h-0.704V30h-0.704v-0.704h-0.704V30h-0.704v-0.704h-0.704V30h-1.408v0.704h-2.113v0.704h-0.704
		v0.704h-2.113v0.704H86.69v0.704h-1.408v0.704h-2.113v0.704h-1.408v0.704h-0.704v0.704h0.704V37.042z M83.873,34.93h1.408v0.704
		h-1.408V34.93z"/>
	<polygon points="90.915,35.634 90.211,35.634 90.211,37.042 89.507,37.042 89.507,36.338 88.803,36.338 88.803,37.746 
		88.099,37.746 88.099,36.338 86.69,36.338 86.69,37.746 87.394,37.746 87.394,38.451 86.69,38.451 86.69,37.746 85.282,37.746 
		85.282,38.451 85.986,38.451 85.986,39.155 88.099,39.155 88.099,38.451 89.507,38.451 89.507,37.746 90.915,37.746 90.915,37.042 
		91.62,37.042 91.62,36.338 90.915,36.338 	"/>
	<polygon points="85.282,38.451 84.577,38.451 84.577,39.859 83.169,39.859 83.169,40.563 82.465,40.563 82.465,39.859 
		81.761,39.859 81.761,39.155 81.056,39.155 81.056,40.563 81.761,40.563 81.761,41.268 81.056,41.268 81.056,40.563 80.352,40.563 
		80.352,41.268 79.648,41.268 79.648,41.972 78.239,41.972 78.239,41.268 77.535,41.268 77.535,41.972 76.831,41.972 76.831,43.38 
		75.423,43.38 75.423,44.085 74.014,44.085 74.014,42.676 72.606,42.676 72.606,43.38 73.31,43.38 73.31,44.789 74.014,44.789 
		74.014,45.493 75.423,45.493 75.423,44.789 76.127,44.789 76.127,44.085 78.239,44.085 78.239,43.38 77.535,43.38 77.535,42.676 
		78.239,42.676 78.239,43.38 79.648,43.38 79.648,42.676 80.352,42.676 80.352,41.972 82.465,41.972 82.465,41.268 83.873,41.268 
		83.873,40.563 85.282,40.563 85.282,39.859 85.986,39.859 85.986,39.155 85.282,39.155 	"/>
	<polygon points="73.31,44.789 72.606,44.789 72.606,45.493 71.197,45.493 71.197,46.197 71.901,46.197 71.901,46.901 
		72.606,46.901 72.606,46.197 74.014,46.197 74.014,45.493 73.31,45.493 	"/>
	<rect x="40.915" y="50.423" width="0.704" height="0.704"/>
	<polygon points="36.69,20.141 36.69,20.845 37.394,20.845 37.394,23.662 38.099,23.662 38.099,24.366 38.803,24.366 38.803,22.254 
		38.099,22.254 38.099,21.549 38.803,21.549 38.803,20.141 38.099,20.141 38.099,19.437 38.803,19.437 38.803,18.028 37.394,18.028 
		37.394,20.141 	"/>
	<polygon points="37.394,23.662 35.986,23.662 35.986,25.07 37.394,25.07 37.394,25.775 36.69,25.775 36.69,27.183 37.394,27.183 
		37.394,26.479 38.099,26.479 38.099,27.183 37.394,27.183 37.394,27.887 36.69,27.887 36.69,29.296 37.394,29.296 37.394,28.592 
		38.099,28.592 38.099,29.296 37.394,29.296 37.394,30.704 38.099,30.704 38.099,31.408 37.394,31.408 37.394,32.113 38.099,32.113 
		38.099,32.817 37.394,32.817 37.394,33.521 38.803,33.521 38.803,34.93 38.099,34.93 38.099,36.338 37.394,36.338 37.394,37.042 
		38.803,37.042 38.803,37.746 37.394,37.746 37.394,38.451 38.803,38.451 38.803,39.155 36.69,39.155 36.69,39.859 35.986,39.859 
		35.986,40.563 37.394,40.563 37.394,39.859 38.099,39.859 38.099,40.563 38.803,40.563 38.803,39.859 39.507,39.859 39.507,38.451 
		40.211,38.451 40.211,37.746 39.507,37.746 39.507,36.338 38.803,36.338 38.803,35.634 39.507,35.634 39.507,32.113 38.803,32.113 
		38.803,25.07 38.099,25.07 38.099,24.366 37.394,24.366 	"/>
	<polygon points="38.803,40.563 38.803,41.268 38.099,41.268 38.099,41.972 37.394,41.972 37.394,43.38 38.099,43.38 38.099,42.676 
		38.803,42.676 38.803,41.972 39.507,41.972 39.507,43.38 38.099,43.38 38.099,44.085 37.394,44.085 37.394,44.789 38.803,44.789 
		38.803,44.085 39.507,44.085 39.507,44.789 38.803,44.789 38.803,46.901 39.507,46.901 39.507,46.197 40.211,46.197 40.211,46.901 
		39.507,46.901 39.507,47.606 40.211,47.606 40.211,49.718 41.62,49.718 41.62,50.423 43.028,50.423 43.028,49.718 42.324,49.718 
		42.324,49.014 40.915,49.014 40.915,48.31 41.62,48.31 41.62,47.606 40.915,47.606 40.915,45.493 40.211,45.493 40.211,39.859 
		39.507,39.859 39.507,40.563 	"/>
	<path d="M34.577,12.394h0.704v0.704h-0.704v0.704h1.408v-0.704h0.704v0.704h-0.704v0.704h1.408v1.408H36.69v1.408h-0.704v2.113
		h0.704v-1.408h0.704V16.62h0.704v0.704h0.704v-2.113h-0.704v-0.704h0.704v-1.408h-0.704v0.704h-0.704v-1.408h0.704v-1.408H36.69
		v-0.704h-0.704V9.577h-0.704v0.704h-1.408v1.408h-0.704v0.704h0.704v0.704h0.704V12.394z M35.986,11.69h0.704v0.704h-0.704V11.69z"
		/>
	<rect x="37.394" y="40.563" width="0.704" height="0.704"/>
	<polygon points="35.282,39.155 35.282,37.746 35.986,37.746 35.986,37.042 34.577,37.042 34.577,36.338 35.282,36.338 
		35.282,35.634 34.577,35.634 34.577,34.93 35.282,34.93 35.282,34.225 34.577,34.225 34.577,32.817 35.986,32.817 35.986,32.113 
		34.577,32.113 34.577,30.704 33.873,30.704 33.873,30 33.169,30 33.169,32.113 33.873,32.113 33.873,32.817 33.169,32.817 
		33.169,33.521 33.873,33.521 33.873,34.225 33.169,34.225 33.169,34.93 33.873,34.93 33.873,37.746 34.577,37.746 34.577,38.451 
		33.873,38.451 33.873,40.563 34.577,40.563 34.577,39.155 	"/>
	<polygon points="34.577,16.62 33.873,16.62 33.873,15.915 34.577,15.915 34.577,15.211 33.873,15.211 33.873,14.507 34.577,14.507 
		34.577,13.803 33.873,13.803 33.873,13.099 33.169,13.099 33.169,13.803 32.465,13.803 32.465,14.507 33.169,14.507 33.169,15.915 
		32.465,15.915 32.465,16.62 33.169,16.62 33.169,17.324 34.577,17.324 	"/>
	<rect x="35.282" y="39.155" width="0.704" height="0.704"/>
	<polygon points="34.577,30.704 35.282,30.704 35.282,29.296 34.577,29.296 34.577,28.592 33.873,28.592 33.873,27.887 
		34.577,27.887 34.577,27.183 33.873,27.183 33.873,26.479 34.577,26.479 34.577,25.775 33.873,25.775 33.873,25.07 34.577,25.07 
		34.577,23.662 33.873,23.662 33.873,22.958 34.577,22.958 34.577,22.254 33.873,22.254 33.873,21.549 34.577,21.549 34.577,20.845 
		33.873,20.845 33.873,20.141 33.169,20.141 33.169,19.437 32.465,19.437 32.465,20.845 33.169,20.845 33.169,21.549 32.465,21.549 
		32.465,22.254 33.169,22.254 33.169,25.775 32.465,25.775 32.465,26.479 33.169,26.479 33.169,29.296 33.873,29.296 33.873,30 
		34.577,30 	"/>
	<polygon points="33.873,18.732 34.577,18.732 34.577,18.028 33.169,18.028 33.169,19.437 33.873,19.437 	"/>
	<rect x="35.282" y="30.704" width="0.704" height="0.704"/>
	<rect x="35.986" y="41.268" width="0.704" height="0.704"/>
	<rect x="35.282" y="28.592" width="0.704" height="0.704"/>
	<rect x="35.986" y="31.408" width="0.704" height="0.704"/>
	<polygon points="35.282,27.887 35.986,27.887 35.986,26.479 34.577,26.479 34.577,27.183 35.282,27.183 	"/>
	<rect x="34.577" y="27.887" width="0.704" height="0.704"/>
	<rect x="35.986" y="37.746" width="0.704" height="1.408"/>
	<rect x="35.282" y="34.93" width="0.704" height="0.704"/>
	<rect x="64.859" y="12.394" width="0.704" height="0.704"/>
	<rect x="35.986" y="32.817" width="0.704" height="0.704"/>
	<rect x="35.282" y="33.521" width="0.704" height="0.704"/>
	<rect x="35.282" y="41.972" width="0.704" height="0.704"/>
	<rect x="40.915" y="52.535" width="0.704" height="0.704"/>
	<rect x="38.099" y="49.014" width="0.704" height="1.408"/>
	<rect x="40.211" y="51.831" width="0.704" height="0.704"/>
	<rect x="40.915" y="69.437" width="0.704" height="0.704"/>
	<rect x="40.211" y="66.62" width="0.704" height="0.704"/>
	<rect x="38.099" y="73.662" width="0.704" height="0.704"/>
	<polygon points="38.099,71.549 38.099,70.845 37.394,70.845 37.394,72.254 38.099,72.254 38.099,72.958 38.803,72.958 
		38.803,71.549 	"/>
	<rect x="40.915" y="70.845" width="0.704" height="0.704"/>
	<rect x="38.803" y="87.746" width="0.704" height="0.704"/>
	<rect x="37.394" y="68.732" width="0.704" height="1.408"/>
	<rect x="46.549" y="51.127" width="0.704" height="0.704"/>
	<rect x="36.69" y="48.31" width="0.704" height="0.704"/>
	<polygon points="36.69,46.901 36.69,46.197 35.986,46.197 35.986,44.085 36.69,44.085 36.69,42.676 35.986,42.676 35.986,43.38 
		35.282,43.38 35.282,42.676 34.577,42.676 34.577,45.493 35.282,45.493 35.282,46.197 34.577,46.197 34.577,46.901 35.282,46.901 
		35.282,47.606 34.577,47.606 34.577,49.014 35.986,49.014 35.986,46.901 	"/>
	<rect x="34.577" y="25.07" width="1.408" height="0.704"/>
	<rect x="44.437" y="65.915" width="0.704" height="0.704"/>
	<rect x="53.592" y="57.465" width="0.704" height="0.704"/>
	<rect x="36.69" y="46.901" width="0.704" height="0.704"/>
	<polygon points="35.986,41.268 35.986,40.563 34.577,40.563 34.577,41.268 33.873,41.268 33.873,41.972 35.282,41.972 
		35.282,41.268 	"/>
	<rect x="44.437" y="51.127" width="0.704" height="0.704"/>
	<rect x="47.958" y="58.873" width="0.704" height="0.704"/>
	<rect x="50.775" y="53.944" width="0.704" height="0.704"/>
	<rect x="35.986" y="36.338" width="0.704" height="0.704"/>
	<rect x="38.099" y="46.901" width="0.704" height="0.704"/>
	<rect x="43.028" y="50.423" width="0.704" height="0.704"/>
	<polygon points="45.845,47.606 46.549,47.606 46.549,46.197 47.254,46.197 47.254,45.493 47.958,45.493 47.958,46.197 
		48.662,46.197 48.662,44.789 47.958,44.789 47.958,44.085 48.662,44.085 48.662,43.38 47.958,43.38 47.958,42.676 48.662,42.676 
		48.662,43.38 49.366,43.38 49.366,41.972 48.662,41.972 48.662,41.268 49.366,41.268 49.366,41.972 50.07,41.972 50.07,39.859 
		50.775,39.859 50.775,39.155 50.07,39.155 50.07,38.451 49.366,38.451 49.366,39.155 48.662,39.155 48.662,40.563 47.958,40.563 
		47.958,41.972 47.254,41.972 47.254,43.38 46.549,43.38 46.549,44.085 47.254,44.085 47.254,44.789 46.549,44.789 46.549,44.085 
		45.845,44.085 45.845,45.493 45.141,45.493 45.141,46.901 45.845,46.901 	"/>
	<polygon points="52.887,33.521 53.592,33.521 53.592,34.225 52.887,34.225 52.887,34.93 54.296,34.93 54.296,34.225 55,34.225 
		55,33.521 54.296,33.521 54.296,32.113 55,32.113 55,30.704 55.704,30.704 55.704,29.296 56.408,29.296 56.408,30.704 
		57.113,30.704 57.113,27.183 58.521,27.183 58.521,26.479 57.113,26.479 57.113,25.775 56.408,25.775 56.408,27.183 55.704,27.183 
		55.704,28.592 55,28.592 55,30 54.296,30 54.296,31.408 53.592,31.408 53.592,32.113 52.887,32.113 52.887,32.817 52.183,32.817 
		52.183,34.225 52.887,34.225 	"/>
	<polygon points="50.775,37.746 51.479,37.746 51.479,38.451 52.183,38.451 52.183,37.746 52.887,37.746 52.887,37.042 
		51.479,37.042 51.479,36.338 53.592,36.338 53.592,35.634 52.887,35.634 52.887,34.93 52.183,34.93 52.183,34.225 51.479,34.225 
		51.479,35.634 50.775,35.634 50.775,37.042 50.07,37.042 50.07,38.451 50.775,38.451 	"/>
	<polygon points="40.211,70.845 39.507,70.845 39.507,70.141 38.803,70.141 38.803,71.549 39.507,71.549 39.507,72.958 
		38.803,72.958 38.803,73.662 40.211,73.662 	"/>
	<rect x="39.507" y="49.718" width="0.704" height="0.704"/>
	<rect x="38.803" y="47.606" width="0.704" height="0.704"/>
	<rect x="42.324" y="51.127" width="0.704" height="0.704"/>
	<polygon points="58.521,25.07 57.817,25.07 57.817,24.366 57.113,24.366 57.113,25.775 58.521,25.775 	"/>
	<polygon points="44.437,48.31 45.845,48.31 45.845,47.606 45.141,47.606 45.141,46.901 44.437,46.901 44.437,47.606 43.732,47.606 
		43.732,48.31 43.028,48.31 43.028,49.718 44.437,49.718 	"/>
	<rect x="62.746" y="16.62" width="1.408" height="0.704"/>
	<polygon points="65.563,16.62 66.268,16.62 66.268,17.324 65.563,17.324 65.563,19.437 64.859,19.437 64.859,20.141 66.268,20.141 
		66.268,18.732 66.972,18.732 66.972,15.915 65.563,15.915 	"/>
	<rect x="35.986" y="29.296" width="0.704" height="1.408"/>
	<rect x="64.155" y="13.803" width="0.704" height="0.704"/>
	<rect x="64.155" y="15.915" width="0.704" height="0.704"/>
	<polygon points="62.042,17.324 61.338,17.324 61.338,16.62 62.746,16.62 62.746,15.915 64.155,15.915 64.155,14.507 63.451,14.507 
		63.451,15.211 62.746,15.211 62.746,14.507 61.338,14.507 61.338,15.211 62.042,15.211 62.042,15.915 60.634,15.915 60.634,18.028 
		61.338,18.028 61.338,18.732 62.042,18.732 	"/>
	<polygon points="59.225,22.254 59.93,22.254 59.93,21.549 60.634,21.549 60.634,20.845 59.93,20.845 59.93,20.141 59.225,20.141 
		59.225,21.549 58.521,21.549 58.521,22.958 59.225,22.958 	"/>
	<polygon points="62.042,19.437 61.338,19.437 61.338,18.732 59.93,18.732 59.93,20.141 62.042,20.141 	"/>
	<polygon points="63.451,13.803 64.155,13.803 64.155,13.099 63.451,13.099 63.451,12.394 64.859,12.394 64.859,11.69 64.155,11.69 
		64.155,10.986 64.859,10.986 64.859,9.577 65.563,9.577 65.563,8.873 66.268,8.873 66.268,9.577 65.563,9.577 65.563,10.986 
		66.268,10.986 66.268,10.282 66.972,10.282 66.972,8.873 67.676,8.873 67.676,10.282 66.972,10.282 66.972,11.69 67.676,11.69 
		67.676,12.394 66.268,12.394 66.268,13.099 65.563,13.099 65.563,13.803 66.972,13.803 66.972,13.099 67.676,13.099 67.676,13.803 
		66.972,13.803 66.972,14.507 65.563,14.507 65.563,15.211 66.972,15.211 66.972,15.915 67.676,15.915 67.676,14.507 68.38,14.507 
		68.38,12.394 69.085,12.394 69.085,11.69 68.38,11.69 68.38,10.986 69.085,10.986 69.085,10.282 68.38,10.282 68.38,9.577 
		69.085,9.577 69.085,8.873 68.38,8.873 68.38,8.169 67.676,8.169 67.676,7.465 66.268,7.465 66.268,6.761 65.563,6.761 
		65.563,7.465 64.859,7.465 64.859,8.169 64.155,8.169 64.155,9.577 63.451,9.577 63.451,11.69 62.746,11.69 62.746,13.099 
		62.042,13.099 62.042,13.803 62.746,13.803 62.746,14.507 63.451,14.507 	"/>
	<polygon points="58.521,25.07 59.225,25.07 59.225,24.366 59.93,24.366 59.93,22.958 59.225,22.958 59.225,23.662 58.521,23.662 
		58.521,22.958 57.817,22.958 57.817,24.366 58.521,24.366 	"/>
	<polygon points="62.746,18.028 62.746,18.732 64.155,18.732 64.155,19.437 64.859,19.437 64.859,18.028 	"/>
	<rect x="36.69" y="37.042" width="0.704" height="0.704"/>
	<rect x="35.986" y="20.845" width="0.704" height="0.704"/>
	<rect x="35.986" y="34.225" width="0.704" height="0.704"/>
	<rect x="34.577" y="22.958" width="1.408" height="0.704"/>
	<rect x="34.577" y="21.549" width="1.408" height="0.704"/>
	<rect x="36.69" y="34.93" width="0.704" height="1.408"/>
	<rect x="36.69" y="32.113" width="0.704" height="0.704"/>
	<rect x="36.69" y="30.704" width="0.704" height="0.704"/>
	<rect x="37.394" y="34.225" width="0.704" height="0.704"/>
	<rect x="36.69" y="33.521" width="0.704" height="0.704"/>
	<rect x="35.282" y="16.62" width="0.704" height="0.704"/>
	<rect x="34.577" y="14.507" width="1.408" height="0.704"/>
	<rect x="35.986" y="15.211" width="0.704" height="0.704"/>
	<rect x="35.986" y="22.254" width="0.704" height="0.704"/>
	<rect x="37.394" y="45.493" width="0.704" height="0.704"/>
	<rect x="36.69" y="44.789" width="0.704" height="0.704"/>
	<rect x="34.577" y="15.915" width="0.704" height="0.704"/>
	<rect x="33.873" y="19.437" width="0.704" height="0.704"/>
	<rect x="34.577" y="17.324" width="0.704" height="0.704"/>
	<rect x="34.577" y="20.141" width="1.408" height="0.704"/>
	<rect x="34.577" y="18.732" width="0.704" height="0.704"/>
</g>
</svg>
