<?xml version="1.0" encoding="utf-8"?>
<!-- Generator: Adobe Illustrator 28.3.0, SVG Export Plug-In . SVG Version: 6.00 Build 0)  -->
<svg version="1.1" id="Layer_1" xmlns="http://www.w3.org/2000/svg" xmlns:xlink="http://www.w3.org/1999/xlink" x="0px" y="0px"
	 viewBox="0 0 110 110" enable-background="new 0 0 110 110" xml:space="preserve">
<path d="M104.153,27.881h-3.39c-0.847,0-0.847,0.847-0.847,0.847c0,0.847-0.847,0.847-0.847,0.847h-3.39
	c-0.847,0-0.847,0.847-0.847,0.847c0,0.847-0.847,0.847-0.847,0.847h-3.39c-0.847,0-0.847,0.847-0.847,0.847
	c0,0.847-0.847,0.847-0.847,0.847h-3.39c-0.847,0-0.847,0.847-0.847,0.847c0,0.847-0.847,0.847-0.847,0.847h-5.085
	c-0.847,0-0.847,0.847-0.847,0.847c0,0.847-0.847,0.847-0.847,0.847h-5.085c-0.847,0-0.847,0.847-0.847,0.847
	c0,0.847-0.847,0.847-0.847,0.847h-3.39c-0.847,0-0.847,0.847-0.847,0.847c0,0.847-0.847,0.847-0.847,0.847
	c-0.847,0-0.847-0.847-0.847-0.847c0-0.847,0.847-0.847,0.847-0.847c0.847,0,0.847-0.847,0.847-0.847
	c0-0.847,0.847-0.847,0.847-0.847c0.847,0,0.847-0.847,0.847-0.847c0-0.847,0.847-0.847,0.847-0.847h1.695
	c0.847,0,0.847-0.847,0.847-0.847c0-0.847,0.847-0.847,0.847-0.847c0.847,0,0.847-0.847,0.847-0.847
	c0-0.847,0.847-0.847,0.847-0.847c0.847,0,0.847-0.847,0.847-0.847v-1.13c0-1.412-1.412-1.412-1.412-1.412h-1.13
	c-0.847,0-0.847,0.847-0.847,0.847c0,0.847-0.847,0.847-0.847,0.847c-0.847,0-0.847,0.847-0.847,0.847
	c0,0.847-0.847,0.847-0.847,0.847h-1.695c-0.847,0-0.847,0.847-0.847,0.847c0,0.847-0.847,0.847-0.847,0.847h-1.695
	c-0.847,0-0.847,0.847-0.847,0.847c0,0.847-0.847,0.847-0.847,0.847c-0.847,0-0.847,0.847-0.847,0.847
	c0,0.847-0.847,0.847-0.847,0.847H58.39c-0.847,0-0.847,0.847-0.847,0.847c0,0.847-0.847,0.847-0.847,0.847
	c-0.847,0-0.847-0.847-0.847-0.847c0-0.847,0.847-0.847,0.847-0.847c0.847,0,0.847-0.847,0.847-0.847v-1.695
	c0-0.847,0.847-0.847,0.847-0.847c0.847,0,0.847-0.847,0.847-0.847v-1.695c0-0.847,0.847-0.847,0.847-0.847
	c0.847,0,0.847-0.847,0.847-0.847v-3.39c0-0.847-0.847-0.847-0.847-0.847c-0.847,0-0.847,0.847-0.847,0.847
	c0,0.847-0.847,0.847-0.847,0.847c-0.847,0-0.847,0.847-0.847,0.847c0,0.847-0.847,0.847-0.847,0.847
	c-0.847,0-0.847,0.847-0.847,0.847c0,0.847-0.847,0.847-0.847,0.847c-0.847,0-0.847,0.847-0.847,0.847
	c0,0.847-0.847,0.847-0.847,0.847c-0.847,0-0.847,0.847-0.847,0.847c0,0.847-0.847,0.847-0.847,0.847
	c-0.847,0-0.847,0.847-0.847,0.847c0,0.847-0.847,0.847-0.847,0.847c-0.847,0-0.847,0.847-0.847,0.847v1.695
	c0,0.847-0.847,0.847-0.847,0.847c-0.847,0-0.847,0.847-0.847,0.847c0,0.847-0.847,0.847-0.847,0.847
	c-0.847,0-0.847-0.847-0.847-0.847v-8.475c0-0.847-0.847-0.847-0.847-0.847c-0.847,0-0.847-0.847-0.847-0.847v-2.825
	c0-1.412-1.412-1.412-1.412-1.412h-0.565c-1.412,0-1.412,1.412-1.412,1.412v7.91c0,0.847-0.847,0.847-0.847,0.847
	c-0.847,0-0.847,0.847-0.847,0.847v6.78c0,0.847-0.847,0.847-0.847,0.847c-0.847,0-0.847,0.847-0.847,0.847v1.695
	c0,0.847-0.847,0.847-0.847,0.847c-0.847,0-0.847-0.847-0.847-0.847v-1.695c0-0.847-0.847-0.847-0.847-0.847
	c-0.847,0-0.847-0.847-0.847-0.847v-1.695c0-0.847-0.847-0.847-0.847-0.847c-0.847,0-0.847-0.847-0.847-0.847v-1.695
	c0-0.847-0.847-0.847-0.847-0.847c-0.847,0-0.847-0.847-0.847-0.847v-3.39c0-0.847-0.847-0.847-0.847-0.847
	c-0.847,0-0.847-0.847-0.847-0.847v-1.695c0-0.847-0.847-0.847-0.847-0.847c-0.847,0-0.847-0.847-0.847-0.847
	c0-0.847-0.847-0.847-0.847-0.847c-0.847,0-0.847-0.847-0.847-0.847c0-0.847-0.847-0.847-0.847-0.847
	c-0.847,0-0.847-0.847-0.847-0.847v-1.695c0-0.847-0.847-0.847-0.847-0.847c-0.847,0-0.847-0.847-0.847-0.847v-1.695
	c0-0.847-0.847-0.847-0.847-0.847c-0.847,0-0.847-0.847-0.847-0.847c0-0.847-0.847-0.847-0.847-0.847h-1.13
	c-1.412,0-1.412,1.412-1.412,1.412v2.825c0,0.847,0.847,0.847,0.847,0.847c0.847,0,0.847,0.847,0.847,0.847v5.085
	c0,0.847,0.847,0.847,0.847,0.847c0.847,0,0.847,0.847,0.847,0.847v5.085c0,0.847,0.847,0.847,0.847,0.847
	c0.847,0,0.847,0.847,0.847,0.847v9.605c0,1.412-1.412,1.412-1.412,1.412h-1.13c-0.847,0-0.847-0.847-0.847-0.847
	c0-0.847-0.847-0.847-0.847-0.847H6.412C5,44.831,5,46.243,5,46.243v0.565c0,1.412,1.412,1.412,1.412,1.412h2.825
	c0.847,0,0.847,0.847,0.847,0.847c0,0.847,0.847,0.847,0.847,0.847h3.39c0.847,0,0.847,0.847,0.847,0.847
	c0,0.847,0.847,0.847,0.847,0.847c0.847,0,0.847,0.847,0.847,0.847c0,0.847,0.847,0.847,0.847,0.847h3.39
	c0.847,0,0.847,0.847,0.847,0.847C21.949,55,22.797,55,22.797,55h1.695c0.847,0,0.847,0.847,0.847,0.847
	c0,0.847,0.847,0.847,0.847,0.847c0.847,0,0.847,0.847,0.847,0.847c0,0.847-0.847,0.847-0.847,0.847h-1.695
	c-0.847,0-0.847,0.847-0.847,0.847c0,0.847-0.847,0.847-0.847,0.847h-3.39c-0.847,0-0.847,0.847-0.847,0.847
	c0,0.847-0.847,0.847-0.847,0.847c-0.847,0-0.847,0.847-0.847,0.847c0,0.847,0.847,0.847,0.847,0.847h8.475
	c0.847,0,0.847-0.847,0.847-0.847c0-0.847,0.847-0.847,0.847-0.847h3.39c0.847,0,0.847,0.847,0.847,0.847
	c0,0.847-0.847,0.847-0.847,0.847c-0.847,0-0.847,0.847-0.847,0.847c0,0.847-0.847,0.847-0.847,0.847
	c-0.847,0-0.847,0.847-0.847,0.847v1.695c0,0.847-0.847,0.847-0.847,0.847c-0.847,0-0.847,0.847-0.847,0.847
	c0,0.847-0.847,0.847-0.847,0.847c-0.847,0-0.847,0.847-0.847,0.847c0,0.847-0.847,0.847-0.847,0.847
	c-0.847,0-0.847,0.847-0.847,0.847v1.695c0,0.847-0.847,0.847-0.847,0.847c-0.847,0-0.847,0.847-0.847,0.847
	c0,0.847-0.847,0.847-0.847,0.847c-0.847,0-0.847,0.847-0.847,0.847c0,0.847,0.847,0.847,0.847,0.847h1.695
	c0.847,0,0.847-0.847,0.847-0.847c0-0.847,0.847-0.847,0.847-0.847c0.847,0,0.847-0.847,0.847-0.847
	c0-0.847,0.847-0.847,0.847-0.847c0.847,0,0.847-0.847,0.847-0.847c0-0.847,0.847-0.847,0.847-0.847
	c0.847,0,0.847-0.847,0.847-0.847v-1.695c0-0.847,0.847-0.847,0.847-0.847c0.847,0,0.847-0.847,0.847-0.847
	c0-0.847,0.847-0.847,0.847-0.847c0.847,0,0.847-0.847,0.847-0.847c0-0.847,0.847-0.847,0.847-0.847
	c0.847,0,0.847-0.847,0.847-0.847c0-0.847,0.847-0.847,0.847-0.847h1.695c0.847,0,0.847-0.847,0.847-0.847
	c0-0.847,0.847-0.847,0.847-0.847c0.847,0,0.847-0.847,0.847-0.847c0-0.847,0.847-0.847,0.847-0.847
	c0.847,0,0.847,0.847,0.847,0.847v5.085c0,0.847-0.847,0.847-0.847,0.847c-0.847,0-0.847,0.847-0.847,0.847v5.085
	c0,0.847-0.847,0.847-0.847,0.847c-0.847,0-0.847,0.847-0.847,0.847v5.085c0,0.847-0.847,0.847-0.847,0.847
	c-0.847,0-0.847,0.847-0.847,0.847v3.39c0,0.847-0.847,0.847-0.847,0.847c-0.847,0-0.847,0.847-0.847,0.847v2.825
	c0,1.412,1.412,1.412,1.412,1.412h0.565c1.412,0,1.412-1.412,1.412-1.412v-2.825c0-0.847,0.847-0.847,0.847-0.847
	c0.847,0,0.847-0.847,0.847-0.847v-3.39c0-0.847,0.847-0.847,0.847-0.847c0.847,0,0.847-0.847,0.847-0.847v-1.695
	c0-0.847,0.847-0.847,0.847-0.847c0.847,0,0.847-0.847,0.847-0.847v-1.695c0-0.847,0.847-0.847,0.847-0.847
	c0.847,0,0.847-0.847,0.847-0.847v-1.695c0-0.847,0.847-0.847,0.847-0.847c0.847,0,0.847-0.847,0.847-0.847v-3.39
	c0-0.847,0.847-0.847,0.847-0.847c0.847,0,0.847,0.847,0.847,0.847v5.085c0,0.847,0.847,0.847,0.847,0.847
	c0.847,0,0.847,0.847,0.847,0.847v16.949c0,0.847-0.847,0.847-0.847,0.847c-0.847,0-0.847,0.847-0.847,0.847
	c0,0.847,0.847,0.847,0.847,0.847h1.13c1.412,0,1.412-1.412,1.412-1.412v-4.52c0-0.847,0.847-0.847,0.847-0.847
	c0.847,0,0.847-0.847,0.847-0.847v-8.475c0-0.847,0.847-0.847,0.847-0.847c0.847,0,0.847-0.847,0.847-0.847v-6.78
	c0-0.847,0.847-0.847,0.847-0.847c0.847,0,0.847-0.847,0.847-0.847c0-0.847,0.847-0.847,0.847-0.847
	c0.847,0,0.847,0.847,0.847,0.847v1.695c0,0.847,0.847,0.847,0.847,0.847c0.847,0,0.847,0.847,0.847,0.847v1.695
	c0,0.847,0.847,0.847,0.847,0.847c0.847,0,0.847,0.847,0.847,0.847v1.695c0,0.847,0.847,0.847,0.847,0.847
	c0.847,0,0.847,0.847,0.847,0.847v1.695c0,0.847,0.847,0.847,0.847,0.847c0.847,0,0.847,0.847,0.847,0.847v1.695
	c0,0.847,0.847,0.847,0.847,0.847c0.847,0,0.847-0.847,0.847-0.847v-5.085c0-0.847-0.847-0.847-0.847-0.847
	c-0.847,0-0.847-0.847-0.847-0.847V63.192c0-1.412,1.412-1.412,1.412-1.412h2.825c0.847,0,0.847,0.847,0.847,0.847
	c0,0.847,0.847,0.847,0.847,0.847h5.085c0.847,0,0.847,0.847,0.847,0.847c0,0.847,0.847,0.847,0.847,0.847
	c0.847,0,0.847-0.847,0.847-0.847v-1.695c0-0.847-0.847-0.847-0.847-0.847c-0.847,0-0.847-0.847-0.847-0.847
	c0-0.847-0.847-0.847-0.847-0.847c-0.847,0-0.847-0.847-0.847-0.847c0-0.847-0.847-0.847-0.847-0.847
	c-0.847,0-0.847-0.847-0.847-0.847c0-0.847-0.847-0.847-0.847-0.847c-0.847,0-0.847-0.847-0.847-0.847
	C71.102,55,70.254,55,70.254,55c-0.847,0-0.847-0.847-0.847-0.847c0-0.847-0.847-0.847-0.847-0.847
	c-0.847,0-0.847-0.847-0.847-0.847c0-0.847,0.847-0.847,0.847-0.847c0.847,0,0.847-0.847,0.847-0.847
	c0-0.847,0.847-0.847,0.847-0.847c0.847,0,0.847-0.847,0.847-0.847c0-0.847,0.847-0.847,0.847-0.847h1.695
	c0.847,0,0.847-0.847,0.847-0.847c0-0.847,0.847-0.847,0.847-0.847h1.695c0.847,0,0.847-0.847,0.847-0.847
	c0-0.847,0.847-0.847,0.847-0.847h1.695c0.847,0,0.847-0.847,0.847-0.847c0-0.847,0.847-0.847,0.847-0.847h1.695
	c0.847,0,0.847-0.847,0.847-0.847c0-0.847,0.847-0.847,0.847-0.847h1.695c0.847,0,0.847-0.847,0.847-0.847
	c0-0.847,0.847-0.847,0.847-0.847c0.847,0,0.847-0.847,0.847-0.847c0-0.847,0.847-0.847,0.847-0.847h1.695
	c0.847,0,0.847-0.847,0.847-0.847c0-0.847,0.847-0.847,0.847-0.847h1.695c0.847,0,0.847-0.847,0.847-0.847
	c0-0.847,0.847-0.847,0.847-0.847c0.847,0,0.847-0.847,0.847-0.847c0-0.847,0.847-0.847,0.847-0.847h1.695
	c0.847,0,0.847-0.847,0.847-0.847c0-0.847,0.847-0.847,0.847-0.847c0.847,0,0.847-0.847,0.847-0.847
	c0-0.847,0.847-0.847,0.847-0.847c0.847,0,0.847-0.847,0.847-0.847C105,27.881,104.153,27.881,104.153,27.881z"/>
</svg>
