<svg width="24" height="24" viewBox="0 0 24 24" fill="none" xmlns="http://www.w3.org/2000/svg">
<rect x="20.9998" y="15" width="4" height="2" transform="rotate(90 20.9998 15)" fill="black"/>
<rect x="19" y="19" width="2" height="14" transform="rotate(90 19 19)" fill="black"/>
<rect x="4.99976" y="15" width="4" height="2" transform="rotate(90 4.99976 15)" fill="black"/>
<rect x="12.9998" y="3.00006" width="14" height="2" transform="rotate(90 12.9998 3.00006)" fill="black"/>
<rect width="2" height="10" transform="matrix(-4.37114e-08 1 1 4.37114e-08 7 11)" fill="black"/>
<rect width="2" height="2" transform="matrix(-4.37114e-08 1 1 4.37114e-08 9 13)" fill="black"/>
<rect width="2" height="2" transform="matrix(-4.37114e-08 1 1 4.37114e-08 13 13)" fill="black"/>
<rect width="2" height="2" transform="matrix(-4.37114e-08 1 1 4.37114e-08 15 11)" fill="black"/>
</svg>
