<?xml version="1.0" encoding="utf-8"?>
<!-- Generator: Adobe Illustrator 28.3.0, SVG Export Plug-In . SVG Version: 6.00 Build 0)  -->
<svg version="1.1" id="Layer_1" xmlns="http://www.w3.org/2000/svg" xmlns:xlink="http://www.w3.org/1999/xlink" x="0px" y="0px"
	 viewBox="0 0 110 110" xml:space="preserve">
<path d="M105,41.455H68.946v-0.912h-1.621v-4.989h-1.621v-4.989h-1.621v-4.989h-1.621v-4.989h-1.621v-4.989H59.22V10.61h-1.621
	V5.622h-5.245v4.136H51.01v4.989h-1.621v4.989h-1.621v4.989h-1.621v4.989h-1.621V34.7h-1.621v4.989h-1.621v1.765H5.85v1.428H5v5.245
	h4.244v3.083h4.244v3.083h4.244v3.083h4.244v3.083h4.244v3.083h4.244v3.083h2.6v3.36H31.44v4.989h-1.621v4.989h-1.621v4.989h-1.621
	v4.989h-1.621v4.989h-1.621v4.202h-1.05v5.245h5.245v-3.083h4.244v-3.083h4.244v-3.083h4.244v-3.083h4.244v-3.083h4.244v-3.083
	h4.244v-3.083h3.242v2.556h4.244v3.083h4.244v3.083h4.244v3.083h4.244v3.083h4.244v3.083h4.197v0.261h0.047v2.822h5.245v-5.245
	h-0.047v-2.822h-1.621v-4.989h-1.621v-4.989h-1.621v-4.989h-1.621v-4.989H78.79V70.84h-1.621v-3.686h1.597v-3.083h4.244v-3.083
	h4.244v-3.083h4.244v-3.083h4.244v-3.083h4.244v-3.083h4.244V46.7H105V41.455z M42.567,46.7v-1.765h3.963v-4.989h1.621v-4.989h1.621
	v-4.989h1.621V24.98h1.621v-4.989h1.621v-4.136h0.961v4.989h1.621v4.989h1.621v4.989h1.621v4.989h1.621v4.989H63.7v4.989h4.582V46.7
	h26.456v2.876h-4.244v3.083h-4.244v3.083h-4.244v3.083h-4.244v3.083h-4.244v3.943h-1.597v5.245h1.621v4.989h1.621v4.989h1.621v4.989
	h1.621v4.989h1.621v4.471h-1.574v-3.083h-4.244v-3.083h-4.244v-3.083h-4.244V83.19H61.48v-3.083h-4.244v-2.556h-5.245v3.083h-4.244
	v3.083h-4.244V86.8H39.26v3.083h-4.244v3.083h-4.244v3.083h-2.192v-0.863h1.621v-4.989h1.621V85.21h1.621v-4.989h1.621v-4.989h1.621
	v-4.989h1.621v-5.245h-2.6v-3.617h-4.244v-3.083H27.22v-3.083h-4.244v-3.083h-4.244v-3.083h-4.244V46.7H42.567z"/>
</svg>
