<?xml version="1.0" encoding="utf-8"?>
<!-- Generator: Adobe Illustrator 28.3.0, SVG Export Plug-In . SVG Version: 6.00 Build 0)  -->
<svg version="1.1" id="Layer_1" xmlns="http://www.w3.org/2000/svg" xmlns:xlink="http://www.w3.org/1999/xlink" x="0px" y="0px"
	 viewBox="0 0 110 110" enable-background="new 0 0 110 110" xml:space="preserve">
<g>
	<path d="M101.887,50.987h-1.503v-8.583h-2.386v-8.307h-3.652v-7.911h-4.812v-7.142h-5.862v-6.447H76.24v-4.24h-8.028V5.005h-8.713
		V5h-8.713v1.188h-8.483v3.247h-8.086v5.022h-7.01v5.667h-6.618v7.226h-4.746v7.538h-4.37v8.488H9.649v8.56H8.113v8.713h1.628v8.56
		h1.628v8.56h4.588v7.348H20.8v7.243h6.797v5.295h7.446v4.387h8.416v2.257h8.567V105h8.713v-0.596h8.693v-3.262h8.033v-4.183h7.536
		v-5.922h6.392v-7.036h4.951v-7.675h4.125V68.33h1.002V59.7h0.414V50.987z M67.527,13.718v3.352h7.431v4.24h5.862v6.447h4.812V34.9
		h3.652v7.911h2.386v8.307h1.503v8.499h-0.414v7.996h-1.002v7.675h-4.125v7.036h-4.951v5.922h-6.392v4.183h-7.536v3.262H60.72v0.596
		h-8.547v-0.701h-8.416v-2.257h-7.446v-4.387h-6.797v-5.295H24.67v-7.243h-4.588v-7.348h-1.628v-8.56h-1.628v-8.406h1.535v-8.488
		h1.823v-7.538h4.37v-7.226h4.746V23.17h6.619v-5.022h7.01v-3.247h8.086v-1.188h8.483v0.005H67.527z"/>
	<polygon points="72.746,67.169 69.672,67.169 69.672,73.581 64.002,73.581 64.002,77.086 56.144,77.086 56.144,76.936 
		48.306,76.936 48.306,73.817 42.002,73.817 42.002,68.121 37.945,68.121 37.945,60.409 29.231,60.409 29.231,69.123 33.288,69.123 
		33.288,76.834 39.593,76.834 39.593,82.53 47.43,82.53 47.43,85.649 56.025,85.649 56.025,85.8 64.738,85.8 64.738,82.295 
		72.716,82.295 72.716,75.882 78.385,75.882 78.385,68.009 81.459,68.009 81.459,59.295 72.746,59.295 	"/>
	<path d="M58.937,40.464h-0.568v8.713h2.371v8.306h8.713v-1.431h6.639v-0.859h0.433v-8.619h0.382v-8.713h-3.521v-7.685h-8.713v1.69
		h-5.736V40.464z"/>
	<path d="M33.849,55.194h0.433v0.859h6.639v1.431h8.713v-8.306h2.371v-8.713h-0.568v-8.597h-5.736v-1.69h-8.713v7.685h-3.521v8.713
		h0.382V55.194z"/>
</g>
</svg>
