<?xml version="1.0" encoding="utf-8"?>
<!-- Generator: Adobe Illustrator 28.3.0, SVG Export Plug-In . SVG Version: 6.00 Build 0)  -->
<svg version="1.1" id="Layer_1" xmlns="http://www.w3.org/2000/svg" xmlns:xlink="http://www.w3.org/1999/xlink" x="0px" y="0px"
	 viewBox="0 0 110 110" xml:space="preserve">
<path d="M16.111,16.111c0,5.556-5.556,5.556-5.556,5.556C5,21.667,5,27.222,5,27.222v22.222C5,55,10.556,55,10.556,55
	c5.556,0,5.556,5.556,5.556,5.556c0,5.556,5.556,5.556,5.556,5.556c5.556,0,5.556,5.556,5.556,5.556
	c0,5.556,5.556,5.556,5.556,5.556c5.556,0,5.556,5.556,5.556,5.556c0,5.556,5.556,5.556,5.556,5.556
	c5.556,0,5.556,5.556,5.556,5.556c0,5.556,5.556,5.556,5.556,5.556c5.556,0,5.556-5.556,5.556-5.556
	c0-5.556,5.556-5.556,5.556-5.556c5.556,0,5.556-5.556,5.556-5.556c0-5.556,5.556-5.556,5.556-5.556
	c5.556,0,5.556-5.556,5.556-5.556c0-5.556,5.556-5.556,5.556-5.556c5.556,0,5.556-5.556,5.556-5.556C93.889,55,99.444,55,99.444,55
	C105,55,105,49.444,105,49.444V27.222c0-5.556-5.556-5.556-5.556-5.556c-5.556,0-5.556-5.556-5.556-5.556
	c0-5.556-5.556-5.556-5.556-5.556H77.222c-5.556,0-5.556,5.556-5.556,5.556c0,5.556-5.556,5.556-5.556,5.556
	c-5.556,0-5.556,5.556-5.556,5.556v11.111c0,5.556,5.556,5.556,5.556,5.556c5.556,0,5.556,5.556,5.556,5.556
	C71.667,55,66.111,55,66.111,55c-5.556,0-5.556,5.556-5.556,5.556c0,5.556-5.556,5.556-5.556,5.556
	c-5.556,0-5.556-5.556-5.556-5.556C49.444,55,43.889,55,43.889,55c-5.556,0-5.556-5.556-5.556-5.556
	c0-5.556,5.556-5.556,5.556-5.556c5.556,0,5.556-5.556,5.556-5.556V27.222c0-5.556-5.556-5.556-5.556-5.556
	c-5.556,0-5.556-5.556-5.556-5.556c0-5.556-5.556-5.556-5.556-5.556H21.667C16.111,10.556,16.111,16.111,16.111,16.111z
	 M31.389,21.667c6.944,0,6.944,6.944,6.944,6.944v9.722c0,5.556-5.556,5.556-5.556,5.556c-5.556,0-5.556,5.556-5.556,5.556
	C27.222,55,32.778,55,32.778,55c5.556,0,5.556,5.556,5.556,5.556c0,5.556,5.556,5.556,5.556,5.556c5.556,0,5.556,5.556,5.556,5.556
	c0,5.556,5.556,5.556,5.556,5.556c5.556,0,5.556-5.556,5.556-5.556c0-5.556,5.556-5.556,5.556-5.556
	c5.556,0,5.556-5.556,5.556-5.556C71.667,55,77.222,55,77.222,55c5.556,0,5.556-5.556,5.556-5.556c0-5.556-5.556-5.556-5.556-5.556
	c-5.556,0-5.556-5.556-5.556-5.556v-9.722c0-6.944,6.944-6.944,6.944-6.944h8.333c6.944,0,6.944,6.944,6.944,6.944v20.833
	C93.889,55,88.333,55,88.333,55c-5.556,0-5.556,5.556-5.556,5.556c0,5.556-5.556,5.556-5.556,5.556
	c-5.556,0-5.556,5.556-5.556,5.556c0,5.556-5.556,5.556-5.556,5.556c-5.556,0-5.556,5.556-5.556,5.556
	c0,5.556-5.556,5.556-5.556,5.556c-5.556,0-5.556-5.556-5.556-5.556c0-5.556-5.556-5.556-5.556-5.556
	c-5.556,0-5.556-5.556-5.556-5.556c0-5.556-5.556-5.556-5.556-5.556c-5.556,0-5.556-5.556-5.556-5.556
	C27.222,55,21.667,55,21.667,55c-5.556,0-5.556-5.556-5.556-5.556V28.611c0-6.944,6.944-6.944,6.944-6.944H31.389z"/>
</svg>
