<?xml version="1.0" encoding="utf-8"?>
<!-- Generator: Adobe Illustrator 28.3.0, SVG Export Plug-In . SVG Version: 6.00 Build 0)  -->
<svg version="1.1" id="Layer_1" xmlns="http://www.w3.org/2000/svg" xmlns:xlink="http://www.w3.org/1999/xlink" x="0px" y="0px"
	 viewBox="0 0 110 110" xml:space="preserve">
<path d="M104.688,52.144c0.64-0.504,1.228-1.065,1.653-1.754c0.644-1.043,0.837-2.455,0.16-3.477
	c-1.086-1.641-3.715-1.354-5.221-0.087s-2.307,3.16-3.471,4.747c-1.164,1.587-3.076,2.974-4.972,2.448
	c-1.51-0.418-2.475-1.903-3.878-2.6c-2.134-1.061-4.417-0.082-6.495,0.59c-2.041,0.66-4.228,0.857-6.354,0.572
	c-2.06-0.276-4.203-0.756-6.167,0.223c-1.063,0.53-1.898,1.428-2.923,2.028s-2.443,0.835-3.327,0.042
	c-1.403-1.259-0.251-3.631-0.815-5.429c-0.431-1.374-1.89-2.243-3.328-2.325s-2.838,0.488-4.073,1.229
	c-2.594,1.558-4.639,3.863-6.96,5.804c-2.576,2.153-5.543,3.734-9.007,3.261c-2.361-0.322-4.803-1.657-7.203-0.883
	c-2.018,0.651-3.264,2.605-4.798,4.068c-1.538,1.468-5.761,2.97-6.297-0.32c-0.1-0.615,0.051-1.227,0.258-1.804
	c0.164-0.457,0.438-0.906,0.317-1.412c-0.185-0.772-1.084-0.943-1.766-0.94c-1.568,0.007-3.322-0.134-4.755-0.813
	c-2.511-1.203-3.907-3.762-5.441-5.949c-0.767-1.094-1.622-2.363-2.743-3.129c-1.826-1.248-1.952,0.929-1.981,2.388
	c-0.079,4.036-0.768,8.059-2.035,11.891c-0.669,2.025-1.513,4.117-1.164,6.221c0.349,2.104,2.503,4.074,4.499,3.321
	c2.071-0.781,2.332-3.558,2.244-5.77c-0.069-1.718-0.138-3.436-0.207-5.154c-0.069-1.717,0.288-3.986,1.988-4.236
	c1.495-0.22,2.416,1.36,3.152,2.394c0.578,0.812,1.19,1.801,2.251,1.988c0.694,0.122,1.425-0.114,2.1,0.128
	c0.882,0.316,1.213,1.461,1.603,2.21c1.156,2.221,4.107,3.306,6.426,2.362c2.365-0.962,4.012-3.675,6.565-3.709
	c1.885-0.026,3.424,1.462,5.218,2.044c3.795,1.231,7.575-1.727,10.368-4.576c2.793-2.849,6.159-6.074,10.105-5.483
	c0.723,0.108,1.489,0.398,1.848,1.035c0.498,0.883,0.013,1.974,0,2.987c-0.022,1.686,1.535,3.227,3.221,3.188
	c1.507-0.035,2.752-1.109,4.04-1.892c2.916-1.773,6.635-2.159,9.852-1.024c1.062,0.375,2.161,0.914,3.261,0.673
	c2.074-0.456,2.788-3.319,4.793-4.02c2.213-0.774,4.212,1.442,6.312,2.485c3.909,1.941,8.551-0.306,12.134-2.798
	C104.017,52.645,104.36,52.402,104.688,52.144z"/>
</svg>
