<?xml version="1.0" encoding="utf-8"?>
<!-- Generator: Adobe Illustrator 28.3.0, SVG Export Plug-In . SVG Version: 6.00 Build 0)  -->
<svg version="1.1" id="Layer_1" xmlns="http://www.w3.org/2000/svg" xmlns:xlink="http://www.w3.org/1999/xlink" x="0px" y="0px"
	 viewBox="0 0 110 110" enable-background="new 0 0 110 110" xml:space="preserve">
<path d="M103.98,59.082c-1.02,0-1.02-1.02-1.02-1.02c0-1.02-1.02-1.02-1.02-1.02h-4.082c-1.02,0-1.02-1.02-1.02-1.02
	c0-1.02-1.02-1.02-1.02-1.02H83.571c-1.02,0-1.02-1.02-1.02-1.02c0-1.02-1.02-1.02-1.02-1.02c-1.02,0-1.02,1.02-1.02,1.02
	c0,1.02-1.02,1.02-1.02,1.02c-1.02,0-1.02-1.02-1.02-1.02v-2.041c0-1.02-1.02-1.02-1.02-1.02c-1.02,0-1.02,1.02-1.02,1.02
	c0,1.02-1.02,1.02-1.02,1.02c-1.02,0-1.02-1.02-1.02-1.02v-2.041c0-1.02,1.02-1.02,1.02-1.02c1.02,0,1.02-1.02,1.02-1.02
	c0-1.02,1.02-1.02,1.02-1.02c1.02,0,1.02-1.02,1.02-1.02v-4.082c0-1.02,1.02-1.02,1.02-1.02c1.02,0,1.02-1.02,1.02-1.02v-2.041
	c0-1.02,1.02-1.02,1.02-1.02c1.02,0,1.02-1.02,1.02-1.02v-2.041c0-1.02-1.02-1.02-1.02-1.02c-1.02,0-1.02,1.02-1.02,1.02
	c0,1.02-1.02,1.02-1.02,1.02c-1.02,0-1.02,1.02-1.02,1.02c0,1.02-1.02,1.02-1.02,1.02c-1.02,0-1.02,1.02-1.02,1.02v1.786
	c0,1.276-1.276,1.276-1.276,1.276h-1.786c-1.02,0-1.02,1.02-1.02,1.02c0,1.02-1.02,1.02-1.02,1.02c-1.02,0-1.02,1.02-1.02,1.02
	v2.041c0,1.02,1.02,1.02,1.02,1.02c1.02,0,1.02,1.02,1.02,1.02c0,1.02-1.02,1.02-1.02,1.02c-1.02,0-1.02,1.02-1.02,1.02v4.082
	c0,1.02,1.02,1.02,1.02,1.02c1.02,0,1.02,1.02,1.02,1.02c0,1.02-1.02,1.02-1.02,1.02c-1.02,0-1.02,1.02-1.02,1.02
	c0,1.02-1.02,1.02-1.02,1.02h-3.827c-1.276,0-1.276-1.276-1.276-1.276V56.02c0-1.02-1.02-1.02-1.02-1.02
	c-1.02,0-1.02-1.02-1.02-1.02v-1.786c0-1.276,1.276-1.276,1.276-1.276h3.827c1.02,0,1.02-1.02,1.02-1.02c0-1.02,1.02-1.02,1.02-1.02
	c1.02,0,1.02-1.02,1.02-1.02c0-1.02-1.02-1.02-1.02-1.02c-1.02,0-1.02-1.02-1.02-1.02c0-1.02-1.02-1.02-1.02-1.02
	c-1.02,0-1.02-1.02-1.02-1.02v-2.041c0-1.02-1.02-1.02-1.02-1.02c-1.02,0-1.02-1.02-1.02-1.02v-2.041c0-1.02-1.02-1.02-1.02-1.02
	c-1.02,0-1.02-1.02-1.02-1.02c0-1.02-1.02-1.02-1.02-1.02c-1.02,0-1.02-1.02-1.02-1.02c0-1.02,1.02-1.02,1.02-1.02
	c1.02,0,1.02-1.02,1.02-1.02c0-1.02-1.02-1.02-1.02-1.02c-1.02,0-1.02-1.02-1.02-1.02v-2.041c0-1.02-1.02-1.02-1.02-1.02
	c-1.02,0-1.02,1.02-1.02,1.02v2.041c0,1.02-1.02,1.02-1.02,1.02c-1.02,0-1.02,1.02-1.02,1.02v2.041c0,1.02,1.02,1.02,1.02,1.02
	c1.02,0,1.02,1.02,1.02,1.02c0,1.02,1.02,1.02,1.02,1.02c1.02,0,1.02,1.02,1.02,1.02v5.867c0,1.276-1.276,1.276-1.276,1.276h-1.786
	c-1.02,0-1.02-1.02-1.02-1.02c0-1.02-1.02-1.02-1.02-1.02c-1.02,0-1.02-1.02-1.02-1.02c0-1.02-1.02-1.02-1.02-1.02
	c-1.02,0-1.02-1.02-1.02-1.02c0-1.02-1.02-1.02-1.02-1.02c-1.02,0-1.02-1.02-1.02-1.02c0-1.02-1.02-1.02-1.02-1.02h-2.041
	c-1.02,0-1.02-1.02-1.02-1.02c0-1.02-1.02-1.02-1.02-1.02h-2.041c-1.02,0-1.02-1.02-1.02-1.02c0-1.02-1.02-1.02-1.02-1.02
	c-1.02,0-1.02-1.02-1.02-1.02c0-1.02-1.02-1.02-1.02-1.02c-1.02,0-1.02-1.02-1.02-1.02c0-1.02-1.02-1.02-1.02-1.02h-1.786
	c-1.276,0-1.276,1.276-1.276,1.276v1.531c0,1.276,1.276,1.276,1.276,1.276h1.786c1.02,0,1.02,1.02,1.02,1.02
	c0,1.02,1.02,1.02,1.02,1.02c1.02,0,1.02,1.02,1.02,1.02c0,1.02,1.02,1.02,1.02,1.02c1.02,0,1.02,1.02,1.02,1.02
	c0,1.02,1.02,1.02,1.02,1.02h2.041c1.02,0,1.02,1.02,1.02,1.02c0,1.02,1.02,1.02,1.02,1.02c1.02,0,1.02,1.02,1.02,1.02
	c0,1.02,1.02,1.02,1.02,1.02c1.02,0,1.02,1.02,1.02,1.02c0,1.02,1.02,1.02,1.02,1.02c1.02,0,1.02,1.02,1.02,1.02
	c0,1.02,1.02,1.02,1.02,1.02H55c1.02,0,1.02,1.02,1.02,1.02c0,1.02-1.02,1.02-1.02,1.02H44.796c-1.02,0-1.02-1.02-1.02-1.02
	c0-1.02-1.02-1.02-1.02-1.02c-1.02,0-1.02,1.02-1.02,1.02c0,1.02-1.02,1.02-1.02,1.02c-1.02,0-1.02-1.02-1.02-1.02
	c0-1.02-1.02-1.02-1.02-1.02H20.306c-1.02,0-1.02-1.02-1.02-1.02c0-1.02-1.02-1.02-1.02-1.02H6.02C5,44.796,5,45.816,5,45.816
	c0,1.02,1.02,1.02,1.02,1.02h2.041c1.02,0,1.02,1.02,1.02,1.02c0,1.02,1.02,1.02,1.02,1.02h4.082c1.02,0,1.02-1.02,1.02-1.02
	c0-1.02,1.02-1.02,1.02-1.02c1.02,0,1.02,1.02,1.02,1.02c0,1.02,1.02,1.02,1.02,1.02h4.082c1.02,0,1.02,1.02,1.02,1.02
	c0,1.02,1.02,1.02,1.02,1.02h10.204c1.02,0,1.02,1.02,1.02,1.02c0,1.02,1.02,1.02,1.02,1.02h4.082c1.02,0,1.02,1.02,1.02,1.02
	c0,1.02,1.02,1.02,1.02,1.02c1.02,0,1.02-1.02,1.02-1.02c0-1.02,1.02-1.02,1.02-1.02h2.041c1.02,0,1.02,1.02,1.02,1.02
	c0,1.02,1.02,1.02,1.02,1.02H55c1.02,0,1.02,1.02,1.02,1.02c0,1.02,1.02,1.02,1.02,1.02h2.041c1.02,0,1.02,1.02,1.02,1.02
	c0,1.02-1.02,1.02-1.02,1.02c-1.02,0-1.02,1.02-1.02,1.02v2.041c0,1.02-1.02,1.02-1.02,1.02c-1.02,0-1.02,1.02-1.02,1.02
	c0,1.02-1.02,1.02-1.02,1.02c-1.02,0-1.02,1.02-1.02,1.02v2.041c0,1.02-1.02,1.02-1.02,1.02c-1.02,0-1.02,1.02-1.02,1.02v2.041
	c0,1.02-1.02,1.02-1.02,1.02c-1.02,0-1.02,1.02-1.02,1.02c0,1.02-1.02,1.02-1.02,1.02c-1.02,0-1.02,1.02-1.02,1.02v1.786
	c0,1.276,1.276,1.276,1.276,1.276h1.531c1.276,0,1.276-1.276,1.276-1.276v-1.786c0-1.02,1.02-1.02,1.02-1.02
	c1.02,0,1.02-1.02,1.02-1.02c0-1.02,1.02-1.02,1.02-1.02c1.02,0,1.02-1.02,1.02-1.02c0-1.02,1.02-1.02,1.02-1.02
	c1.02,0,1.02-1.02,1.02-1.02c0-1.02,1.02-1.02,1.02-1.02c1.02,0,1.02-1.02,1.02-1.02c0-1.02,1.02-1.02,1.02-1.02
	c1.02,0,1.02-1.02,1.02-1.02c0-1.02,1.02-1.02,1.02-1.02c1.02,0,1.02-1.02,1.02-1.02c0-1.02,1.02-1.02,1.02-1.02h1.786
	c1.276,0,1.276,1.276,1.276,1.276v1.786c0,1.02,1.02,1.02,1.02,1.02c1.02,0,1.02,1.02,1.02,1.02v2.041c0,1.02,1.02,1.02,1.02,1.02
	c1.02,0,1.02,1.02,1.02,1.02v4.082c0,1.02,1.02,1.02,1.02,1.02c1.02,0,1.02,1.02,1.02,1.02v2.041c0,1.02,1.02,1.02,1.02,1.02
	c1.02,0,1.02,1.02,1.02,1.02c0,1.02,1.02,1.02,1.02,1.02c1.02,0,1.02-1.02,1.02-1.02V80.51c0-1.02-1.02-1.02-1.02-1.02
	c-1.02,0-1.02-1.02-1.02-1.02v-6.122c0-1.02-1.02-1.02-1.02-1.02c-1.02,0-1.02-1.02-1.02-1.02v-6.122c0-1.02,1.02-1.02,1.02-1.02
	c1.02,0,1.02,1.02,1.02,1.02c0,1.02,1.02,1.02,1.02,1.02h2.041c1.02,0,1.02,1.02,1.02,1.02c0,1.02,1.02,1.02,1.02,1.02h2.041
	c1.02,0,1.02,1.02,1.02,1.02c0,1.02,1.02,1.02,1.02,1.02c1.02,0,1.02,1.02,1.02,1.02c0,1.02,1.02,1.02,1.02,1.02h2.041
	c1.02,0,1.02,1.02,1.02,1.02c0,1.02,1.02,1.02,1.02,1.02c1.02,0,1.02-1.02,1.02-1.02v-1.786c0-1.276-1.276-1.276-1.276-1.276h-1.531
	c-1.276,0-1.276-1.276-1.276-1.276v-1.786c0-1.02-1.02-1.02-1.02-1.02c-1.02,0-1.02-1.02-1.02-1.02c0-1.02-1.02-1.02-1.02-1.02
	h-2.041c-1.02,0-1.02-1.02-1.02-1.02c0-1.02-1.02-1.02-1.02-1.02H79.49c-1.02,0-1.02-1.02-1.02-1.02c0-1.02,1.02-1.02,1.02-1.02
	h6.122c1.02,0,1.02,1.02,1.02,1.02c0,1.02,1.02,1.02,1.02,1.02c1.02,0,1.02-1.02,1.02-1.02c0-1.02,1.02-1.02,1.02-1.02h2.041
	c1.02,0,1.02,1.02,1.02,1.02c0,1.02,1.02,1.02,1.02,1.02c1.02,0,1.02-1.02,1.02-1.02c0-1.02,1.02-1.02,1.02-1.02
	c1.02,0,1.02,1.02,1.02,1.02c0,1.02,1.02,1.02,1.02,1.02h6.122c1.02,0,1.02-1.02,1.02-1.02C105,59.082,103.98,59.082,103.98,59.082z
	 M52.959,52.959c-1.02,0-1.02-1.02-1.02-1.02c0-1.02,1.02-1.02,1.02-1.02c1.02,0,1.02,1.02,1.02,1.02
	C53.98,52.959,52.959,52.959,52.959,52.959z"/>
</svg>
