<?xml version="1.0" encoding="utf-8"?>
<!-- Generator: Adobe Illustrator 28.3.0, SVG Export Plug-In . SVG Version: 6.00 Build 0)  -->
<svg version="1.1" id="Layer_1" xmlns="http://www.w3.org/2000/svg" xmlns:xlink="http://www.w3.org/1999/xlink" x="0px" y="0px"
	 viewBox="0 0 110 110" xml:space="preserve">
<path d="M47.857,83.571c0,0,0-7.143-7.143-7.143l0,0c0,0-7.143,0-7.143-7.143l0,0c0,0,0-7.143-7.143-7.143H12.143
	c0,0-7.143,0-7.143-7.143l0,0c0,0,0-7.143,7.143-7.143h14.286c0,0,7.143,0,7.143-7.143l0,0c0,0,0-7.143,7.143-7.143l0,0
	c0,0,7.143,0,7.143-7.143V12.143c0,0,0-7.143,7.143-7.143l0,0c0,0,7.143,0,7.143,7.143v14.286c0,0,0,7.143,7.143,7.143l0,0
	c0,0,7.143,0,7.143,7.143l0,0c0,0,0,7.143,7.143,7.143h14.286c0,0,7.143,0,7.143,7.143l0,0c0,0,0,7.143-7.143,7.143H83.571
	c0,0-7.143,0-7.143,7.143l0,0c0,0,0,7.143-7.143,7.143l0,0c0,0-7.143,0-7.143,7.143v14.286c0,0,0,7.143-7.143,7.143l0,0
	c0,0-7.143,0-7.143-7.143V83.571z"/>
</svg>
