<?xml version="1.0" encoding="utf-8"?>
<!-- Generator: Adobe Illustrator 28.3.0, SVG Export Plug-In . SVG Version: 6.00 Build 0)  -->
<svg version="1.1" id="Layer_1" xmlns="http://www.w3.org/2000/svg" xmlns:xlink="http://www.w3.org/1999/xlink" x="0px" y="0px"
	 viewBox="0 0 110 110" xml:space="preserve">
<path d="M85.769,97.308c0,0-3.846,0-3.846-3.846v-7.692c0,0,0-3.846-3.846-3.846l0,0c0,0-3.846,0-3.846,3.846l0,0
	c0,0,0,3.846-3.846,3.846l0,0c0,0-3.846,0-3.846-3.846V70.385c0,0,0-3.846-3.846-3.846l0,0c0,0-3.846,0-3.846,3.846l0,0
	c0,0,0,3.846-3.846,3.846l0,0c0,0-3.846,0-3.846-3.846V55c0,0,0-3.846-3.846-3.846l0,0c0,0-3.846,0-3.846,3.846l0,0
	c0,0,0,3.846-3.846,3.846l0,0c0,0-3.846,0-3.846-3.846V39.615c0,0,0-3.846-3.846-3.846l0,0c0,0-3.846,0-3.846,3.846l0,0
	c0,0,0,3.846-3.846,3.846l0,0c0,0-3.846,0-3.846-3.846V24.231c0,0,0-3.846-3.846-3.846l0,0c0,0-3.846,0-3.846-3.846V8.846
	c0,0,0-3.846,3.846-3.846l0,0c0,0,3.846,0,3.846,3.846l0,0c0,0,0,3.846,3.846,3.846l0,0c0,0,3.846,0,3.846,3.846v7.692
	c0,0,0,3.846,3.846,3.846l0,0c0,0,3.846,0,3.846-3.846l0,0c0,0,0-3.846,3.846-3.846l0,0c0,0,3.846,0,3.846,3.846v15.385
	c0,0,0,3.846,3.846,3.846l0,0c0,0,3.846,0,3.846-3.846l0,0c0,0,0-3.846,3.846-3.846l0,0c0,0,3.846,0,3.846,3.846V55
	c0,0,0,3.846,3.846,3.846l0,0c0,0,3.846,0,3.846-3.846l0,0c0,0,0-3.846,3.846-3.846l0,0c0,0,3.846,0,3.846,3.846v15.385
	c0,0,0,3.846,3.846,3.846l0,0c0,0,3.846,0,3.846-3.846l0,0c0,0,0-3.846,3.846-3.846l0,0c0,0,3.846,0,3.846,3.846v15.385
	c0,0,0,3.846,3.846,3.846l0,0c0,0,3.846,0,3.846,3.846v7.692c0,0,0,3.846-3.846,3.846l0,0c0,0-3.846,0-3.846-3.846l0,0
	C89.615,101.154,89.615,97.308,85.769,97.308z"/>
</svg>
