<svg width="400" height="400" viewBox="0 0 400 400" fill="none" xmlns="http://www.w3.org/2000/svg">
<path d="M56 176.4V158.6H38V100.8H56V82.8H114V100.8H132.2V123H110V105.2H60V154H110V136H132.2V158.6H114V176.4H56ZM152.453 176.4V47.4H174.453V100.8H188.453V82.8H228.453V100.8H246.653V176.4H224.453V105.2H192.253V123H174.453V176.4H152.453ZM284.906 176.4V158.6H266.906V100.8H284.906V82.8H342.906V100.8H361.106V158.6H342.906V176.4H284.906ZM288.906 154H338.906V105.2H288.906V154ZM56 330.4V312.6H38V254.8H56V236.8H114V254.8H132.2V277H110V259.2H60V308H110V290H132.2V312.6H114V330.4H56ZM152.453 330.4V201.4H174.453V254.8H188.453V236.8H228.453V254.8H246.653V330.4H224.453V259.2H192.253V277H174.453V330.4H152.453ZM284.906 330.4V312.6H266.906V254.8H284.906V236.8H342.906V254.8H361.106V312.6H342.906V330.4H284.906ZM288.906 308H338.906V259.2H288.906V308Z" fill="#2E68F7"/>
</svg>
