<?xml version="1.0" encoding="utf-8"?>
<!-- Generator: Adobe Illustrator 28.3.0, SVG Export Plug-In . SVG Version: 6.00 Build 0)  -->
<svg version="1.1" id="Layer_1" xmlns="http://www.w3.org/2000/svg" xmlns:xlink="http://www.w3.org/1999/xlink" x="0px" y="0px"
	 viewBox="0 0 110 110" xml:space="preserve">
<path fill="none" stroke="#000000" stroke-width="0.2933" stroke-miterlimit="10" d="M46.202,60.865c0,0,0-2.933,2.933-2.933l0,0
	c0,0,2.933,0,2.933-2.933l0,0c0,0,0-2.933,2.933-2.933l0,0c0,0,2.933,0,2.933-2.933l0,0c0,0,0-2.933,2.933-2.933l0,0
	c0,0,2.933,0,2.933-2.933l0,0c0,0,0-2.933,2.933-2.933l0,0c0,0,2.933,0,2.933-2.933l0,0c0,0,0-2.933-2.933-2.933l0,0
	c0,0-2.933,0-2.933-2.933l0,0c0,0,0-2.933-2.933-2.933l0,0c0,0-2.933,0-2.933-2.933v-5.865c0,0,0-2.933-2.933-2.933l0,0
	c0,0-2.933,0-2.933-2.933l0,0c0,0,0-2.933-2.933-2.933l0,0c0,0-2.933,0-2.933-2.933l0,0c0,0,0-2.933,2.933-2.933H78.46
	c0,0,2.933,0,2.933,2.933l0,0c0,0,0,2.933-2.933,2.933l0,0c0,0-2.933,0-2.933,2.933l0,0c0,0,0,2.933-2.933,2.933l0,0
	c0,0-2.933,0-2.933,2.933v5.865c0,0,0,2.933,2.933,2.933l0,0c0,0,2.933,0,2.933,2.933l0,0c0,0,0,2.933,2.933,2.933l0,0
	c0,0,2.933,0,2.933,2.933l0,0c0,0,0,2.933-2.933,2.933l0,0c0,0-2.933,0-2.933,2.933l0,0c0,0,0,2.933-2.933,2.933l0,0
	c0,0-2.933,0-2.933,2.933l0,0c0,0,0,2.933-2.933,2.933l0,0c0,0-2.933,0-2.933,2.933l0,0c0,0,0,2.933,2.933,2.933l0,0
	c0,0,2.933,0,2.933,2.933l0,0c0,0,0,2.933-2.933,2.933H55c0,0-2.933,0-2.933,2.933l0,0c0,0,0,2.933,2.933,2.933h5.132
	c0,0,3.666,0,3.666,3.666v5.132c0,0,0,2.933,2.933,2.933l0,0c0,0,2.933,0,2.933,2.933l0,0c0,0,0,2.933-2.933,2.933l0,0
	c0,0-2.933,0-2.933,2.933l0,0c0,0,0,2.933-2.933,2.933l0,0c0,0-2.933,0-2.933,2.933v5.865c0,0,0,2.933-2.933,2.933l0,0
	c0,0-2.933,0-2.933-2.933v-11.73c0,0,0-2.933,2.933-2.933l0,0c0,0,2.933,0,2.933-2.933l0,0c0,0,0-2.933-2.933-2.933l0,0
	c0,0-2.933,0-2.933-2.933l0,0c0,0,0-2.933-2.933-2.933l0,0c0,0-2.933,0-2.933,2.933l0,0c0,0,0,2.933-2.933,2.933H31.54
	c0,0-2.933,0-2.933-2.933l0,0c0,0,0-2.933,2.933-2.933h5.865c0,0,2.933,0,2.933-2.933l0,0c0,0,0-2.933,2.933-2.933l0,0
	c0,0,2.933,0,2.933-2.933V60.865z"/>
</svg>
